DarkerGrotesque-Light.ufo
<glyph name="exclam" format="2">
  <advance width="155"/>
  <unicode hex="0021"/>
  <outline>
    <contour>
      <point x="85" y="-9" type="curve"/>
      <point x="101" y="-9"/>
      <point x="105" y="2"/>
      <point x="105" y="17" type="curve"/>
      <point x="105" y="30"/>
      <point x="101" y="41"/>
      <point x="85" y="41" type="curve"/>
      <point x="69" y="41"/>
      <point x="65" y="30"/>
      <point x="65" y="17" type="curve"/>
      <point x="65" y="2"/>
      <point x="69" y="-9"/>
    </contour>
    <contour>
      <point x="75" y="110" type="curve"/>
      <point x="75" y="110"/>
      <point x="79" y="111"/>
      <point x="85" y="111" type="curve"/>
      <point x="88" y="111"/>
      <point x="95" y="110"/>
      <point x="95" y="110" type="curve"/>
      <point x="99" y="506"/>
      <point x="116" y="563"/>
      <point x="85" y="563" type="curve" smooth="yes"/>
      <point x="48" y="563"/>
      <point x="69" y="506"/>
    </contour>
  </outline>
</glyph>
<glyph name="numbersign" format="2">
  <advance width="693"/>
  <unicode hex="0023"/>
  <outline>
    <contour>
      <point x="122" y="0" type="line"/>
      <point x="149" y="0" type="line"/>
      <point x="223" y="211" type="line"/>
      <point x="360" y="563" type="line"/>
      <point x="333" y="563" type="line"/>
      <point x="268" y="377" type="line"/>
    </contour>
    <contour>
      <point x="40" y="186" type="line"/>
      <point x="596" y="186" type="line"/>
      <point x="596" y="211" type="line"/>
      <point x="40" y="211" type="line"/>
    </contour>
    <contour>
      <point x="323" y="0" type="line"/>
      <point x="350" y="0" type="line"/>
      <point x="424" y="211" type="line"/>
      <point x="561" y="563" type="line"/>
      <point x="534" y="563" type="line"/>
      <point x="470" y="377" type="line"/>
    </contour>
    <contour>
      <point x="95" y="377" type="line"/>
      <point x="648" y="377" type="line"/>
      <point x="648" y="402" type="line"/>
      <point x="95" y="402" type="line"/>
    </contour>
  </outline>
</glyph>
<glyph name="dollar" format="2">
  <advance width="519"/>
  <unicode hex="0024"/>
  <outline>
    <contour>
      <point x="276" y="-14" type="curve"/>
      <point x="383" y="-14"/>
      <point x="471" y="38"/>
      <point x="474" y="128" type="curve"/>
      <point x="480" y="352"/>
      <point x="92" y="243"/>
      <point x="97" y="435" type="curve"/>
      <point x="99" y="499"/>
      <point x="171" y="548"/>
      <point x="272" y="548" type="curve"/>
      <point x="331" y="548"/>
      <point x="446" y="520"/>
      <point x="442" y="398" type="curve"/>
      <point x="469" y="398" type="line"/>
      <point x="473" y="513"/>
      <point x="384" y="573"/>
      <point x="273" y="573" type="curve"/>
      <point x="166" y="573"/>
      <point x="73" y="521"/>
      <point x="70" y="435" type="curve"/>
      <point x="64" y="220"/>
      <point x="456" y="324"/>
      <point x="450" y="128" type="curve"/>
      <point x="449" y="108"/>
      <point x="437" y="11"/>
      <point x="277" y="11" type="curve"/>
      <point x="70" y="11"/>
      <point x="73" y="158"/>
      <point x="73" y="166" type="curve"/>
      <point x="46" y="166" type="line"/>
      <point x="49" y="40"/>
      <point x="161" y="-14"/>
    </contour>
    <contour>
      <point x="264" y="-110" type="line"/>
      <point x="289" y="-110" type="line"/>
      <point x="289" y="0" type="line"/>
      <point x="264" y="0" type="line"/>
    </contour>
    <contour>
      <point x="264" y="563" type="line"/>
      <point x="289" y="563" type="line"/>
      <point x="289" y="673" type="line"/>
      <point x="264" y="673" type="line"/>
    </contour>
  </outline>
</glyph>
<glyph name="ampersand" format="2">
  <advance width="624"/>
  <unicode hex="0026"/>
  <guideline x="725" y="572" angle="0"/>
  <guideline x="725" y="-10" angle="0"/>
  <outline>
    <contour>
      <point x="594" y="-1" type="curve"/>
      <point x="604" y="24" type="line"/>
      <point x="556" y="42"/>
      <point x="520" y="65"/>
      <point x="464" y="104" type="curve"/>
      <point x="514" y="178"/>
      <point x="535" y="310"/>
      <point x="487" y="372" type="curve"/>
      <point x="466" y="354" type="line"/>
      <point x="506" y="301"/>
      <point x="487" y="190"/>
      <point x="443" y="119" type="curve"/>
      <point x="375" y="165"/>
      <point x="278" y="254"/>
      <point x="234" y="312" type="curve"/>
      <point x="266" y="329"/>
      <point x="393" y="384"/>
      <point x="393" y="468" type="curve" smooth="yes"/>
      <point x="393" y="605"/>
      <point x="137" y="609"/>
      <point x="137" y="458" type="curve" smooth="yes"/>
      <point x="137" y="415"/>
      <point x="163" y="367"/>
      <point x="195" y="322" type="curve"/>
      <point x="124" y="285"/>
      <point x="55" y="240"/>
      <point x="55" y="153" type="curve" smooth="yes"/>
      <point x="55" y="-32"/>
      <point x="329" y="-64"/>
      <point x="448" y="82" type="curve"/>
      <point x="506" y="42"/>
      <point x="543" y="18"/>
    </contour>
    <contour>
      <point x="426" y="97" type="curve"/>
      <point x="323" y="-30"/>
      <point x="84" y="-4"/>
      <point x="84" y="156" type="curve" smooth="yes"/>
      <point x="84" y="231"/>
      <point x="141" y="274"/>
      <point x="208" y="307" type="curve"/>
      <point x="257" y="244"/>
      <point x="352" y="151"/>
    </contour>
    <contour>
      <point x="220" y="325" type="curve"/>
      <point x="184" y="374"/>
      <point x="163" y="422"/>
      <point x="163" y="455" type="curve" smooth="yes"/>
      <point x="163" y="571"/>
      <point x="367" y="574"/>
      <point x="367" y="465" type="curve" smooth="yes"/>
      <point x="367" y="381"/>
      <point x="220" y="325"/>
    </contour>
  </outline>
</glyph>
<glyph name="quotesingle" format="2">
  <advance width="124"/>
  <unicode hex="0027"/>
  <outline>
    <contour>
      <point x="33" y="432" type="line"/>
      <point x="47" y="432" type="line" smooth="yes"/>
      <point x="82" y="432"/>
      <point x="91" y="462"/>
      <point x="91" y="524" type="curve" smooth="yes"/>
      <point x="91" y="550"/>
      <point x="87" y="563"/>
      <point x="65" y="563" type="curve" smooth="yes"/>
      <point x="44" y="563"/>
      <point x="39" y="550"/>
      <point x="39" y="535" type="curve" smooth="yes"/>
      <point x="39" y="510"/>
      <point x="52" y="500"/>
      <point x="74" y="505" type="curve"/>
      <point x="74" y="485"/>
      <point x="75" y="462"/>
      <point x="44" y="462" type="curve" smooth="yes"/>
      <point x="33" y="462" type="line"/>
    </contour>
  </outline>
</glyph>
<glyph name="parenleft" format="2">
  <advance width="255"/>
  <unicode hex="0028"/>
  <guideline x="219" y="15" angle="90"/>
  <guideline x="309" y="603" angle="0"/>
  <outline>
    <contour>
      <point x="232" y="-199" type="curve"/>
      <point x="250" y="-175" type="line"/>
      <point x="250" y="-175"/>
      <point x="67" y="-71"/>
      <point x="67" y="200" type="curve" smooth="yes"/>
      <point x="67" y="467"/>
      <point x="239" y="572"/>
      <point x="250" y="581" type="curve"/>
      <point x="232" y="603" type="line"/>
      <point x="232" y="603"/>
      <point x="45" y="472"/>
      <point x="45" y="200" type="curve" smooth="yes"/>
      <point x="45" y="-71"/>
      <point x="232" y="-199"/>
    </contour>
  </outline>
</glyph>
<glyph name="parenright" format="2">
  <advance width="245"/>
  <unicode hex="0029"/>
  <outline>
    <contour>
      <point x="13" y="-199" type="line"/>
      <point x="13" y="-199"/>
      <point x="200" y="-71"/>
      <point x="200" y="200" type="curve" smooth="yes"/>
      <point x="200" y="472"/>
      <point x="13" y="603"/>
      <point x="13" y="603" type="curve"/>
      <point x="-5" y="581" type="line"/>
      <point x="6" y="572"/>
      <point x="178" y="467"/>
      <point x="178" y="200" type="curve" smooth="yes"/>
      <point x="178" y="-71"/>
      <point x="-5" y="-175"/>
      <point x="-5" y="-175" type="curve"/>
    </contour>
  </outline>
</glyph>
<glyph name="asterisk" format="2">
  <advance width="373"/>
  <unicode hex="002A"/>
  <guideline x="291" y="256" angle="0"/>
  <outline>
    <contour>
      <point x="348" y="436" type="line"/>
      <point x="338" y="464" type="line"/>
      <point x="195" y="408" type="line"/>
      <point x="202" y="563" type="line"/>
      <point x="171" y="563" type="line"/>
      <point x="178" y="408" type="line"/>
      <point x="36" y="464" type="line"/>
      <point x="25" y="436" type="line"/>
      <point x="175" y="394" type="line"/>
      <point x="78" y="276" type="line"/>
      <point x="102" y="258" type="line"/>
      <point x="186" y="384" type="line"/>
      <point x="270" y="258" type="line"/>
      <point x="295" y="276" type="line"/>
      <point x="198" y="394" type="line"/>
    </contour>
  </outline>
</glyph>
<glyph name="plus" format="2">
  <advance width="330"/>
  <unicode hex="002B"/>
  <guideline x="80" y="91" angle="0"/>
  <guideline x="80" y="223" angle="0"/>
  <guideline x="80" y="351" angle="0"/>
  <outline>
    <contour>
      <point x="151" y="91" type="line"/>
      <point x="177" y="91" type="line"/>
      <point x="177" y="351" type="line"/>
      <point x="151" y="351" type="line"/>
    </contour>
    <contour>
      <point x="35" y="210" type="line"/>
      <point x="295" y="210" type="line"/>
      <point x="295" y="236" type="line"/>
      <point x="35" y="236" type="line"/>
    </contour>
  </outline>
</glyph>
<glyph name="comma" format="2">
  <advance width="148"/>
  <unicode hex="002C"/>
  <guideline x="214" y="59" angle="0"/>
  <guideline x="221" y="-72" angle="0"/>
  <guideline x="221" y="-42" angle="0"/>
  <outline>
    <contour>
      <point x="45" y="-74" type="line"/>
      <point x="59" y="-74" type="line" smooth="yes"/>
      <point x="94" y="-74"/>
      <point x="103" y="-44"/>
      <point x="103" y="18" type="curve" smooth="yes"/>
      <point x="103" y="44"/>
      <point x="99" y="57"/>
      <point x="77" y="57" type="curve" smooth="yes"/>
      <point x="56" y="57"/>
      <point x="51" y="44"/>
      <point x="51" y="29" type="curve" smooth="yes"/>
      <point x="51" y="4"/>
      <point x="64" y="-6"/>
      <point x="86" y="-1" type="curve"/>
      <point x="86" y="-21"/>
      <point x="87" y="-44"/>
      <point x="56" y="-44" type="curve" smooth="yes"/>
      <point x="45" y="-44" type="line"/>
    </contour>
  </outline>
</glyph>
<glyph name="period" format="2">
  <advance width="138"/>
  <unicode hex="002E"/>
  <outline>
    <contour>
      <point x="59" y="0" type="curve"/>
      <point x="78" y="0"/>
      <point x="83" y="13"/>
      <point x="83" y="29" type="curve"/>
      <point x="83" y="45"/>
      <point x="78" y="59"/>
      <point x="59" y="59" type="curve"/>
      <point x="40" y="59"/>
      <point x="35" y="45"/>
      <point x="35" y="29" type="curve"/>
      <point x="35" y="13"/>
      <point x="40" y="0"/>
    </contour>
  </outline>
</glyph>
<glyph name="slash" format="2">
  <advance width="319"/>
  <unicode hex="002F"/>
  <outline>
    <contour>
      <point x="25" y="0" type="line"/>
      <point x="55" y="0" type="line"/>
      <point x="309" y="563" type="line"/>
      <point x="279" y="563" type="line"/>
    </contour>
  </outline>
</glyph>
<glyph name="zero" format="2">
  <advance width="482"/>
  <unicode hex="0030"/>
  <guideline x="359" y="549" angle="0"/>
  <guideline x="359" y="573" angle="0"/>
  <guideline x="457" y="213" angle="90"/>
  <guideline x="430" y="213" angle="90"/>
  <outline>
    <contour>
      <point x="241" y="-14" type="curve"/>
      <point x="391" y="-14"/>
      <point x="457" y="106"/>
      <point x="457" y="280" type="curve"/>
      <point x="457" y="458"/>
      <point x="391" y="573"/>
      <point x="241" y="573" type="curve"/>
      <point x="88" y="573"/>
      <point x="25" y="457"/>
      <point x="25" y="280" type="curve"/>
      <point x="25" y="100"/>
      <point x="92" y="-14"/>
    </contour>
    <contour>
      <point x="241" y="10" type="curve"/>
      <point x="107" y="10"/>
      <point x="52" y="117"/>
      <point x="52" y="280" type="curve"/>
      <point x="52" y="450"/>
      <point x="111" y="549"/>
      <point x="241" y="549" type="curve"/>
      <point x="375" y="549"/>
      <point x="430" y="443"/>
      <point x="430" y="280" type="curve"/>
      <point x="430" y="116"/>
      <point x="372" y="10"/>
    </contour>
  </outline>
</glyph>
<glyph name="one" format="2">
  <advance width="283"/>
  <unicode hex="0031"/>
  <guideline x="335" y="-14" angle="0"/>
  <guideline x="210" y="225" angle="0"/>
  <outline>
    <contour>
      <point x="248" y="25" type="line"/>
      <point x="165" y="25" type="line"/>
      <point x="165" y="563" type="line"/>
      <point x="141" y="563" type="line"/>
      <point x="141" y="463"/>
      <point x="34" y="437"/>
      <point x="20" y="437" type="curve"/>
      <point x="20" y="413" type="line"/>
      <point x="34" y="413"/>
      <point x="109" y="425"/>
      <point x="141" y="493" type="curve"/>
      <point x="141" y="25" type="line"/>
      <point x="55" y="25" type="line"/>
      <point x="55" y="0" type="line"/>
      <point x="248" y="0" type="line"/>
    </contour>
  </outline>
</glyph>
<glyph name="two" format="2">
  <advance width="464"/>
  <unicode hex="0032"/>
  <outline>
    <contour>
      <point x="35" y="0" type="line"/>
      <point x="419" y="0" type="line"/>
      <point x="419" y="25" type="line"/>
      <point x="69" y="25" type="line"/>
      <point x="85" y="35"/>
      <point x="331" y="229"/>
      <point x="385" y="334" type="curve"/>
      <point x="445" y="454"/>
      <point x="374" y="563"/>
      <point x="230" y="563" type="curve" smooth="yes"/>
      <point x="126" y="563"/>
      <point x="58" y="503"/>
      <point x="53" y="404" type="curve"/>
      <point x="77" y="404" type="line"/>
      <point x="82" y="492"/>
      <point x="141" y="539"/>
      <point x="227" y="541" type="curve" smooth="yes"/>
      <point x="351" y="541"/>
      <point x="415" y="452"/>
      <point x="363" y="345" type="curve"/>
      <point x="300" y="221"/>
      <point x="37" y="24"/>
      <point x="35" y="22" type="curve"/>
    </contour>
  </outline>
</glyph>
<glyph name="three" format="2">
  <advance width="467"/>
  <unicode hex="0033"/>
  <guideline x="379" y="-10" angle="0"/>
  <outline>
    <contour>
      <point x="234" y="-10" type="curve"/>
      <point x="348" y="-10"/>
      <point x="435" y="55"/>
      <point x="435" y="152" type="curve"/>
      <point x="435" y="225"/>
      <point x="384" y="272"/>
      <point x="330" y="291" type="curve"/>
      <point x="380" y="311"/>
      <point x="419" y="343"/>
      <point x="419" y="409" type="curve"/>
      <point x="419" y="511"/>
      <point x="342" y="573"/>
      <point x="232" y="573" type="curve"/>
      <point x="90" y="573"/>
      <point x="45" y="455"/>
      <point x="42" y="412" type="curve"/>
      <point x="67" y="412" type="line"/>
      <point x="73" y="456"/>
      <point x="110" y="549"/>
      <point x="232" y="549" type="curve"/>
      <point x="329" y="549"/>
      <point x="392" y="498"/>
      <point x="392" y="409" type="curve"/>
      <point x="392" y="348"/>
      <point x="355" y="300"/>
      <point x="277" y="300" type="curve"/>
      <point x="183" y="300" type="line"/>
      <point x="183" y="281" type="line"/>
      <point x="277" y="281" type="line"/>
      <point x="312" y="281"/>
      <point x="410" y="256"/>
      <point x="410" y="151" type="curve"/>
      <point x="410" y="65"/>
      <point x="327" y="15"/>
      <point x="234" y="15" type="curve"/>
      <point x="153" y="15"/>
      <point x="62" y="60"/>
      <point x="55" y="171" type="curve"/>
      <point x="30" y="171" type="line"/>
      <point x="34" y="49"/>
      <point x="141" y="-10"/>
    </contour>
  </outline>
</glyph>
<glyph name="four" format="2">
  <advance width="471"/>
  <unicode hex="0034"/>
  <guideline x="240" y="382" angle="90"/>
  <guideline x="306" y="398" angle="0"/>
  <outline>
    <contour>
      <point x="20" y="128" type="line"/>
      <point x="441" y="128" type="line"/>
      <point x="441" y="153" type="line"/>
      <point x="57" y="153" type="line"/>
      <point x="180" y="241"/>
      <point x="290" y="403"/>
      <point x="290" y="563" type="curve"/>
      <point x="264" y="563" type="line"/>
      <point x="262" y="402"/>
      <point x="140" y="212"/>
      <point x="20" y="153" type="curve"/>
    </contour>
    <contour>
      <point x="329" y="0" type="line"/>
      <point x="355" y="0" type="line"/>
      <point x="355" y="281" type="line"/>
      <point x="329" y="281" type="line"/>
    </contour>
  </outline>
</glyph>
<glyph name="five" format="2">
  <advance width="493"/>
  <unicode hex="0035"/>
  <guideline x="419" y="-10" angle="0"/>
  <guideline x="75" y="334" angle="90"/>
  <outline>
    <contour>
      <point x="245" y="-10" type="curve"/>
      <point x="377" y="-10"/>
      <point x="448" y="81"/>
      <point x="454" y="175" type="curve" smooth="yes"/>
      <point x="460" y="273"/>
      <point x="395" y="373"/>
      <point x="255" y="373" type="curve"/>
      <point x="140" y="373"/>
      <point x="95" y="310"/>
      <point x="95" y="310" type="curve"/>
      <point x="119" y="537" type="line"/>
      <point x="427" y="537" type="line"/>
      <point x="427" y="563" type="line"/>
      <point x="94" y="563" type="line"/>
      <point x="67" y="282" type="line"/>
      <point x="88" y="273" type="line"/>
      <point x="89" y="275"/>
      <point x="132" y="348"/>
      <point x="255" y="348" type="curve"/>
      <point x="377" y="348"/>
      <point x="435" y="261"/>
      <point x="430" y="176" type="curve" smooth="yes"/>
      <point x="426" y="95"/>
      <point x="364" y="15"/>
      <point x="245" y="15" type="curve"/>
      <point x="99" y="15"/>
      <point x="75" y="123"/>
      <point x="74" y="128" type="curve"/>
      <point x="46" y="128" type="line"/>
      <point x="75" y="29"/>
      <point x="153" y="-10"/>
    </contour>
  </outline>
</glyph>
<glyph name="six" format="2">
  <advance width="507"/>
  <unicode hex="0036"/>
  <guideline x="231" y="-10" angle="0"/>
  <guideline x="259" y="14" angle="0"/>
  <outline>
    <contour>
      <point x="265" y="-10" type="curve"/>
      <point x="521" y="-10"/>
      <point x="538" y="365"/>
      <point x="291" y="370" type="curve"/>
      <point x="153" y="377"/>
      <point x="87" y="265"/>
      <point x="79" y="186" type="curve"/>
      <point x="51" y="361"/>
      <point x="120" y="548"/>
      <point x="293" y="548" type="curve"/>
      <point x="382" y="548"/>
      <point x="419" y="486"/>
      <point x="419" y="486" type="curve"/>
      <point x="443" y="498" type="line"/>
      <point x="443" y="498"/>
      <point x="402" y="573"/>
      <point x="293" y="573" type="curve"/>
      <point x="120" y="573"/>
      <point x="48" y="408"/>
      <point x="48" y="254" type="curve" smooth="yes"/>
      <point x="48" y="117"/>
      <point x="106" y="-10"/>
    </contour>
    <contour>
      <point x="265" y="14" type="curve"/>
      <point x="168" y="14"/>
      <point x="106" y="70"/>
      <point x="87" y="151" type="curve"/>
      <point x="87" y="243"/>
      <point x="153" y="349"/>
      <point x="287" y="344" type="curve"/>
      <point x="511" y="332"/>
      <point x="484" y="14"/>
    </contour>
  </outline>
</glyph>
<glyph name="seven" format="2">
  <advance width="438"/>
  <unicode hex="0037"/>
  <outline>
    <contour>
      <point x="158" y="0" type="curve"/>
      <point x="131" y="0" type="line"/>
      <point x="131" y="231"/>
      <point x="221" y="391"/>
      <point x="370" y="539" type="curve"/>
      <point x="35" y="539" type="line"/>
      <point x="35" y="563" type="line"/>
      <point x="403" y="563" type="line"/>
      <point x="403" y="541" type="line"/>
      <point x="326" y="466"/>
      <point x="158" y="312"/>
    </contour>
  </outline>
</glyph>
<glyph name="eight" format="2">
  <advance width="519"/>
  <unicode hex="0038"/>
  <guideline x="548" y="-10" angle="0"/>
  <outline>
    <contour>
      <point x="256" y="-10" type="curve"/>
      <point x="379" y="-10"/>
      <point x="474" y="41"/>
      <point x="474" y="150" type="curve"/>
      <point x="474" y="223"/>
      <point x="421" y="278"/>
      <point x="343" y="298" type="curve"/>
      <point x="422" y="320"/>
      <point x="440" y="378"/>
      <point x="440" y="422" type="curve"/>
      <point x="440" y="508"/>
      <point x="365" y="573"/>
      <point x="256" y="573" type="curve"/>
      <point x="151" y="573"/>
      <point x="73" y="510"/>
      <point x="73" y="422" type="curve"/>
      <point x="73" y="378"/>
      <point x="92" y="320"/>
      <point x="170" y="298" type="curve"/>
      <point x="93" y="279"/>
      <point x="40" y="222"/>
      <point x="40" y="150" type="curve"/>
      <point x="40" y="44"/>
      <point x="133" y="-10"/>
    </contour>
    <contour>
      <point x="256" y="17" type="curve"/>
      <point x="138" y="17"/>
      <point x="67" y="74"/>
      <point x="67" y="155" type="curve"/>
      <point x="67" y="241"/>
      <point x="138" y="288"/>
      <point x="256" y="288" type="curve"/>
      <point x="375" y="288"/>
      <point x="447" y="241"/>
      <point x="447" y="155" type="curve"/>
      <point x="447" y="74"/>
      <point x="375" y="17"/>
    </contour>
    <contour>
      <point x="256" y="307" type="curve"/>
      <point x="171" y="307"/>
      <point x="98" y="335"/>
      <point x="98" y="417" type="curve"/>
      <point x="98" y="494"/>
      <point x="163" y="547"/>
      <point x="256" y="547" type="curve"/>
      <point x="346" y="547"/>
      <point x="414" y="495"/>
      <point x="414" y="417" type="curve"/>
      <point x="414" y="338"/>
      <point x="349" y="307"/>
    </contour>
  </outline>
</glyph>
<glyph name="nine" format="2">
  <advance width="512"/>
  <unicode hex="0039"/>
  <guideline x="263" y="-10" angle="0"/>
  <outline>
    <contour>
      <point x="253" y="-10" type="curve"/>
      <point x="408" y="-10"/>
      <point x="452" y="101"/>
      <point x="465" y="262" type="curve"/>
      <point x="481" y="433"/>
      <point x="410" y="563"/>
      <point x="255" y="563" type="curve"/>
      <point x="-14" y="563"/>
      <point x="-19" y="189"/>
      <point x="247" y="189" type="curve"/>
      <point x="361" y="189"/>
      <point x="430" y="281"/>
      <point x="442" y="361" type="curve"/>
      <point x="450" y="183"/>
      <point x="427" y="13"/>
      <point x="253" y="13" type="curve"/>
      <point x="134" y="13"/>
      <point x="88" y="91"/>
      <point x="87" y="93" type="curve"/>
      <point x="65" y="82" type="line"/>
      <point x="67" y="79"/>
      <point x="117" y="-10"/>
    </contour>
    <contour>
      <point x="248" y="213" type="curve"/>
      <point x="17" y="213"/>
      <point x="19" y="539"/>
      <point x="255" y="539" type="curve"/>
      <point x="351" y="539"/>
      <point x="412" y="481"/>
      <point x="436" y="387" type="curve"/>
      <point x="418" y="288"/>
      <point x="358" y="213"/>
    </contour>
  </outline>
</glyph>
<glyph name="colon" format="2">
  <advance width="158"/>
  <unicode hex="003A"/>
  <outline>
    <contour>
      <point x="78" y="57" type="curve"/>
      <point x="96" y="57"/>
      <point x="101" y="69"/>
      <point x="101" y="85" type="curve"/>
      <point x="101" y="100"/>
      <point x="96" y="114"/>
      <point x="78" y="114" type="curve"/>
      <point x="60" y="114"/>
      <point x="55" y="100"/>
      <point x="55" y="85" type="curve"/>
      <point x="55" y="69"/>
      <point x="60" y="57"/>
    </contour>
    <contour>
      <point x="78" y="293" type="curve"/>
      <point x="96" y="293"/>
      <point x="101" y="305"/>
      <point x="101" y="321" type="curve"/>
      <point x="101" y="336"/>
      <point x="96" y="350"/>
      <point x="78" y="350" type="curve"/>
      <point x="60" y="350"/>
      <point x="55" y="336"/>
      <point x="55" y="321" type="curve"/>
      <point x="55" y="305"/>
      <point x="60" y="293"/>
    </contour>
  </outline>
</glyph>
<glyph name="semicolon" format="2">
  <advance width="143"/>
  <unicode hex="003B"/>
  <guideline x="72" y="186" angle="90"/>
  <outline>
    <contour>
      <point x="72" y="345" type="curve"/>
      <point x="90" y="345"/>
      <point x="95" y="357"/>
      <point x="95" y="373" type="curve"/>
      <point x="95" y="388"/>
      <point x="90" y="402"/>
      <point x="72" y="402" type="curve"/>
      <point x="54" y="402"/>
      <point x="49" y="388"/>
      <point x="49" y="373" type="curve"/>
      <point x="49" y="357"/>
      <point x="54" y="345"/>
    </contour>
    <contour>
      <point x="40" y="-74" type="line"/>
      <point x="54" y="-74" type="line" smooth="yes"/>
      <point x="89" y="-74"/>
      <point x="98" y="-44"/>
      <point x="98" y="18" type="curve" smooth="yes"/>
      <point x="98" y="44"/>
      <point x="94" y="57"/>
      <point x="72" y="57" type="curve" smooth="yes"/>
      <point x="51" y="57"/>
      <point x="46" y="44"/>
      <point x="46" y="29" type="curve" smooth="yes"/>
      <point x="46" y="4"/>
      <point x="59" y="-6"/>
      <point x="81" y="-1" type="curve"/>
      <point x="81" y="-21"/>
      <point x="82" y="-44"/>
      <point x="51" y="-44" type="curve" smooth="yes"/>
      <point x="40" y="-44" type="line"/>
    </contour>
  </outline>
</glyph>
<glyph name="less" format="2">
  <advance width="376"/>
  <unicode hex="003C"/>
  <outline>
    <contour>
      <point x="336" y="363" type="line"/>
      <point x="40" y="223" type="line"/>
      <point x="336" y="81" type="line"/>
      <point x="336" y="113" type="line"/>
      <point x="78" y="223" type="line"/>
      <point x="336" y="333" type="line"/>
    </contour>
  </outline>
</glyph>
<glyph name="equal" format="2">
  <advance width="357"/>
  <unicode hex="003D"/>
  <outline>
    <contour>
      <point x="40" y="265" type="line"/>
      <point x="302" y="265" type="line"/>
      <point x="302" y="289" type="line"/>
      <point x="40" y="289" type="line"/>
    </contour>
    <contour>
      <point x="40" y="157" type="line"/>
      <point x="302" y="157" type="line"/>
      <point x="302" y="181" type="line"/>
      <point x="40" y="181" type="line"/>
    </contour>
  </outline>
</glyph>
<glyph name="greater" format="2">
  <advance width="381"/>
  <unicode hex="003E"/>
  <guideline x="75" y="91" angle="0"/>
  <guideline x="75" y="351" angle="0"/>
  <outline>
    <contour>
      <point x="40" y="363" type="line"/>
      <point x="40" y="333" type="line"/>
      <point x="298" y="223" type="line"/>
      <point x="40" y="113" type="line"/>
      <point x="40" y="81" type="line"/>
      <point x="336" y="223" type="line"/>
    </contour>
  </outline>
</glyph>
<glyph name="question" format="2">
  <advance width="424"/>
  <unicode hex="003F"/>
  <guideline x="399" y="376" angle="0"/>
  <guideline x="208" y="10" angle="90"/>
  <outline>
    <contour>
      <point x="217" y="115" type="line"/>
      <point x="222" y="261"/>
      <point x="389" y="254"/>
      <point x="389" y="404" type="curve"/>
      <point x="389" y="505"/>
      <point x="310" y="564"/>
      <point x="218" y="564" type="curve"/>
      <point x="107" y="564"/>
      <point x="40" y="487"/>
      <point x="40" y="380" type="curve"/>
      <point x="67" y="380" type="line"/>
      <point x="67" y="471"/>
      <point x="119" y="539"/>
      <point x="218" y="539" type="curve"/>
      <point x="303" y="539"/>
      <point x="365" y="486"/>
      <point x="365" y="404" type="curve"/>
      <point x="365" y="271"/>
      <point x="198" y="268"/>
      <point x="195" y="115" type="curve"/>
    </contour>
    <contour>
      <point x="208" y="-9" type="curve"/>
      <point x="224" y="-9"/>
      <point x="227" y="2"/>
      <point x="227" y="17" type="curve"/>
      <point x="227" y="30"/>
      <point x="224" y="41"/>
      <point x="208" y="41" type="curve"/>
      <point x="192" y="41"/>
      <point x="189" y="30"/>
      <point x="189" y="17" type="curve"/>
      <point x="189" y="2"/>
      <point x="192" y="-9"/>
    </contour>
  </outline>
</glyph>
<glyph name="at" format="2">
  <advance width="673"/>
  <unicode hex="0040"/>
  <guideline x="668" y="545" angle="0"/>
  <guideline x="612" y="-10" angle="0"/>
  <guideline x="469" y="316" angle="0"/>
  <outline>
    <contour>
      <point x="32" y="-87"/>
      <point x="309" y="-191"/>
      <point x="540" y="-60" type="curve"/>
      <point x="527" y="-39" type="line"/>
      <point x="314" y="-156"/>
      <point x="57" y="-67"/>
      <point x="71" y="177" type="curve"/>
      <point x="77" y="289"/>
      <point x="131" y="384"/>
      <point x="218" y="430" type="curve" smooth="yes"/>
      <point x="335" y="493"/>
      <point x="506" y="459"/>
      <point x="574" y="340" type="curve" smooth="yes"/>
      <point x="633" y="231"/>
      <point x="583" y="43"/>
      <point x="471" y="43" type="curve"/>
      <point x="443" y="43"/>
      <point x="433" y="65"/>
      <point x="436" y="97" type="curve"/>
      <point x="471" y="316" type="line"/>
      <point x="448" y="316" type="line"/>
      <point x="430" y="181" type="line"/>
      <point x="416" y="99" type="line"/>
      <point x="409" y="54"/>
      <point x="428" y="25"/>
      <point x="468" y="25" type="curve"/>
      <point x="600" y="25"/>
      <point x="662" y="231"/>
      <point x="596" y="351" type="curve"/>
      <point x="522" y="480"/>
      <point x="338" y="519"/>
      <point x="207" y="450" type="curve" smooth="yes"/>
      <point x="113" y="401"/>
      <point x="52" y="300"/>
      <point x="46" y="179" type="curve"/>
    </contour>
    <contour>
      <point x="304" y="30" type="curve"/>
      <point x="377" y="30"/>
      <point x="436" y="91"/>
      <point x="448" y="178" type="curve"/>
      <point x="463" y="264"/>
      <point x="424" y="329"/>
      <point x="343" y="329" type="curve"/>
      <point x="273" y="329"/>
      <point x="211" y="267"/>
      <point x="198" y="181" type="curve"/>
      <point x="186" y="95"/>
      <point x="225" y="30"/>
    </contour>
    <contour>
      <point x="305" y="49" type="curve"/>
      <point x="236" y="49"/>
      <point x="207" y="103"/>
      <point x="217" y="178" type="curve"/>
      <point x="229" y="260"/>
      <point x="284" y="309"/>
      <point x="347" y="309" type="curve"/>
      <point x="423" y="309"/>
      <point x="443" y="256"/>
      <point x="430" y="181" type="curve"/>
      <point x="424" y="143"/>
      <point x="408" y="49"/>
    </contour>
  </outline>
</glyph>
<glyph name="A" format="2">
  <advance width="516"/>
  <unicode hex="0041"/>
  <guideline x="291" y="194" angle="0"/>
  <guideline x="266" y="256" angle="0"/>
  <outline>
    <contour>
      <point x="470" y="0" type="line"/>
      <point x="498" y="0" type="line"/>
      <point x="280" y="563" type="line"/>
      <point x="254" y="563" type="line"/>
      <point x="259" y="550" type="line"/>
    </contour>
    <contour>
      <point x="20" y="0" type="line"/>
      <point x="46" y="0" type="line"/>
      <point x="259" y="550" type="line"/>
      <point x="264" y="563" type="line"/>
      <point x="236" y="563" type="line"/>
    </contour>
    <contour>
      <point x="115" y="194" type="line"/>
      <point x="402" y="194" type="line"/>
      <point x="391" y="221" type="line"/>
      <point x="126" y="221" type="line"/>
    </contour>
  </outline>
</glyph>
<glyph name="B" format="2">
  <advance width="513"/>
  <unicode hex="0042"/>
  <guideline x="327" y="125" angle="90"/>
  <guideline x="250" y="125" angle="90"/>
  <guideline x="319" y="125" angle="90"/>
  <guideline x="192" y="316" angle="0"/>
  <guideline x="192" y="290" angle="0"/>
  <outline>
    <contour>
      <point x="65" y="0" type="line"/>
      <point x="264" y="0" type="line" smooth="yes"/>
      <point x="372" y="0"/>
      <point x="478" y="21"/>
      <point x="478" y="145" type="curve" smooth="yes"/>
      <point x="478" y="221"/>
      <point x="447" y="288"/>
      <point x="307" y="288" type="curve"/>
      <point x="307" y="291" type="line"/>
      <point x="427" y="292"/>
      <point x="455" y="348"/>
      <point x="455" y="413" type="curve" smooth="yes"/>
      <point x="455" y="538"/>
      <point x="361" y="563"/>
      <point x="248" y="563" type="curve" smooth="yes"/>
      <point x="65" y="563" type="line"/>
    </contour>
    <contour>
      <point x="92" y="25" type="line"/>
      <point x="92" y="277" type="line"/>
      <point x="247" y="277" type="line" smooth="yes"/>
      <point x="361" y="277"/>
      <point x="450" y="254"/>
      <point x="450" y="145" type="curve" smooth="yes"/>
      <point x="450" y="42"/>
      <point x="370" y="25"/>
      <point x="264" y="25" type="curve" smooth="yes"/>
    </contour>
    <contour>
      <point x="92" y="303" type="line"/>
      <point x="92" y="537" type="line"/>
      <point x="248" y="537" type="line" smooth="yes"/>
      <point x="343" y="537"/>
      <point x="426" y="526"/>
      <point x="426" y="413" type="curve" smooth="yes"/>
      <point x="426" y="317"/>
      <point x="361" y="303"/>
      <point x="247" y="303" type="curve" smooth="yes"/>
    </contour>
  </outline>
</glyph>
<glyph name="C" format="2">
  <advance width="590"/>
  <unicode hex="0043"/>
  <guideline x="266" y="-14" angle="0"/>
  <outline>
    <contour>
      <point x="297" y="-10" type="curve"/>
      <point x="433" y="-10"/>
      <point x="525" y="58"/>
      <point x="550" y="190" type="curve"/>
      <point x="521" y="190" type="line"/>
      <point x="501" y="81"/>
      <point x="424" y="14"/>
      <point x="297" y="14" type="curve"/>
      <point x="151" y="14"/>
      <point x="57" y="105"/>
      <point x="57" y="282" type="curve"/>
      <point x="57" y="455"/>
      <point x="153" y="549"/>
      <point x="301" y="549" type="curve"/>
      <point x="416" y="549"/>
      <point x="495" y="484"/>
      <point x="517" y="370" type="curve"/>
      <point x="545" y="370" type="line"/>
      <point x="519" y="506"/>
      <point x="424" y="573"/>
      <point x="301" y="573" type="curve"/>
      <point x="140" y="573"/>
      <point x="30" y="477"/>
      <point x="30" y="282" type="curve"/>
      <point x="30" y="90"/>
      <point x="144" y="-10"/>
    </contour>
  </outline>
</glyph>
<glyph name="D" format="2">
  <advance width="569"/>
  <unicode hex="0044"/>
  <guideline x="398" y="128" angle="90"/>
  <guideline x="353" y="284" angle="0"/>
  <guideline x="398" y="222" angle="0"/>
  <guideline x="269" y="31" angle="0"/>
  <guideline x="246" y="37" angle="0"/>
  <guideline x="268" y="537" angle="0"/>
  <outline>
    <contour>
      <point x="97" y="25" type="line"/>
      <point x="163" y="25"/>
      <point x="196" y="25"/>
      <point x="213" y="25" type="curve"/>
      <point x="392" y="25"/>
      <point x="511" y="70"/>
      <point x="511" y="282" type="curve"/>
      <point x="511" y="458"/>
      <point x="392" y="538"/>
      <point x="213" y="538" type="curve"/>
      <point x="97" y="538" type="line"/>
    </contour>
    <contour>
      <point x="539" y="282" type="curve"/>
      <point x="539" y="60"/>
      <point x="408" y="0"/>
      <point x="213" y="0" type="curve"/>
      <point x="193" y="0"/>
      <point x="152" y="0"/>
      <point x="70" y="0" type="curve"/>
      <point x="70" y="563" type="line"/>
      <point x="157" y="563"/>
      <point x="195" y="563"/>
      <point x="213" y="563" type="curve"/>
      <point x="408" y="563"/>
      <point x="539" y="469"/>
    </contour>
  </outline>
</glyph>
<glyph name="E" format="2">
  <advance width="457"/>
  <unicode hex="0045"/>
  <guideline x="437" y="499" angle="90"/>
  <outline>
    <contour>
      <point x="87" y="25" type="line"/>
      <point x="87" y="272" type="line"/>
      <point x="352" y="272" type="line"/>
      <point x="352" y="298" type="line"/>
      <point x="87" y="298" type="line"/>
      <point x="87" y="537" type="line"/>
      <point x="413" y="537" type="line"/>
      <point x="413" y="563" type="line"/>
      <point x="60" y="563" type="line"/>
      <point x="60" y="0" type="line"/>
      <point x="422" y="0" type="line"/>
      <point x="422" y="25" type="line"/>
    </contour>
  </outline>
</glyph>
<glyph name="F" format="2">
  <advance width="483"/>
  <unicode hex="0046"/>
  <outline>
    <contour>
      <point x="102" y="0" type="line"/>
      <point x="102" y="290" type="line"/>
      <point x="385" y="290" type="line"/>
      <point x="385" y="316" type="line"/>
      <point x="102" y="316" type="line"/>
      <point x="102" y="537" type="line"/>
      <point x="453" y="537" type="line"/>
      <point x="453" y="563" type="line"/>
      <point x="75" y="563" type="line"/>
      <point x="75" y="0" type="line"/>
    </contour>
  </outline>
</glyph>
<glyph name="G" format="2">
  <advance width="596"/>
  <unicode hex="0047"/>
  <guideline x="491" y="-14" angle="0"/>
  <outline>
    <contour>
      <point x="291" y="-14" type="curve" smooth="yes"/>
      <point x="448" y="-14"/>
      <point x="511" y="91"/>
      <point x="523" y="150" type="curve"/>
      <point x="525" y="150" type="line"/>
      <point x="533" y="0" type="line"/>
      <point x="555" y="0" type="line"/>
      <point x="555" y="251" type="line"/>
      <point x="329" y="251" type="line"/>
      <point x="329" y="226" type="line"/>
      <point x="517" y="226" type="line"/>
      <point x="510" y="89"/>
      <point x="425" y="10"/>
      <point x="293" y="10" type="curve" smooth="yes"/>
      <point x="144" y="10"/>
      <point x="54" y="111"/>
      <point x="54" y="279" type="curve"/>
      <point x="61" y="452"/>
      <point x="140" y="548"/>
      <point x="298" y="548" type="curve" smooth="yes"/>
      <point x="419" y="548"/>
      <point x="493" y="492"/>
      <point x="518" y="379" type="curve"/>
      <point x="543" y="380" type="line"/>
      <point x="521" y="506"/>
      <point x="428" y="573"/>
      <point x="298" y="573" type="curve" smooth="yes"/>
      <point x="131" y="573"/>
      <point x="30" y="463"/>
      <point x="30" y="279" type="curve" smooth="yes"/>
      <point x="30" y="96"/>
      <point x="131" y="-14"/>
    </contour>
  </outline>
</glyph>
<glyph name="H" format="2">
  <advance width="574"/>
  <unicode hex="0048"/>
  <outline>
    <contour>
      <point x="102" y="0" type="line"/>
      <point x="102" y="563" type="line"/>
      <point x="75" y="563" type="line"/>
      <point x="75" y="0" type="line"/>
    </contour>
    <contour>
      <point x="474" y="563" type="line"/>
      <point x="474" y="0" type="line"/>
      <point x="499" y="0" type="line"/>
      <point x="499" y="563" type="line"/>
    </contour>
    <contour>
      <point x="480" y="281" type="line"/>
      <point x="480" y="306" type="line"/>
      <point x="96" y="306" type="line"/>
      <point x="96" y="281" type="line"/>
    </contour>
  </outline>
</glyph>
<glyph name="I" format="2">
  <advance width="305"/>
  <unicode hex="0049"/>
  <outline>
    <contour>
      <point x="240" y="24" type="line"/>
      <point x="55" y="24" type="line"/>
      <point x="55" y="0" type="line"/>
      <point x="240" y="0" type="line"/>
    </contour>
    <contour>
      <point x="55" y="538" type="line"/>
      <point x="240" y="538" type="line"/>
      <point x="240" y="563" type="line"/>
      <point x="55" y="563" type="line"/>
    </contour>
    <contour>
      <point x="135" y="18" type="line"/>
      <point x="161" y="18" type="line"/>
      <point x="161" y="545" type="line"/>
      <point x="135" y="545" type="line"/>
    </contour>
  </outline>
</glyph>
<glyph name="J" format="2">
  <advance width="394"/>
  <unicode hex="004A"/>
  <guideline x="279" y="-14" angle="0"/>
  <guideline x="181" y="138" angle="0"/>
  <outline>
    <contour>
      <point x="187" y="-10" type="curve"/>
      <point x="279" y="-10"/>
      <point x="329" y="42"/>
      <point x="329" y="142" type="curve"/>
      <point x="329" y="545" type="line"/>
      <point x="303" y="545" type="line"/>
      <point x="303" y="142" type="line"/>
      <point x="303" y="53"/>
      <point x="266" y="14"/>
      <point x="187" y="14" type="curve"/>
      <point x="92" y="14"/>
      <point x="69" y="78"/>
      <point x="69" y="124" type="curve"/>
      <point x="45" y="124" type="line"/>
      <point x="45" y="4"/>
      <point x="152" y="-10"/>
    </contour>
    <contour>
      <point x="196" y="538" type="line"/>
      <point x="329" y="538" type="line"/>
      <point x="329" y="562" type="line"/>
      <point x="196" y="562" type="line"/>
    </contour>
  </outline>
</glyph>
<glyph name="K" format="2">
  <advance width="527"/>
  <unicode hex="004B"/>
  <guideline x="493" y="277" angle="90"/>
  <guideline x="473" y="9" angle="0"/>
  <guideline x="473" y="0" angle="0"/>
  <outline>
    <contour>
      <point x="96" y="199" type="line"/>
      <point x="481" y="554" type="line"/>
      <point x="481" y="563" type="line"/>
      <point x="446" y="563" type="line"/>
      <point x="96" y="236" type="line"/>
    </contour>
    <contour>
      <point x="75" y="-1" type="line"/>
      <point x="103" y="-1" type="line"/>
      <point x="103" y="563" type="line"/>
      <point x="75" y="563" type="line"/>
    </contour>
    <contour>
      <point x="460" y="0" type="line"/>
      <point x="493" y="0" type="line"/>
      <point x="493" y="9" type="line"/>
      <point x="218" y="322" type="line"/>
      <point x="199" y="304" type="line"/>
    </contour>
  </outline>
</glyph>
<glyph name="L" format="2">
  <advance width="465"/>
  <unicode hex="004C"/>
  <guideline x="103" y="23" angle="0"/>
  <outline>
    <contour>
      <point x="70" y="15" type="line"/>
      <point x="96" y="15" type="line"/>
      <point x="96" y="563" type="line"/>
      <point x="70" y="563" type="line"/>
    </contour>
    <contour>
      <point x="70" y="0" type="line"/>
      <point x="443" y="0" type="line"/>
      <point x="443" y="24" type="line"/>
      <point x="70" y="24" type="line"/>
    </contour>
  </outline>
</glyph>
<glyph name="M" format="2">
  <advance width="671"/>
  <unicode hex="004D"/>
  <outline>
    <contour>
      <point x="55" y="0" type="line"/>
      <point x="81" y="0" type="line"/>
      <point x="81" y="543" type="line"/>
      <point x="83" y="543" type="line"/>
      <point x="312" y="0" type="line"/>
      <point x="354" y="0" type="line"/>
      <point x="583" y="543" type="line"/>
      <point x="585" y="543" type="line"/>
      <point x="585" y="0" type="line"/>
      <point x="611" y="0" type="line"/>
      <point x="611" y="563" type="line"/>
      <point x="565" y="563" type="line"/>
      <point x="335" y="15" type="line"/>
      <point x="333" y="15" type="line"/>
      <point x="101" y="563" type="line"/>
      <point x="55" y="563" type="line"/>
    </contour>
  </outline>
</glyph>
<glyph name="N" format="2">
  <advance width="557"/>
  <unicode hex="004E"/>
  <outline>
    <contour>
      <point x="472" y="563" type="line"/>
      <point x="472" y="13" type="line"/>
      <point x="470" y="13" type="line"/>
      <point x="100" y="563" type="line"/>
      <point x="55" y="563" type="line"/>
      <point x="55" y="0" type="line"/>
      <point x="80" y="0" type="line"/>
      <point x="80" y="550" type="line"/>
      <point x="82" y="550" type="line"/>
      <point x="450" y="0" type="line"/>
      <point x="497" y="0" type="line"/>
      <point x="497" y="563" type="line"/>
    </contour>
  </outline>
</glyph>
<glyph name="O" format="2">
  <advance width="597"/>
  <unicode hex="004F"/>
  <guideline x="389" y="-14" angle="0"/>
  <outline>
    <contour>
      <point x="291" y="-14" type="curve"/>
      <point x="466" y="-14"/>
      <point x="557" y="106"/>
      <point x="557" y="280" type="curve"/>
      <point x="557" y="458"/>
      <point x="466" y="573"/>
      <point x="291" y="573" type="curve"/>
      <point x="113" y="573"/>
      <point x="25" y="457"/>
      <point x="25" y="280" type="curve"/>
      <point x="25" y="100"/>
      <point x="118" y="-14"/>
    </contour>
    <contour>
      <point x="291" y="11" type="curve"/>
      <point x="129" y="11"/>
      <point x="51" y="117"/>
      <point x="51" y="280" type="curve"/>
      <point x="51" y="450"/>
      <point x="133" y="548"/>
      <point x="291" y="548" type="curve"/>
      <point x="453" y="548"/>
      <point x="531" y="443"/>
      <point x="531" y="280" type="curve"/>
      <point x="531" y="116"/>
      <point x="450" y="11"/>
    </contour>
  </outline>
</glyph>
<glyph name="P" format="2">
  <advance width="479"/>
  <unicode hex="0050"/>
  <guideline x="341" y="232" angle="90"/>
  <guideline x="96" y="540" angle="90"/>
  <outline>
    <contour>
      <point x="96" y="0" type="line"/>
      <point x="96" y="563" type="line"/>
      <point x="70" y="563" type="line"/>
      <point x="70" y="0" type="line"/>
    </contour>
    <contour>
      <point x="90" y="563" type="line"/>
      <point x="90" y="537" type="line"/>
      <point x="272" y="537" type="line"/>
      <point x="379" y="537"/>
      <point x="429" y="492"/>
      <point x="429" y="393" type="curve"/>
      <point x="429" y="297"/>
      <point x="376" y="251"/>
      <point x="272" y="251" type="curve"/>
      <point x="89" y="251" type="line"/>
      <point x="89" y="224" type="line"/>
      <point x="272" y="224" type="line"/>
      <point x="389" y="224"/>
      <point x="454" y="283"/>
      <point x="454" y="393" type="curve"/>
      <point x="454" y="506"/>
      <point x="393" y="563"/>
      <point x="272" y="563" type="curve"/>
    </contour>
  </outline>
</glyph>
<glyph name="Q" format="2">
  <advance width="601"/>
  <unicode hex="0051"/>
  <guideline x="807" y="-14" angle="0"/>
  <outline>
    <contour>
      <point x="304" y="-14" type="curve"/>
      <point x="479" y="-14"/>
      <point x="570" y="106"/>
      <point x="570" y="282" type="curve"/>
      <point x="570" y="458"/>
      <point x="479" y="573"/>
      <point x="304" y="573" type="curve"/>
      <point x="126" y="573"/>
      <point x="38" y="457"/>
      <point x="38" y="280" type="curve"/>
      <point x="38" y="100"/>
      <point x="131" y="-14"/>
    </contour>
    <contour>
      <point x="358" y="-102" type="curve"/>
      <point x="393" y="-102"/>
      <point x="412" y="-75"/>
      <point x="412" y="-75" type="curve"/>
      <point x="404" y="-53" type="line"/>
      <point x="404" y="-53"/>
      <point x="387" y="-77"/>
      <point x="358" y="-77" type="curve"/>
      <point x="317" y="-77"/>
      <point x="317" y="-28"/>
      <point x="317" y="-11" type="curve"/>
      <point x="317" y="8" type="line"/>
      <point x="293" y="8" type="line"/>
      <point x="293" y="-11" type="line"/>
      <point x="293" y="-80"/>
      <point x="322" y="-102"/>
    </contour>
    <contour>
      <point x="304" y="11" type="curve"/>
      <point x="142" y="11"/>
      <point x="64" y="117"/>
      <point x="64" y="281" type="curve"/>
      <point x="64" y="450"/>
      <point x="146" y="548"/>
      <point x="304" y="548" type="curve"/>
      <point x="466" y="548"/>
      <point x="544" y="443"/>
      <point x="544" y="280" type="curve"/>
      <point x="544" y="116"/>
      <point x="463" y="11"/>
    </contour>
  </outline>
</glyph>
<glyph name="R" format="2">
  <advance width="508"/>
  <unicode hex="0052"/>
  <guideline x="320" y="556" angle="90"/>
  <guideline x="293" y="536" angle="0"/>
  <guideline x="291" y="-10" angle="0"/>
  <outline>
    <contour>
      <point x="68" y="0" type="line"/>
      <point x="95" y="0" type="line"/>
      <point x="95" y="253" type="line"/>
      <point x="381" y="253"/>
      <point x="402" y="278"/>
      <point x="402" y="59" type="curve"/>
      <point x="402" y="-29"/>
      <point x="473" y="-8"/>
      <point x="473" y="-8" type="curve"/>
      <point x="473" y="17" type="line"/>
      <point x="362" y="-21"/>
      <point x="510" y="266"/>
      <point x="313" y="266" type="curve"/>
      <point x="409" y="266"/>
      <point x="449" y="337"/>
      <point x="449" y="407" type="curve"/>
      <point x="449" y="530"/>
      <point x="373" y="563"/>
      <point x="232" y="563" type="curve"/>
      <point x="68" y="563" type="line"/>
    </contour>
    <contour>
      <point x="95" y="278" type="line"/>
      <point x="95" y="537" type="line"/>
      <point x="232" y="537" type="line"/>
      <point x="355" y="537"/>
      <point x="424" y="520"/>
      <point x="424" y="407" type="curve"/>
      <point x="424" y="311"/>
      <point x="370" y="278"/>
      <point x="257" y="278" type="curve"/>
    </contour>
  </outline>
</glyph>
<glyph name="S" format="2">
  <advance width="496"/>
  <unicode hex="0053"/>
  <guideline x="264" y="-14" angle="0"/>
  <guideline x="299" y="452" angle="90"/>
  <outline>
    <contour>
      <point x="263" y="-14" type="curve"/>
      <point x="370" y="-14"/>
      <point x="458" y="38"/>
      <point x="461" y="128" type="curve"/>
      <point x="467" y="352"/>
      <point x="79" y="243"/>
      <point x="84" y="435" type="curve"/>
      <point x="86" y="499"/>
      <point x="158" y="548"/>
      <point x="259" y="548" type="curve"/>
      <point x="318" y="548"/>
      <point x="433" y="520"/>
      <point x="429" y="398" type="curve"/>
      <point x="456" y="398" type="line"/>
      <point x="460" y="513"/>
      <point x="371" y="573"/>
      <point x="260" y="573" type="curve"/>
      <point x="153" y="573"/>
      <point x="60" y="521"/>
      <point x="57" y="435" type="curve"/>
      <point x="51" y="220"/>
      <point x="443" y="324"/>
      <point x="437" y="128" type="curve"/>
      <point x="436" y="108"/>
      <point x="424" y="11"/>
      <point x="264" y="11" type="curve"/>
      <point x="57" y="11"/>
      <point x="60" y="158"/>
      <point x="60" y="166" type="curve"/>
      <point x="33" y="166" type="line"/>
      <point x="36" y="40"/>
      <point x="148" y="-14"/>
    </contour>
  </outline>
</glyph>
<glyph name="T" format="2">
  <advance width="434"/>
  <unicode hex="0054"/>
  <outline>
    <contour>
      <point x="231" y="545" type="line"/>
      <point x="205" y="545" type="line"/>
      <point x="205" y="0" type="line"/>
      <point x="231" y="0" type="line"/>
    </contour>
    <contour>
      <point x="10" y="538" type="line"/>
      <point x="425" y="538" type="line"/>
      <point x="425" y="563" type="line"/>
      <point x="10" y="563" type="line"/>
    </contour>
  </outline>
</glyph>
<glyph name="U" format="2">
  <advance width="558"/>
  <unicode hex="0055"/>
  <guideline x="288" y="-14" angle="0"/>
  <outline>
    <contour>
      <point x="274" y="-14" type="curve"/>
      <point x="419" y="-14"/>
      <point x="498" y="76"/>
      <point x="498" y="240" type="curve"/>
      <point x="498" y="563" type="line"/>
      <point x="474" y="563" type="line"/>
      <point x="474" y="240" type="line"/>
      <point x="474" y="91"/>
      <point x="407" y="11"/>
      <point x="274" y="11" type="curve"/>
      <point x="148" y="11"/>
      <point x="75" y="93"/>
      <point x="75" y="240" type="curve"/>
      <point x="75" y="563" type="line"/>
      <point x="50" y="563" type="line"/>
      <point x="50" y="240" type="line"/>
      <point x="50" y="79"/>
      <point x="132" y="-14"/>
    </contour>
  </outline>
</glyph>
<glyph name="V" format="2">
  <advance width="477"/>
  <unicode hex="0056"/>
  <guideline x="69" y="569" angle="0"/>
  <outline>
    <contour>
      <point x="428" y="563" type="line"/>
      <point x="223" y="16" type="line"/>
      <point x="18" y="563" type="line"/>
      <point x="-10" y="563" type="line"/>
      <point x="200" y="0" type="line"/>
      <point x="246" y="0" type="line"/>
      <point x="457" y="563" type="line"/>
    </contour>
  </outline>
</glyph>
<glyph name="W" format="2">
  <advance width="857"/>
  <unicode hex="0057"/>
  <guideline x="807" y="215" angle="90"/>
  <guideline x="432" y="215" angle="90"/>
  <guideline x="404" y="200" angle="90"/>
  <guideline x="29" y="200" angle="90"/>
  <outline>
    <contour>
      <point x="403" y="563" type="line"/>
      <point x="209" y="16" type="line"/>
      <point x="29" y="563" type="line"/>
      <point x="0" y="563" type="line"/>
      <point x="185" y="0" type="line"/>
      <point x="231" y="0" type="line"/>
      <point x="417" y="523" type="line"/>
      <point x="432" y="563" type="line"/>
    </contour>
    <contour>
      <point x="807" y="563" type="line"/>
      <point x="616" y="16" type="line"/>
      <point x="432" y="563" type="line"/>
      <point x="404" y="563" type="line"/>
      <point x="417" y="523" type="line"/>
      <point x="594" y="0" type="line"/>
      <point x="640" y="0" type="line"/>
      <point x="837" y="563" type="line"/>
    </contour>
  </outline>
</glyph>
<glyph name="X" format="2">
  <advance width="528"/>
  <unicode hex="0058"/>
  <outline>
    <contour>
      <point x="30" y="0" type="line"/>
      <point x="61" y="0" type="line"/>
      <point x="259" y="278" type="line"/>
      <point x="456" y="0" type="line"/>
      <point x="490" y="0" type="line"/>
      <point x="276" y="300" type="line"/>
      <point x="465" y="563" type="line"/>
      <point x="430" y="563" type="line"/>
      <point x="259" y="322" type="line"/>
      <point x="88" y="563" type="line"/>
      <point x="53" y="563" type="line"/>
      <point x="244" y="300" type="line"/>
    </contour>
  </outline>
</glyph>
<glyph name="Y" format="2">
  <advance width="413"/>
  <unicode hex="0059"/>
  <outline>
    <contour>
      <point x="189" y="207" type="line"/>
      <point x="210" y="207" type="line"/>
      <point x="404" y="563" type="line"/>
      <point x="376" y="563" type="line"/>
      <point x="201" y="241" type="line"/>
      <point x="24" y="563" type="line"/>
      <point x="-5" y="563" type="line"/>
    </contour>
    <contour>
      <point x="186" y="0" type="line"/>
      <point x="213" y="0" type="line"/>
      <point x="213" y="220" type="line"/>
      <point x="186" y="220" type="line"/>
    </contour>
  </outline>
</glyph>
<glyph name="Z" format="2">
  <advance width="525"/>
  <unicode hex="005A"/>
  <outline>
    <contour>
      <point x="30" y="0" type="line"/>
      <point x="478" y="0" type="line"/>
      <point x="478" y="26" type="line"/>
      <point x="64" y="26" type="line"/>
      <point x="481" y="540" type="line"/>
      <point x="481" y="563" type="line"/>
      <point x="68" y="563" type="line"/>
      <point x="68" y="537" type="line"/>
      <point x="447" y="537" type="line"/>
      <point x="30" y="23" type="line"/>
    </contour>
  </outline>
</glyph>
<glyph name="bracketleft" format="2">
  <advance width="214"/>
  <unicode hex="005B"/>
  <guideline x="309" y="603" angle="0"/>
  <guideline x="204" y="328" angle="90"/>
  <outline>
    <contour>
      <point x="204" y="-199" type="line"/>
      <point x="35" y="-199" type="line"/>
      <point x="35" y="603" type="line"/>
      <point x="204" y="603" type="line"/>
      <point x="204" y="578" type="line"/>
      <point x="56" y="578" type="line"/>
      <point x="56" y="-175" type="line"/>
      <point x="204" y="-175" type="line"/>
    </contour>
  </outline>
</glyph>
<glyph name="backslash" format="2">
  <advance width="299"/>
  <unicode hex="005C"/>
  <outline>
    <contour>
      <point x="299" y="0" type="line"/>
      <point x="45" y="563" type="line"/>
      <point x="75" y="563" type="line"/>
      <point x="329" y="0" type="line"/>
    </contour>
  </outline>
</glyph>
<glyph name="bracketright" format="2">
  <advance width="233"/>
  <unicode hex="005D"/>
  <outline>
    <contour>
      <point x="35" y="-199" type="line"/>
      <point x="213" y="-199" type="line"/>
      <point x="213" y="603" type="line"/>
      <point x="44" y="603" type="line"/>
      <point x="44" y="578" type="line"/>
      <point x="192" y="578" type="line"/>
      <point x="192" y="-175" type="line"/>
      <point x="35" y="-175" type="line"/>
    </contour>
  </outline>
</glyph>
<glyph name="asciicircum" format="2">
  <advance width="365"/>
  <unicode hex="005E"/>
  <guideline x="316" y="256" angle="0"/>
  <guideline x="41" y="334" angle="0"/>
  <outline>
    <contour>
      <point x="25" y="320" type="line"/>
      <point x="57" y="320" type="line"/>
      <point x="181" y="518" type="line"/>
      <point x="183" y="518" type="line"/>
      <point x="307" y="320" type="line"/>
      <point x="340" y="320" type="line"/>
      <point x="340" y="334" type="line"/>
      <point x="182" y="562" type="line"/>
      <point x="25" y="334" type="line"/>
    </contour>
  </outline>
</glyph>
<glyph name="underscore" format="2">
  <advance width="477"/>
  <unicode hex="005F"/>
  <outline>
    <contour>
      <point x="20" y="0" type="line"/>
      <point x="422" y="0" type="line"/>
      <point x="422" y="26" type="line"/>
      <point x="20" y="26" type="line"/>
    </contour>
  </outline>
</glyph>
<glyph name="a" format="2">
  <advance width="400"/>
  <unicode hex="0061"/>
  <guideline x="65" y="363" angle="90"/>
  <guideline x="264" y="-3" angle="0"/>
  <guideline x="364" y="-35" angle="90"/>
  <guideline x="234" y="-9" angle="0"/>
  <guideline x="193" y="381" angle="0"/>
  <guideline x="336" y="-35" angle="90"/>
  <guideline x="192" y="200" angle="0"/>
  <guideline x="171" y="137" angle="0"/>
  <guideline x="171" y="260" angle="0"/>
  <outline>
    <contour>
      <point x="185" y="-9" type="curve" smooth="yes"/>
      <point x="257" y="-9"/>
      <point x="306" y="31"/>
      <point x="332" y="90" type="curve"/>
      <point x="334" y="90" type="line"/>
      <point x="339" y="0" type="line"/>
      <point x="360" y="0" type="line"/>
      <point x="360" y="404" type="line"/>
      <point x="333" y="404" type="line"/>
      <point x="333" y="312" type="line"/>
      <point x="332" y="312" type="line"/>
      <point x="307" y="370"/>
      <point x="257" y="409"/>
      <point x="185" y="409" type="curve" smooth="yes"/>
      <point x="76" y="409"/>
      <point x="15" y="319"/>
      <point x="15" y="200" type="curve" smooth="yes"/>
      <point x="15" y="86"/>
      <point x="73" y="-9"/>
    </contour>
    <contour>
      <point x="193" y="19" type="curve" smooth="yes"/>
      <point x="97" y="19"/>
      <point x="44" y="91"/>
      <point x="44" y="200" type="curve" smooth="yes"/>
      <point x="44" y="305"/>
      <point x="94" y="381"/>
      <point x="193" y="381" type="curve" smooth="yes"/>
      <point x="278" y="381"/>
      <point x="332" y="322"/>
      <point x="332" y="199" type="curve" smooth="yes"/>
      <point x="332" y="84"/>
      <point x="283" y="19"/>
    </contour>
  </outline>
</glyph>
<glyph name="b" format="2">
  <advance width="457"/>
  <unicode hex="0062"/>
  <guideline x="630" y="453" angle="90"/>
  <guideline x="129" y="363" angle="90"/>
  <guideline x="208" y="-14" angle="0"/>
  <guideline x="405" y="198" angle="0"/>
  <guideline x="284" y="-58" angle="90"/>
  <guideline x="177" y="137" angle="0"/>
  <guideline x="123" y="147" angle="0"/>
  <guideline x="123" y="270" angle="0"/>
  <guideline x="78" y="-35" angle="90"/>
  <guideline x="50" y="-35" angle="90"/>
  <guideline x="177" y="260" angle="0"/>
  <guideline x="193" y="381" angle="0"/>
  <outline>
    <contour>
      <point x="239" y="-10" type="curve" smooth="yes"/>
      <point x="352" y="-10"/>
      <point x="424" y="82"/>
      <point x="424" y="198" type="curve" smooth="yes"/>
      <point x="424" y="310"/>
      <point x="353" y="404"/>
      <point x="238" y="404" type="curve" smooth="yes"/>
      <point x="125" y="404"/>
      <point x="87" y="309"/>
      <point x="80" y="288" type="curve"/>
      <point x="78" y="288" type="line"/>
      <point x="77" y="563" type="line"/>
      <point x="50" y="563" type="line"/>
      <point x="50" y="0" type="line"/>
      <point x="72" y="0" type="line"/>
      <point x="77" y="107" type="line"/>
      <point x="79" y="107" type="line"/>
      <point x="87" y="87"/>
      <point x="129" y="-10"/>
    </contour>
    <contour>
      <point x="242" y="18" type="curve" smooth="yes"/>
      <point x="158" y="18"/>
      <point x="80" y="81"/>
      <point x="80" y="198" type="curve" smooth="yes"/>
      <point x="80" y="312"/>
      <point x="152" y="376"/>
      <point x="234" y="376" type="curve" smooth="yes"/>
      <point x="340" y="376"/>
      <point x="397" y="289"/>
      <point x="397" y="198" type="curve" smooth="yes"/>
      <point x="397" y="107"/>
      <point x="348" y="18"/>
    </contour>
  </outline>
</glyph>
<glyph name="c" format="2">
  <advance width="435"/>
  <unicode hex="0063"/>
  <guideline x="483" y="-17" angle="0"/>
  <guideline x="459" y="282" angle="90"/>
  <outline>
    <contour>
      <point x="215" y="-10" type="curve" smooth="yes"/>
      <point x="306" y="-10"/>
      <point x="377" y="44"/>
      <point x="395" y="125" type="curve"/>
      <point x="369" y="125" type="line"/>
      <point x="354" y="58"/>
      <point x="294" y="17"/>
      <point x="215" y="17" type="curve" smooth="yes"/>
      <point x="116" y="17"/>
      <point x="52" y="85"/>
      <point x="52" y="191" type="curve" smooth="yes"/>
      <point x="53" y="301"/>
      <point x="120" y="377"/>
      <point x="218" y="377" type="curve" smooth="yes"/>
      <point x="295" y="377"/>
      <point x="354" y="336"/>
      <point x="369" y="269" type="curve"/>
      <point x="395" y="269" type="line"/>
      <point x="377" y="350"/>
      <point x="309" y="404"/>
      <point x="218" y="404" type="curve" smooth="yes"/>
      <point x="104" y="404"/>
      <point x="28" y="316"/>
      <point x="25" y="192" type="curve" smooth="yes"/>
      <point x="25" y="68"/>
      <point x="101" y="-10"/>
    </contour>
  </outline>
</glyph>
<glyph name="d" format="2">
  <advance width="469"/>
  <unicode hex="0064"/>
  <guideline x="19" y="-17" angle="90"/>
  <guideline x="136" y="198" angle="0"/>
  <outline>
    <contour>
      <point x="235" y="-10" type="curve" smooth="yes"/>
      <point x="345" y="-10"/>
      <point x="387" y="87"/>
      <point x="395" y="107" type="curve"/>
      <point x="397" y="107" type="line"/>
      <point x="402" y="0" type="line"/>
      <point x="424" y="0" type="line"/>
      <point x="424" y="563" type="line"/>
      <point x="397" y="563" type="line"/>
      <point x="396" y="288" type="line"/>
      <point x="394" y="288" type="line"/>
      <point x="387" y="309"/>
      <point x="349" y="404"/>
      <point x="236" y="404" type="curve" smooth="yes"/>
      <point x="122" y="404"/>
      <point x="50" y="312"/>
      <point x="50" y="198" type="curve" smooth="yes"/>
      <point x="50" y="84"/>
      <point x="120" y="-10"/>
    </contour>
    <contour>
      <point x="232" y="18" type="curve" smooth="yes"/>
      <point x="126" y="18"/>
      <point x="77" y="107"/>
      <point x="77" y="198" type="curve" smooth="yes"/>
      <point x="77" y="289"/>
      <point x="134" y="376"/>
      <point x="240" y="376" type="curve" smooth="yes"/>
      <point x="322" y="376"/>
      <point x="394" y="312"/>
      <point x="394" y="198" type="curve" smooth="yes"/>
      <point x="394" y="81"/>
      <point x="316" y="18"/>
    </contour>
  </outline>
</glyph>
<glyph name="e" format="2">
  <advance width="439"/>
  <unicode hex="0065"/>
  <outline>
    <contour>
      <point x="217" y="-10" type="curve" smooth="yes"/>
      <point x="305" y="-10"/>
      <point x="376" y="44"/>
      <point x="393" y="125" type="curve"/>
      <point x="366" y="125" type="line"/>
      <point x="352" y="57"/>
      <point x="292" y="15"/>
      <point x="217" y="15" type="curve" smooth="yes"/>
      <point x="114" y="15"/>
      <point x="57" y="89"/>
      <point x="57" y="201" type="curve"/>
      <point x="394" y="201" type="line"/>
      <point x="394" y="209"/>
      <point x="394" y="218"/>
      <point x="393" y="226" type="curve"/>
      <point x="384" y="333"/>
      <point x="314" y="404"/>
      <point x="217" y="404" type="curve" smooth="yes"/>
      <point x="94" y="404"/>
      <point x="32" y="304"/>
      <point x="30" y="202" type="curve" smooth="yes"/>
      <point x="28" y="97"/>
      <point x="91" y="-10"/>
    </contour>
    <contour>
      <point x="60" y="226" type="line"/>
      <point x="71" y="315"/>
      <point x="127" y="379"/>
      <point x="217" y="379" type="curve" smooth="yes"/>
      <point x="319" y="379"/>
      <point x="364" y="288"/>
      <point x="366" y="226" type="curve"/>
    </contour>
  </outline>
</glyph>
<glyph name="f" format="2">
  <advance width="247"/>
  <unicode hex="0066"/>
  <guideline x="237" y="475" angle="90"/>
  <outline>
    <contour>
      <point x="80" y="-4" type="line"/>
      <point x="108" y="-4" type="line"/>
      <point x="108" y="538" type="line"/>
      <point x="247" y="538" type="line"/>
      <point x="247" y="563" type="line"/>
      <point x="114" y="563" type="line"/>
      <point x="80" y="563"/>
      <point x="80" y="536"/>
      <point x="80" y="516" type="curve" smooth="yes"/>
    </contour>
    <contour>
      <point x="10" y="379" type="line"/>
      <point x="237" y="379" type="line"/>
      <point x="237" y="404" type="line"/>
      <point x="10" y="404" type="line"/>
    </contour>
  </outline>
</glyph>
<glyph name="g" format="2">
  <advance width="433"/>
  <unicode hex="0067"/>
  <guideline x="351" y="-271" angle="90"/>
  <guideline x="-35" y="-199" angle="0"/>
  <guideline x="-35" y="-174" angle="0"/>
  <guideline x="386" y="-152" angle="0"/>
  <guideline x="97" y="198" angle="0"/>
  <outline>
    <contour>
      <point x="125" y="-152" type="line"/>
      <point x="344" y="-152" type="line"/>
      <point x="378" y="-152"/>
      <point x="378" y="-125"/>
      <point x="378" y="-105" type="curve" smooth="yes"/>
      <point x="378" y="404" type="line"/>
      <point x="351" y="404" type="line"/>
      <point x="350" y="288" type="line"/>
      <point x="348" y="288" type="line"/>
      <point x="341" y="309"/>
      <point x="303" y="404"/>
      <point x="190" y="404" type="curve" smooth="yes"/>
      <point x="76" y="404"/>
      <point x="4" y="312"/>
      <point x="4" y="198" type="curve" smooth="yes"/>
      <point x="4" y="84"/>
      <point x="74" y="-10"/>
      <point x="189" y="-10" type="curve" smooth="yes"/>
      <point x="299" y="-10"/>
      <point x="341" y="87"/>
      <point x="349" y="107" type="curve"/>
      <point x="351" y="107" type="line"/>
      <point x="351" y="-127" type="line"/>
      <point x="125" y="-127" type="line"/>
    </contour>
    <contour>
      <point x="186" y="18" type="curve" smooth="yes"/>
      <point x="80" y="18"/>
      <point x="31" y="107"/>
      <point x="31" y="198" type="curve" smooth="yes"/>
      <point x="31" y="289"/>
      <point x="88" y="376"/>
      <point x="194" y="376" type="curve" smooth="yes"/>
      <point x="276" y="376"/>
      <point x="348" y="312"/>
      <point x="348" y="198" type="curve" smooth="yes"/>
      <point x="348" y="81"/>
      <point x="270" y="18"/>
    </contour>
  </outline>
</glyph>
<glyph name="h" format="2">
  <advance width="426"/>
  <unicode hex="0068"/>
  <outline>
    <contour>
      <point x="40" y="0" type="line"/>
      <point x="66" y="0" type="line"/>
      <point x="66" y="190" type="line" smooth="yes"/>
      <point x="66" y="294"/>
      <point x="120" y="378"/>
      <point x="224" y="378" type="curve" smooth="yes"/>
      <point x="321" y="378"/>
      <point x="355" y="312"/>
      <point x="355" y="202" type="curve" smooth="yes"/>
      <point x="355" y="0" type="line"/>
      <point x="381" y="0" type="line"/>
      <point x="381" y="202" type="line" smooth="yes"/>
      <point x="381" y="304"/>
      <point x="359" y="404"/>
      <point x="222" y="404" type="curve" smooth="yes"/>
      <point x="110" y="404"/>
      <point x="75" y="311"/>
      <point x="68" y="290" type="curve"/>
      <point x="66" y="290" type="line"/>
      <point x="66" y="563" type="line"/>
      <point x="40" y="563" type="line"/>
    </contour>
  </outline>
</glyph>
<glyph name="i" format="2">
  <advance width="146"/>
  <unicode hex="0069"/>
  <guideline x="131" y="467" angle="90"/>
  <guideline x="105" y="467" angle="90"/>
  <outline>
    <contour>
      <point x="60" y="0" type="line"/>
      <point x="86" y="0" type="line"/>
      <point x="86" y="404" type="line"/>
      <point x="85" y="404"/>
      <point x="60" y="404"/>
      <point x="60" y="404" type="curve"/>
    </contour>
    <contour>
      <point x="74" y="446" type="curve"/>
      <point x="90" y="446"/>
      <point x="94" y="457"/>
      <point x="94" y="472" type="curve"/>
      <point x="94" y="485"/>
      <point x="90" y="496"/>
      <point x="74" y="496" type="curve"/>
      <point x="58" y="496"/>
      <point x="54" y="485"/>
      <point x="54" y="472" type="curve"/>
      <point x="54" y="457"/>
      <point x="58" y="446"/>
    </contour>
  </outline>
</glyph>
<glyph name="j" format="2">
  <advance width="151"/>
  <unicode hex="006A"/>
  <guideline x="238" y="-128" angle="0"/>
  <guideline x="99" y="455" angle="90"/>
  <guideline x="72" y="455" angle="90"/>
  <guideline x="386" y="-152" angle="0"/>
  <outline>
    <contour>
      <point x="86" y="466" type="curve" smooth="yes"/>
      <point x="102" y="466"/>
      <point x="106" y="477"/>
      <point x="106" y="492" type="curve" smooth="yes"/>
      <point x="106" y="505"/>
      <point x="102" y="516"/>
      <point x="86" y="516" type="curve" smooth="yes"/>
      <point x="70" y="516"/>
      <point x="66" y="505"/>
      <point x="66" y="492" type="curve" smooth="yes"/>
      <point x="66" y="477"/>
      <point x="70" y="466"/>
    </contour>
    <contour>
      <point x="72" y="404" type="line"/>
      <point x="72" y="-127" type="line"/>
      <point x="1" y="-127" type="line"/>
      <point x="1" y="-152" type="line"/>
      <point x="65" y="-152" type="line" smooth="yes"/>
      <point x="99" y="-152"/>
      <point x="99" y="-125"/>
      <point x="99" y="-105" type="curve" smooth="yes"/>
      <point x="99" y="404" type="line"/>
    </contour>
  </outline>
</glyph>
<glyph name="k" format="2">
  <advance width="409"/>
  <unicode hex="006B"/>
  <outline>
    <contour>
      <point x="82" y="-1" type="line"/>
      <point x="82" y="563" type="line"/>
      <point x="55" y="563" type="line"/>
      <point x="55" y="-1" type="line"/>
    </contour>
    <contour>
      <point x="197" y="229" type="line"/>
      <point x="178" y="211" type="line"/>
      <point x="358" y="-2" type="line"/>
      <point x="394" y="-2" type="line"/>
    </contour>
    <contour>
      <point x="75" y="106" type="line"/>
      <point x="390" y="404" type="line"/>
      <point x="351" y="404" type="line"/>
      <point x="75" y="143" type="line"/>
    </contour>
  </outline>
</glyph>
<glyph name="l" format="2">
  <advance width="137"/>
  <unicode hex="006C"/>
  <guideline x="194" y="-9" angle="0"/>
  <outline>
    <contour>
      <point x="55" y="0" type="line"/>
      <point x="82" y="0" type="line"/>
      <point x="82" y="563" type="line"/>
      <point x="55" y="563" type="line"/>
    </contour>
  </outline>
</glyph>
<glyph name="m" format="2">
  <advance width="661"/>
  <unicode hex="006D"/>
  <outline>
    <contour>
      <point x="40" y="0" type="line"/>
      <point x="66" y="0" type="line"/>
      <point x="66" y="190" type="line" smooth="yes"/>
      <point x="66" y="293"/>
      <point x="112" y="378"/>
      <point x="203" y="378" type="curve" smooth="yes"/>
      <point x="315" y="378"/>
      <point x="315" y="249"/>
      <point x="315" y="202" type="curve" smooth="yes"/>
      <point x="315" y="0" type="line"/>
      <point x="341" y="0" type="line"/>
      <point x="341" y="202" type="line" smooth="yes"/>
      <point x="341" y="256"/>
      <point x="341" y="404"/>
      <point x="207" y="404" type="curve" smooth="yes"/>
      <point x="104" y="404"/>
      <point x="77" y="318"/>
      <point x="68" y="290" type="curve"/>
      <point x="66" y="290" type="line"/>
      <point x="61" y="404" type="line"/>
      <point x="40" y="404" type="line"/>
    </contour>
    <contour>
      <point x="325" y="290" type="line"/>
      <point x="341" y="190" type="line"/>
      <point x="341" y="293"/>
      <point x="387" y="378"/>
      <point x="478" y="378" type="curve" smooth="yes"/>
      <point x="590" y="378"/>
      <point x="590" y="249"/>
      <point x="590" y="202" type="curve" smooth="yes"/>
      <point x="590" y="0" type="line"/>
      <point x="616" y="0" type="line"/>
      <point x="616" y="202" type="line" smooth="yes"/>
      <point x="616" y="256"/>
      <point x="616" y="404"/>
      <point x="482" y="404" type="curve" smooth="yes"/>
      <point x="379" y="404"/>
      <point x="345" y="318"/>
      <point x="336" y="290" type="curve"/>
    </contour>
  </outline>
</glyph>
<glyph name="o" format="2">
  <advance width="442"/>
  <unicode hex="006F"/>
  <guideline x="575" y="-14" angle="0"/>
  <outline>
    <contour>
      <point x="214" y="-10" type="curve"/>
      <point x="339" y="-10"/>
      <point x="397" y="79"/>
      <point x="397" y="196" type="curve"/>
      <point x="397" y="321"/>
      <point x="333" y="404"/>
      <point x="214" y="404" type="curve"/>
      <point x="92" y="404"/>
      <point x="30" y="318"/>
      <point x="30" y="196" type="curve"/>
      <point x="30" y="76"/>
      <point x="91" y="-10"/>
    </contour>
    <contour>
      <point x="214" y="16" type="curve"/>
      <point x="95" y="16"/>
      <point x="58" y="110"/>
      <point x="58" y="196" type="curve"/>
      <point x="58" y="284"/>
      <point x="95" y="378"/>
      <point x="214" y="378" type="curve"/>
      <point x="333" y="378"/>
      <point x="369" y="284"/>
      <point x="369" y="196" type="curve"/>
      <point x="369" y="110"/>
      <point x="333" y="16"/>
    </contour>
  </outline>
</glyph>
<glyph name="p" format="2">
  <advance width="457"/>
  <unicode hex="0070"/>
  <guideline x="77" y="18" angle="90"/>
  <guideline x="316" y="198" angle="0"/>
  <guideline x="386" y="-152" angle="0"/>
  <outline>
    <contour>
      <point x="239" y="-10" type="curve" smooth="yes"/>
      <point x="351" y="-10"/>
      <point x="424" y="81"/>
      <point x="424" y="197" type="curve" smooth="yes"/>
      <point x="424" y="311"/>
      <point x="353" y="404"/>
      <point x="238" y="404" type="curve" smooth="yes"/>
      <point x="125" y="404"/>
      <point x="87" y="309"/>
      <point x="80" y="288" type="curve"/>
      <point x="78" y="288" type="line"/>
      <point x="72" y="404" type="line"/>
      <point x="50" y="404" type="line"/>
      <point x="50" y="-152" type="line"/>
      <point x="77" y="-152" type="line"/>
      <point x="77" y="107" type="line"/>
      <point x="79" y="107" type="line"/>
      <point x="87" y="87"/>
      <point x="129" y="-10"/>
    </contour>
    <contour>
      <point x="242" y="18" type="curve" smooth="yes"/>
      <point x="158" y="18"/>
      <point x="80" y="81"/>
      <point x="80" y="198" type="curve" smooth="yes"/>
      <point x="80" y="312"/>
      <point x="152" y="376"/>
      <point x="234" y="376" type="curve" smooth="yes"/>
      <point x="340" y="376"/>
      <point x="397" y="289"/>
      <point x="397" y="198" type="curve" smooth="yes"/>
      <point x="397" y="107"/>
      <point x="348" y="18"/>
    </contour>
  </outline>
</glyph>
<glyph name="q" format="2">
  <advance width="457"/>
  <unicode hex="0071"/>
  <guideline x="126" y="198" angle="0"/>
  <guideline x="386" y="-152" angle="0"/>
  <outline>
    <contour>
      <point x="218" y="-10" type="curve" smooth="yes"/>
      <point x="328" y="-10"/>
      <point x="370" y="87"/>
      <point x="378" y="107" type="curve"/>
      <point x="380" y="107" type="line"/>
      <point x="380" y="-152" type="line"/>
      <point x="407" y="-152" type="line"/>
      <point x="407" y="404" type="line"/>
      <point x="385" y="404" type="line"/>
      <point x="379" y="288" type="line"/>
      <point x="377" y="288" type="line"/>
      <point x="370" y="309"/>
      <point x="332" y="404"/>
      <point x="219" y="404" type="curve" smooth="yes"/>
      <point x="106" y="404"/>
      <point x="33" y="313"/>
      <point x="33" y="197" type="curve" smooth="yes"/>
      <point x="33" y="84"/>
      <point x="103" y="-10"/>
    </contour>
    <contour>
      <point x="215" y="18" type="curve" smooth="yes"/>
      <point x="109" y="18"/>
      <point x="60" y="107"/>
      <point x="60" y="198" type="curve" smooth="yes"/>
      <point x="60" y="289"/>
      <point x="117" y="376"/>
      <point x="223" y="376" type="curve" smooth="yes"/>
      <point x="305" y="376"/>
      <point x="377" y="312"/>
      <point x="377" y="198" type="curve" smooth="yes"/>
      <point x="377" y="81"/>
      <point x="299" y="18"/>
    </contour>
  </outline>
</glyph>
<glyph name="r" format="2">
  <advance width="266"/>
  <unicode hex="0072"/>
  <guideline x="231" y="374" angle="0"/>
  <guideline x="231" y="384" angle="90"/>
  <outline>
    <contour>
      <point x="55" y="0" type="line"/>
      <point x="81" y="0" type="line"/>
      <point x="81" y="202" type="line"/>
      <point x="82" y="288" type="line"/>
      <point x="76" y="404" type="line"/>
      <point x="55" y="404" type="line"/>
    </contour>
    <contour>
      <point x="81" y="202" type="line"/>
      <point x="81" y="291"/>
      <point x="88" y="374"/>
      <point x="231" y="374" type="curve" smooth="yes"/>
      <point x="256" y="374" type="line"/>
      <point x="256" y="404" type="line"/>
      <point x="231" y="404" type="line" smooth="yes"/>
      <point x="139" y="406"/>
      <point x="87" y="357"/>
      <point x="78" y="289" type="curve"/>
    </contour>
  </outline>
</glyph>
<glyph name="s" format="2">
  <advance width="390"/>
  <unicode hex="0073"/>
  <guideline x="201" y="180" angle="90"/>
  <guideline x="27" y="141" angle="90"/>
  <guideline x="379" y="136" angle="90"/>
  <guideline x="354" y="488" angle="0"/>
  <guideline x="287" y="191" angle="0"/>
  <guideline x="336" y="-14" angle="0"/>
  <outline>
    <contour>
      <point x="189" y="-10" type="curve" smooth="yes"/>
      <point x="277" y="-10"/>
      <point x="355" y="20"/>
      <point x="355" y="97" type="curve" smooth="yes"/>
      <point x="355" y="272"/>
      <point x="71" y="181"/>
      <point x="71" y="311" type="curve" smooth="yes"/>
      <point x="71" y="363"/>
      <point x="128" y="388"/>
      <point x="195" y="388" type="curve" smooth="yes"/>
      <point x="243" y="388"/>
      <point x="331" y="375"/>
      <point x="325" y="284" type="curve"/>
      <point x="353" y="284" type="line"/>
      <point x="360" y="395"/>
      <point x="259" y="414"/>
      <point x="201" y="414" type="curve" smooth="yes"/>
      <point x="109" y="414"/>
      <point x="46" y="369"/>
      <point x="45" y="311" type="curve" smooth="yes"/>
      <point x="42" y="146"/>
      <point x="327" y="241"/>
      <point x="329" y="97" type="curve" smooth="yes"/>
      <point x="330" y="34"/>
      <point x="258" y="13"/>
      <point x="190" y="13" type="curve" smooth="yes"/>
      <point x="59" y="13"/>
      <point x="62" y="119"/>
      <point x="62" y="123" type="curve"/>
      <point x="34" y="123" type="line"/>
      <point x="34" y="123"/>
      <point x="29" y="-10"/>
    </contour>
  </outline>
</glyph>
<glyph name="t" format="2">
  <advance width="247"/>
  <unicode hex="0074"/>
  <guideline x="144" y="-9" angle="0"/>
  <guideline x="75" y="47" angle="90"/>
  <guideline x="39" y="509" angle="0"/>
  <guideline x="212" y="0" angle="0"/>
  <guideline x="102" y="47" angle="90"/>
  <guideline x="197" y="30" angle="90"/>
  <guideline x="209" y="47" angle="0"/>
  <outline>
    <contour>
      <point x="109" y="0" type="curve"/>
      <point x="197" y="0" type="line"/>
      <point x="197" y="25" type="line"/>
      <point x="102" y="25" type="line"/>
      <point x="102" y="386" type="line"/>
      <point x="75" y="386" type="line"/>
      <point x="75" y="47" type="line" smooth="yes"/>
      <point x="75" y="27"/>
      <point x="75" y="0"/>
    </contour>
    <contour>
      <point x="7" y="379" type="line"/>
      <point x="197" y="379" type="line"/>
      <point x="197" y="404" type="line"/>
      <point x="102" y="404" type="line"/>
      <point x="102" y="509" type="line"/>
      <point x="75" y="509" type="line"/>
      <point x="75" y="404"/>
      <point x="82" y="404"/>
      <point x="7" y="404" type="curve"/>
    </contour>
  </outline>
</glyph>
<glyph name="u" format="2">
  <advance width="430"/>
  <unicode hex="0075"/>
  <guideline x="475" y="-14" angle="0"/>
  <guideline x="717" y="-21" angle="90"/>
  <guideline x="696" y="-56" angle="90"/>
  <outline>
    <contour>
      <point x="199" y="-10" type="curve" smooth="yes"/>
      <point x="282" y="-10"/>
      <point x="331" y="53"/>
      <point x="347" y="103" type="curve"/>
      <point x="349" y="103" type="line"/>
      <point x="354" y="0" type="line"/>
      <point x="375" y="0" type="line"/>
      <point x="375" y="404" type="line"/>
      <point x="349" y="404" type="line"/>
      <point x="348" y="184" type="line"/>
      <point x="342" y="97"/>
      <point x="300" y="16"/>
      <point x="199" y="16" type="curve" smooth="yes"/>
      <point x="90" y="16"/>
      <point x="65" y="91"/>
      <point x="65" y="192" type="curve" smooth="yes"/>
      <point x="65" y="404" type="line"/>
      <point x="38" y="404" type="line"/>
      <point x="38" y="192" type="line" smooth="yes"/>
      <point x="38" y="76"/>
      <point x="74" y="-10"/>
    </contour>
  </outline>
</glyph>
<glyph name="v" format="2">
  <advance width="379"/>
  <unicode hex="0076"/>
  <guideline x="63" y="392" angle="0"/>
  <outline>
    <contour>
      <point x="336" y="404" type="line"/>
      <point x="179" y="21" type="line"/>
      <point x="177" y="21" type="line"/>
      <point x="18" y="404" type="line"/>
      <point x="-10" y="404" type="line"/>
      <point x="-10" y="392" type="line"/>
      <point x="157" y="0" type="line"/>
      <point x="197" y="0" type="line"/>
      <point x="364" y="392" type="line"/>
      <point x="364" y="404" type="line"/>
    </contour>
  </outline>
</glyph>
<glyph name="w" format="2">
  <advance width="571"/>
  <unicode hex="0077"/>
  <guideline x="63" y="392" angle="0"/>
  <outline>
    <contour>
      <point x="123" y="0" type="line"/>
      <point x="162" y="0" type="line"/>
      <point x="276" y="356" type="line"/>
      <point x="278" y="356" type="line"/>
      <point x="393" y="0" type="line"/>
      <point x="434" y="0" type="line"/>
      <point x="553" y="392" type="line"/>
      <point x="553" y="404" type="line"/>
      <point x="529" y="404" type="line"/>
      <point x="416" y="24" type="line"/>
      <point x="414" y="24" type="line"/>
      <point x="290" y="404" type="line"/>
      <point x="264" y="404" type="line"/>
      <point x="142" y="24" type="line"/>
      <point x="140" y="24" type="line"/>
      <point x="24" y="404" type="line"/>
      <point x="0" y="404" type="line"/>
      <point x="0" y="392" type="line"/>
    </contour>
  </outline>
</glyph>
<glyph name="x" format="2">
  <advance width="390"/>
  <unicode hex="0078"/>
  <outline>
    <contour>
      <point x="20" y="0" type="line"/>
      <point x="53" y="0" type="line"/>
      <point x="185" y="185" type="line"/>
      <point x="318" y="0" type="line"/>
      <point x="354" y="0" type="line"/>
      <point x="202" y="208" type="line"/>
      <point x="345" y="404" type="line"/>
      <point x="311" y="404" type="line"/>
      <point x="185" y="231" type="line"/>
      <point x="60" y="404" type="line"/>
      <point x="26" y="404" type="line"/>
      <point x="168" y="208" type="line"/>
    </contour>
  </outline>
</glyph>
<glyph name="y" format="2">
  <advance width="374"/>
  <unicode hex="0079"/>
  <guideline x="31" y="-174" angle="0"/>
  <outline>
    <contour>
      <point x="-5" y="-174" type="line"/>
      <point x="41" y="-174" type="line" smooth="yes"/>
      <point x="79" y="-174"/>
      <point x="94" y="-161"/>
      <point x="126" y="-93" type="curve" smooth="yes"/>
      <point x="359" y="404" type="line"/>
      <point x="329" y="404" type="line"/>
      <point x="176" y="72" type="line"/>
      <point x="31" y="404" type="line"/>
      <point x="2" y="404" type="line"/>
      <point x="161" y="40" type="line"/>
      <point x="103" y="-85" type="line" smooth="yes"/>
      <point x="79" y="-136"/>
      <point x="69" y="-149"/>
      <point x="44" y="-149" type="curve" smooth="yes"/>
      <point x="-5" y="-149" type="line"/>
    </contour>
  </outline>
</glyph>
<glyph name="z" format="2">
  <advance width="416"/>
  <unicode hex="007A"/>
  <outline>
    <contour>
      <point x="35" y="0" type="line"/>
      <point x="381" y="0" type="line"/>
      <point x="381" y="27" type="line"/>
      <point x="73" y="27" type="line"/>
      <point x="381" y="380" type="line"/>
      <point x="381" y="404" type="line"/>
      <point x="48" y="404" type="line"/>
      <point x="48" y="377" type="line"/>
      <point x="341" y="377" type="line"/>
      <point x="35" y="21" type="line"/>
    </contour>
  </outline>
</glyph>
<glyph name="braceleft" format="2">
  <advance width="248"/>
  <unicode hex="007B"/>
  <guideline x="82" y="21" angle="90"/>
  <outline>
    <contour>
      <point x="228" y="-196" type="curve"/>
      <point x="228" y="-172" type="line"/>
      <point x="82" y="-204"/>
      <point x="96" y="-131"/>
      <point x="118" y="36" type="curve"/>
      <point x="134" y="132"/>
      <point x="138" y="172"/>
      <point x="58" y="203" type="curve"/>
      <point x="138" y="234"/>
      <point x="133" y="276"/>
      <point x="118" y="372" type="curve"/>
      <point x="96" y="538"/>
      <point x="82" y="612"/>
      <point x="228" y="579" type="curve"/>
      <point x="228" y="603" type="line"/>
      <point x="80" y="620"/>
      <point x="77" y="566"/>
      <point x="94" y="370" type="curve"/>
      <point x="111" y="218"/>
      <point x="65" y="218"/>
      <point x="35" y="218" type="curve"/>
      <point x="35" y="190" type="line"/>
      <point x="65" y="190"/>
      <point x="111" y="190"/>
      <point x="94" y="38" type="curve"/>
      <point x="75" y="-159"/>
      <point x="80" y="-213"/>
    </contour>
  </outline>
</glyph>
<glyph name="bar" format="2">
  <advance width="147"/>
  <unicode hex="007C"/>
  <outline>
    <contour>
      <point x="60" y="-151" type="line"/>
      <point x="87" y="-151" type="line"/>
      <point x="87" y="601" type="line"/>
      <point x="60" y="601" type="line"/>
    </contour>
  </outline>
</glyph>
<glyph name="braceright" format="2">
  <advance width="263"/>
  <unicode hex="007D"/>
  <outline>
    <contour>
      <point x="35" y="-196" type="line"/>
      <point x="183" y="-213"/>
      <point x="188" y="-159"/>
      <point x="169" y="38" type="curve"/>
      <point x="152" y="190"/>
      <point x="198" y="190"/>
      <point x="228" y="190" type="curve"/>
      <point x="228" y="218" type="line"/>
      <point x="198" y="218"/>
      <point x="152" y="218"/>
      <point x="169" y="370" type="curve"/>
      <point x="186" y="566"/>
      <point x="183" y="620"/>
      <point x="35" y="603" type="curve"/>
      <point x="35" y="579" type="line"/>
      <point x="181" y="612"/>
      <point x="167" y="538"/>
      <point x="145" y="372" type="curve"/>
      <point x="130" y="276"/>
      <point x="125" y="234"/>
      <point x="205" y="203" type="curve"/>
      <point x="125" y="172"/>
      <point x="129" y="132"/>
      <point x="145" y="36" type="curve"/>
      <point x="167" y="-131"/>
      <point x="181" y="-204"/>
      <point x="35" y="-172" type="curve"/>
    </contour>
  </outline>
</glyph>
<glyph name="asciitilde" format="2">
  <advance width="287"/>
  <unicode hex="007E"/>
  <outline>
    <contour>
      <point x="136" y="263"/>
      <point x="133" y="190"/>
      <point x="195" y="190" type="curve" smooth="yes"/>
      <point x="244" y="190"/>
      <point x="255" y="236"/>
      <point x="252" y="274" type="curve"/>
      <point x="227" y="274" type="line"/>
      <point x="227" y="243"/>
      <point x="226" y="210"/>
      <point x="195" y="210" type="curve" smooth="yes"/>
      <point x="148" y="210"/>
      <point x="155" y="283"/>
      <point x="92" y="283" type="curve" smooth="yes"/>
      <point x="45" y="283"/>
      <point x="33" y="243"/>
      <point x="35" y="200" type="curve"/>
      <point x="60" y="200" type="line"/>
      <point x="59" y="233"/>
      <point x="63" y="263"/>
      <point x="92" y="263" type="curve" smooth="yes"/>
    </contour>
  </outline>
</glyph>
<glyph name="exclamdown" format="2">
  <advance width="155"/>
  <unicode hex="00A1"/>
  <outline>
    <contour>
      <point x="85" y="373" type="curve"/>
      <point x="69" y="373"/>
      <point x="65" y="362"/>
      <point x="65" y="347" type="curve"/>
      <point x="65" y="334"/>
      <point x="69" y="323"/>
      <point x="85" y="323" type="curve"/>
      <point x="101" y="323"/>
      <point x="105" y="334"/>
      <point x="105" y="347" type="curve"/>
      <point x="105" y="362"/>
      <point x="101" y="373"/>
    </contour>
    <contour>
      <point x="75" y="254" type="curve"/>
      <point x="67" y="-142"/>
      <point x="52" y="-199"/>
      <point x="85" y="-199" type="curve" smooth="yes"/>
      <point x="117" y="-199"/>
      <point x="102" y="-142"/>
      <point x="94" y="254" type="curve"/>
      <point x="94" y="254"/>
      <point x="90" y="253"/>
      <point x="85" y="253" type="curve"/>
      <point x="79" y="253"/>
      <point x="75" y="254"/>
    </contour>
  </outline>
</glyph>
<glyph name="cent" format="2">
  <advance width="435"/>
  <unicode hex="00A2"/>
  <outline>
    <contour>
      <point x="215" y="-10" type="curve"/>
      <point x="306" y="-10"/>
      <point x="377" y="44"/>
      <point x="395" y="125" type="curve"/>
      <point x="369" y="125" type="line"/>
      <point x="354" y="58"/>
      <point x="294" y="17"/>
      <point x="215" y="17" type="curve"/>
      <point x="116" y="17"/>
      <point x="52" y="85"/>
      <point x="52" y="191" type="curve"/>
      <point x="53" y="301"/>
      <point x="120" y="377"/>
      <point x="218" y="377" type="curve"/>
      <point x="295" y="377"/>
      <point x="354" y="336"/>
      <point x="369" y="269" type="curve"/>
      <point x="395" y="269" type="line"/>
      <point x="377" y="350"/>
      <point x="309" y="404"/>
      <point x="218" y="404" type="curve"/>
      <point x="104" y="404"/>
      <point x="28" y="316"/>
      <point x="25" y="192" type="curve"/>
      <point x="25" y="68"/>
      <point x="101" y="-10"/>
    </contour>
    <contour>
      <point x="203" y="-80" type="line"/>
      <point x="228" y="-80" type="line"/>
      <point x="228" y="0" type="line"/>
      <point x="203" y="0" type="line"/>
    </contour>
    <contour>
      <point x="203" y="394" type="line"/>
      <point x="228" y="394" type="line"/>
      <point x="228" y="474" type="line"/>
      <point x="203" y="474" type="line"/>
    </contour>
  </outline>
</glyph>
<glyph name="sterling" format="2">
  <advance width="561"/>
  <unicode hex="00A3"/>
  <guideline x="475" y="-10" angle="0"/>
  <outline>
    <contour>
      <point x="68" y="-12" type="line"/>
      <point x="71" y="-9"/>
      <point x="73" y="-8"/>
      <point x="74" y="-7" type="curve"/>
      <point x="234" y="112"/>
      <point x="358" y="-92"/>
      <point x="491" y="34" type="curve"/>
      <point x="514" y="58"/>
      <point x="548" y="106"/>
      <point x="521" y="192" type="curve"/>
      <point x="497" y="184" type="line"/>
      <point x="514" y="132"/>
      <point x="507" y="85"/>
      <point x="474" y="54" type="curve"/>
      <point x="372" y="-42"/>
      <point x="244" y="96"/>
      <point x="117" y="41" type="curve"/>
      <point x="160" y="105"/>
      <point x="180" y="165"/>
      <point x="126" y="278" type="curve"/>
      <point x="60" y="413"/>
      <point x="117" y="551"/>
      <point x="262" y="551" type="curve"/>
      <point x="436" y="551"/>
      <point x="431" y="384"/>
      <point x="431" y="384" type="curve"/>
      <point x="458" y="384" type="line"/>
      <point x="458" y="501"/>
      <point x="378" y="572"/>
      <point x="262" y="572" type="curve"/>
      <point x="99" y="572"/>
      <point x="28" y="417"/>
      <point x="104" y="267" type="curve"/>
      <point x="160" y="156"/>
      <point x="143" y="79"/>
      <point x="54" y="9" type="curve"/>
    </contour>
    <contour>
      <point x="30" y="224" type="line"/>
      <point x="400" y="224" type="line"/>
      <point x="400" y="249" type="line"/>
      <point x="30" y="249" type="line"/>
    </contour>
  </outline>
</glyph>
<glyph name="currency" format="2">
  <advance width="500"/>
  <unicode hex="00A4"/>
  <outline>
    <contour>
      <point x="419" y="-1" type="line"/>
      <point x="365" y="76" type="line"/>
      <point x="392" y="107"/>
      <point x="406" y="150"/>
      <point x="406" y="202" type="curve"/>
      <point x="406" y="260"/>
      <point x="388" y="307"/>
      <point x="355" y="337" type="curve"/>
      <point x="402" y="402" type="line"/>
      <point x="367" y="402" type="line"/>
      <point x="333" y="353" type="line"/>
      <point x="310" y="366"/>
      <point x="283" y="372"/>
      <point x="251" y="372" type="curve"/>
      <point x="217" y="372"/>
      <point x="189" y="365"/>
      <point x="167" y="352" type="curve"/>
      <point x="132" y="402" type="line"/>
      <point x="98" y="402" type="line"/>
      <point x="145" y="337" type="line"/>
      <point x="112" y="307"/>
      <point x="95" y="260"/>
      <point x="95" y="202" type="curve"/>
      <point x="95" y="149"/>
      <point x="109" y="106"/>
      <point x="136" y="76" type="curve"/>
      <point x="82" y="-1" type="line"/>
      <point x="113" y="-1" type="line"/>
      <point x="155" y="59" type="line"/>
      <point x="180" y="41"/>
      <point x="212" y="31"/>
      <point x="251" y="31" type="curve"/>
      <point x="288" y="31"/>
      <point x="320" y="41"/>
      <point x="344" y="58" type="curve"/>
      <point x="385" y="-1" type="line"/>
    </contour>
    <contour>
      <point x="251" y="52" type="curve"/>
      <point x="216" y="52"/>
      <point x="189" y="61"/>
      <point x="168" y="76" type="curve"/>
      <point x="133" y="108"/>
      <point x="117" y="158"/>
      <point x="117" y="202" type="curve"/>
      <point x="117" y="253"/>
      <point x="130" y="293"/>
      <point x="158" y="319" type="curve"/>
      <point x="158" y="320"/>
      <point x="178" y="334"/>
      <point x="179" y="335" type="curve"/>
      <point x="198" y="345"/>
      <point x="222" y="351"/>
      <point x="251" y="351" type="curve"/>
      <point x="278" y="351"/>
      <point x="302" y="345"/>
      <point x="321" y="335" type="curve"/>
      <point x="329" y="331"/>
      <point x="337" y="326"/>
      <point x="343" y="320" type="curve"/>
      <point x="371" y="293"/>
      <point x="384" y="253"/>
      <point x="384" y="202" type="curve"/>
      <point x="384" y="158"/>
      <point x="373" y="120"/>
      <point x="352" y="94" type="curve"/>
      <point x="352" y="94"/>
      <point x="320" y="61"/>
      <point x="345" y="87" type="curve"/>
      <point x="341" y="83"/>
      <point x="337" y="79"/>
      <point x="332" y="75" type="curve"/>
      <point x="311" y="61"/>
      <point x="284" y="52"/>
    </contour>
  </outline>
</glyph>
<glyph name="yen" format="2">
  <advance width="412"/>
  <unicode hex="00A5"/>
  <guideline x="502" y="145" angle="0"/>
  <guideline x="502" y="195" angle="0"/>
  <outline>
    <contour>
      <point x="189" y="207" type="line"/>
      <point x="210" y="207" type="line"/>
      <point x="404" y="563" type="line"/>
      <point x="376" y="563" type="line"/>
      <point x="200" y="241" type="line"/>
      <point x="24" y="563" type="line"/>
      <point x="-5" y="563" type="line"/>
    </contour>
    <contour>
      <point x="69" y="121" type="line"/>
      <point x="331" y="121" type="line"/>
      <point x="331" y="145" type="line"/>
      <point x="69" y="145" type="line"/>
    </contour>
    <contour>
      <point x="69" y="195" type="line"/>
      <point x="331" y="195" type="line"/>
      <point x="331" y="219" type="line"/>
      <point x="69" y="219" type="line"/>
    </contour>
    <contour>
      <point x="186" y="0" type="line"/>
      <point x="213" y="0" type="line"/>
      <point x="213" y="220" type="line"/>
      <point x="186" y="220" type="line"/>
    </contour>
  </outline>
</glyph>
<glyph name="brokenbar" format="2">
  <advance width="147"/>
  <unicode hex="00A6"/>
  <guideline x="274" y="601" angle="0"/>
  <guideline x="274" y="-151" angle="0"/>
  <outline>
    <contour>
      <point x="60" y="281" type="line"/>
      <point x="87" y="281" type="line"/>
      <point x="87" y="601" type="line"/>
      <point x="60" y="601" type="line"/>
    </contour>
    <contour>
      <point x="60" y="-151" type="line"/>
      <point x="87" y="-151" type="line"/>
      <point x="87" y="169" type="line"/>
      <point x="60" y="169" type="line"/>
    </contour>
  </outline>
</glyph>
<glyph name="section" format="2">
  <advance width="600"/>
  <unicode hex="00A7"/>
  <outline>
    <contour>
      <point x="418" y="223" type="line"/>
      <point x="448" y="243"/>
      <point x="470" y="269"/>
      <point x="472" y="306" type="curve"/>
      <point x="478" y="491"/>
      <point x="160" y="404"/>
      <point x="162" y="554" type="curve"/>
      <point x="164" y="604"/>
      <point x="221" y="642"/>
      <point x="300" y="642" type="curve"/>
      <point x="348" y="642"/>
      <point x="439" y="621"/>
      <point x="436" y="525" type="curve"/>
      <point x="466" y="525" type="line"/>
      <point x="470" y="622"/>
      <point x="395" y="671"/>
      <point x="302" y="671" type="curve"/>
      <point x="210" y="671"/>
      <point x="134" y="627"/>
      <point x="131" y="556" type="curve"/>
      <point x="129" y="508"/>
      <point x="158" y="474"/>
      <point x="199" y="452" type="curve"/>
      <point x="199" y="451" type="line"/>
      <point x="162" y="436"/>
      <point x="132" y="408"/>
      <point x="131" y="371" type="curve"/>
      <point x="124" y="192"/>
      <point x="446" y="275"/>
      <point x="441" y="122" type="curve"/>
      <point x="440" y="103"/>
      <point x="427" y="31"/>
      <point x="306" y="31" type="curve"/>
      <point x="142" y="31"/>
      <point x="143" y="145"/>
      <point x="143" y="153" type="curve"/>
      <point x="112" y="153" type="line"/>
      <point x="115" y="48"/>
      <point x="209" y="1"/>
      <point x="304" y="1" type="curve"/>
      <point x="395" y="1"/>
      <point x="468" y="46"/>
      <point x="472" y="121" type="curve"/>
      <point x="473" y="168"/>
      <point x="449" y="201"/>
      <point x="418" y="221" type="curve"/>
    </contour>
    <contour>
      <point x="162" y="369" type="curve"/>
      <point x="163" y="394"/>
      <point x="178" y="416"/>
      <point x="202" y="432" type="curve"/>
      <point x="219" y="442"/>
      <point x="225" y="438"/>
      <point x="244" y="434" type="curve"/>
      <point x="334" y="410"/>
      <point x="444" y="396"/>
      <point x="441" y="307" type="curve"/>
      <point x="441" y="295"/>
      <point x="435" y="263"/>
      <point x="401" y="241" type="curve"/>
      <point x="398" y="239"/>
      <point x="393" y="236"/>
      <point x="383" y="239" type="curve"/>
      <point x="380" y="240"/>
      <point x="376" y="241"/>
      <point x="362" y="244" type="curve"/>
      <point x="270" y="271"/>
      <point x="161" y="276"/>
    </contour>
  </outline>
</glyph>
<glyph name="copyright" format="2">
  <advance width="653"/>
  <unicode hex="00A9"/>
  <guideline x="480" y="-10" angle="0"/>
  <outline>
    <contour>
      <point x="328" y="-10" type="curve"/>
      <point x="486" y="-10"/>
      <point x="618" y="120"/>
      <point x="618" y="283" type="curve"/>
      <point x="618" y="441"/>
      <point x="486" y="573"/>
      <point x="328" y="573" type="curve"/>
      <point x="165" y="573"/>
      <point x="35" y="441"/>
      <point x="35" y="283" type="curve"/>
      <point x="35" y="120"/>
      <point x="165" y="-10"/>
    </contour>
    <contour>
      <point x="328" y="14" type="curve"/>
      <point x="180" y="14"/>
      <point x="59" y="135"/>
      <point x="59" y="283" type="curve"/>
      <point x="59" y="428"/>
      <point x="180" y="550"/>
      <point x="328" y="550" type="curve"/>
      <point x="473" y="550"/>
      <point x="595" y="428"/>
      <point x="595" y="283" type="curve"/>
      <point x="595" y="135"/>
      <point x="473" y="14"/>
    </contour>
    <contour>
      <point x="330" y="114" type="curve"/>
      <point x="413" y="114"/>
      <point x="465" y="157"/>
      <point x="480" y="233" type="curve"/>
      <point x="451" y="235" type="line"/>
      <point x="438" y="177"/>
      <point x="399" y="138"/>
      <point x="330" y="138" type="curve"/>
      <point x="250" y="138"/>
      <point x="200" y="190"/>
      <point x="200" y="283" type="curve"/>
      <point x="200" y="372"/>
      <point x="252" y="424"/>
      <point x="332" y="424" type="curve"/>
      <point x="397" y="424"/>
      <point x="436" y="389"/>
      <point x="449" y="326" type="curve"/>
      <point x="475" y="328" type="line"/>
      <point x="464" y="406"/>
      <point x="406" y="450"/>
      <point x="332" y="450" type="curve"/>
      <point x="239" y="450"/>
      <point x="172" y="391"/>
      <point x="172" y="283" type="curve"/>
      <point x="172" y="172"/>
      <point x="239" y="114"/>
    </contour>
  </outline>
</glyph>
<glyph name="ordfeminine" format="2">
  <advance width="243"/>
  <unicode hex="00AA"/>
  <outline>
    <contour>
      <point x="122" y="401" type="curve" smooth="yes"/>
      <point x="166" y="401"/>
      <point x="196" y="425"/>
      <point x="211" y="461" type="curve"/>
      <point x="213" y="461" type="line"/>
      <point x="216" y="406" type="line"/>
      <point x="228" y="406" type="line"/>
      <point x="228" y="651" type="line"/>
      <point x="212" y="651" type="line"/>
      <point x="211" y="595" type="line"/>
      <point x="196" y="631"/>
      <point x="166" y="654"/>
      <point x="122" y="654" type="curve" smooth="yes"/>
      <point x="56" y="654"/>
      <point x="19" y="600"/>
      <point x="19" y="527" type="curve" smooth="yes"/>
      <point x="19" y="458"/>
      <point x="54" y="401"/>
    </contour>
    <contour>
      <point x="127" y="418" type="curve" smooth="yes"/>
      <point x="69" y="418"/>
      <point x="36" y="461"/>
      <point x="36" y="527" type="curve" smooth="yes"/>
      <point x="36" y="591"/>
      <point x="67" y="637"/>
      <point x="127" y="637" type="curve" smooth="yes"/>
      <point x="179" y="637"/>
      <point x="211" y="602"/>
      <point x="211" y="527" type="curve" smooth="yes"/>
      <point x="211" y="457"/>
      <point x="182" y="418"/>
    </contour>
  </outline>
</glyph>
<glyph name="guillemetleft" format="2">
  <advance width="460"/>
  <unicode hex="00AB"/>
  <outline>
    <contour>
      <point x="295" y="494" type="line"/>
      <point x="15" y="295" type="line"/>
      <point x="295" y="93" type="line"/>
      <point x="295" y="138" type="line"/>
      <point x="54" y="295" type="line"/>
      <point x="295" y="452" type="line"/>
    </contour>
    <contour>
      <point x="445" y="494" type="line"/>
      <point x="165" y="295" type="line"/>
      <point x="445" y="93" type="line"/>
      <point x="445" y="138" type="line"/>
      <point x="204" y="295" type="line"/>
      <point x="445" y="452" type="line"/>
    </contour>
  </outline>
</glyph>
<glyph name="logicalnot" format="2">
  <advance width="317"/>
  <unicode hex="00AC"/>
  <outline>
    <contour>
      <point x="40" y="211" type="line"/>
      <point x="262" y="211" type="line"/>
      <point x="262" y="237" type="line"/>
      <point x="40" y="237" type="line"/>
    </contour>
    <contour>
      <point x="235" y="123" type="line"/>
      <point x="262" y="123" type="line"/>
      <point x="262" y="237" type="line"/>
      <point x="235" y="237" type="line"/>
    </contour>
  </outline>
</glyph>
<glyph name="registered" format="2">
  <advance width="408"/>
  <unicode hex="00AE"/>
  <outline>
    <contour>
      <point x="203" y="229" type="curve"/>
      <point x="297" y="229"/>
      <point x="373" y="306"/>
      <point x="373" y="400" type="curve"/>
      <point x="373" y="496"/>
      <point x="297" y="572"/>
      <point x="203" y="572" type="curve"/>
      <point x="107" y="572"/>
      <point x="30" y="496"/>
      <point x="30" y="400" type="curve"/>
      <point x="30" y="306"/>
      <point x="107" y="229"/>
    </contour>
    <contour>
      <point x="203" y="250" type="curve"/>
      <point x="119" y="250"/>
      <point x="52" y="318"/>
      <point x="52" y="400" type="curve"/>
      <point x="52" y="484"/>
      <point x="119" y="551"/>
      <point x="203" y="551" type="curve"/>
      <point x="285" y="551"/>
      <point x="352" y="484"/>
      <point x="352" y="400" type="curve"/>
      <point x="352" y="318"/>
      <point x="285" y="250"/>
    </contour>
    <contour>
      <point x="137" y="311" type="line"/>
      <point x="160" y="311" type="line"/>
      <point x="160" y="391" type="line"/>
      <point x="238" y="393"/>
      <point x="243" y="392"/>
      <point x="243" y="339" type="curve"/>
      <point x="243" y="301"/>
      <point x="274" y="304"/>
      <point x="284" y="312" type="curve"/>
      <point x="284" y="327" type="line"/>
      <point x="245" y="313"/>
      <point x="286" y="394"/>
      <point x="227" y="394" type="curve"/>
      <point x="260" y="394"/>
      <point x="275" y="418"/>
      <point x="275" y="445" type="curve"/>
      <point x="275" y="486"/>
      <point x="248" y="500"/>
      <point x="199" y="500" type="curve"/>
      <point x="137" y="500" type="line"/>
    </contour>
    <contour>
      <point x="160" y="409" type="line"/>
      <point x="160" y="480" type="line"/>
      <point x="194" y="480" type="line"/>
      <point x="232" y="480"/>
      <point x="254" y="476"/>
      <point x="254" y="443" type="curve"/>
      <point x="254" y="415"/>
      <point x="237" y="409"/>
      <point x="203" y="409" type="curve"/>
    </contour>
  </outline>
</glyph>
<glyph name="macron" format="2">
  <advance width="302"/>
  <unicode hex="00AF"/>
  <outline>
    <contour>
      <point x="40" y="734" type="line"/>
      <point x="262" y="734" type="line"/>
      <point x="262" y="760" type="line"/>
      <point x="40" y="760" type="line"/>
    </contour>
  </outline>
</glyph>
<glyph name="degree" format="2">
  <advance width="297"/>
  <unicode hex="00B0"/>
  <outline>
    <contour>
      <point x="123" y="388" type="curve"/>
      <point x="187" y="388"/>
      <point x="217" y="427"/>
      <point x="217" y="479" type="curve"/>
      <point x="217" y="536"/>
      <point x="187" y="573"/>
      <point x="123" y="573" type="curve"/>
      <point x="56" y="573"/>
      <point x="30" y="536"/>
      <point x="30" y="479" type="curve"/>
      <point x="30" y="424"/>
      <point x="57" y="388"/>
    </contour>
    <contour>
      <point x="123" y="409" type="curve"/>
      <point x="73" y="409"/>
      <point x="50" y="439"/>
      <point x="50" y="480" type="curve"/>
      <point x="50" y="520"/>
      <point x="68" y="554"/>
      <point x="123" y="554" type="curve"/>
      <point x="177" y="554"/>
      <point x="195" y="521"/>
      <point x="195" y="480" type="curve"/>
      <point x="195" y="440"/>
      <point x="177" y="409"/>
    </contour>
  </outline>
</glyph>
<glyph name="plusminus" format="2">
  <advance width="317"/>
  <unicode hex="00B1"/>
  <outline>
    <contour>
      <point x="40" y="56" type="line"/>
      <point x="262" y="56" type="line"/>
      <point x="262" y="82" type="line"/>
      <point x="40" y="82" type="line"/>
    </contour>
    <contour>
      <point x="141" y="131" type="line"/>
      <point x="167" y="131" type="line"/>
      <point x="167" y="321" type="line"/>
      <point x="141" y="321" type="line"/>
    </contour>
    <contour>
      <point x="40" y="210" type="line"/>
      <point x="262" y="210" type="line"/>
      <point x="262" y="236" type="line"/>
      <point x="40" y="236" type="line"/>
    </contour>
  </outline>
</glyph>
<glyph name="twosuperior" format="2">
  <advance width="228"/>
  <unicode hex="00B2"/>
  <outline>
    <contour>
      <point x="15" y="404" type="line"/>
      <point x="213" y="404" type="line"/>
      <point x="213" y="428" type="line"/>
      <point x="45" y="428" type="line"/>
      <point x="56" y="433"/>
      <point x="168" y="509"/>
      <point x="196" y="564" type="curve"/>
      <point x="227" y="626"/>
      <point x="188" y="681"/>
      <point x="116" y="681" type="curve" smooth="yes"/>
      <point x="60" y="681"/>
      <point x="21" y="647"/>
      <point x="23" y="591" type="curve"/>
      <point x="48" y="589" type="line"/>
      <point x="47" y="634"/>
      <point x="75" y="658"/>
      <point x="113" y="658" type="curve" smooth="yes"/>
      <point x="167" y="658"/>
      <point x="195" y="617"/>
      <point x="171" y="570" type="curve"/>
      <point x="140" y="509"/>
      <point x="16" y="428"/>
      <point x="15" y="427" type="curve"/>
    </contour>
  </outline>
</glyph>
<glyph name="micro" format="2">
  <advance width="430"/>
  <unicode hex="00B5"/>
  <outline>
    <contour>
      <point x="41" y="-152" type="line"/>
      <point x="68" y="-152" type="line"/>
      <point x="68" y="56" type="line"/>
      <point x="70" y="56" type="line"/>
      <point x="94" y="15"/>
      <point x="135" y="-9"/>
      <point x="202" y="-9" type="curve"/>
      <point x="284" y="-9"/>
      <point x="333" y="54"/>
      <point x="349" y="104" type="curve"/>
      <point x="351" y="104" type="line"/>
      <point x="356" y="1" type="line"/>
      <point x="377" y="1" type="line"/>
      <point x="377" y="404" type="line"/>
      <point x="351" y="404" type="line"/>
      <point x="350" y="184" type="line"/>
      <point x="344" y="98"/>
      <point x="302" y="17"/>
      <point x="202" y="17" type="curve"/>
      <point x="93" y="17"/>
      <point x="68" y="92"/>
      <point x="68" y="192" type="curve"/>
      <point x="68" y="404" type="line"/>
      <point x="41" y="404" type="line"/>
    </contour>
  </outline>
</glyph>
<glyph name="paragraph" format="2">
  <advance width="485"/>
  <unicode hex="00B6"/>
  <outline>
    <contour>
      <point x="223" y="-94" type="line"/>
      <point x="277" y="-94" type="line"/>
      <point x="277" y="695" type="line"/>
      <point x="223" y="695" type="line"/>
      <point x="209" y="695" type="line"/>
      <point x="102" y="691"/>
      <point x="16" y="639"/>
      <point x="16" y="502" type="curve" smooth="yes"/>
      <point x="16" y="360"/>
      <point x="104" y="313"/>
      <point x="213" y="309" type="curve"/>
      <point x="223" y="309" type="line"/>
    </contour>
    <contour>
      <point x="341" y="-94" type="line"/>
      <point x="394" y="-94" type="line"/>
      <point x="394" y="695" type="line"/>
      <point x="340" y="695" type="line"/>
    </contour>
    <contour>
      <point x="207" y="646" type="line"/>
      <point x="469" y="646" type="line"/>
      <point x="469" y="695" type="line"/>
      <point x="203" y="695" type="line"/>
    </contour>
  </outline>
</glyph>
<glyph name="ordmasculine" format="2">
  <advance width="280"/>
  <unicode hex="00BA"/>
  <outline>
    <contour>
      <point x="141" y="404" type="curve"/>
      <point x="225" y="404"/>
      <point x="265" y="464"/>
      <point x="265" y="544" type="curve"/>
      <point x="265" y="629"/>
      <point x="221" y="686"/>
      <point x="141" y="686" type="curve"/>
      <point x="57" y="686"/>
      <point x="15" y="627"/>
      <point x="15" y="544" type="curve"/>
      <point x="15" y="462"/>
      <point x="57" y="404"/>
    </contour>
    <contour>
      <point x="141" y="421" type="curve"/>
      <point x="59" y="421"/>
      <point x="34" y="485"/>
      <point x="34" y="544" type="curve"/>
      <point x="34" y="604"/>
      <point x="59" y="668"/>
      <point x="141" y="668" type="curve"/>
      <point x="221" y="668"/>
      <point x="246" y="604"/>
      <point x="246" y="544" type="curve"/>
      <point x="246" y="485"/>
      <point x="221" y="421"/>
    </contour>
  </outline>
</glyph>
<glyph name="guillemetright" format="2">
  <advance width="460"/>
  <unicode hex="00BB"/>
  <outline>
    <contour>
      <point x="165" y="494" type="line"/>
      <point x="165" y="452" type="line"/>
      <point x="406" y="295" type="line"/>
      <point x="165" y="138" type="line"/>
      <point x="165" y="93" type="line"/>
      <point x="445" y="295" type="line"/>
    </contour>
    <contour>
      <point x="15" y="494" type="line"/>
      <point x="15" y="452" type="line"/>
      <point x="256" y="295" type="line"/>
      <point x="15" y="138" type="line"/>
      <point x="15" y="93" type="line"/>
      <point x="295" y="295" type="line"/>
    </contour>
  </outline>
</glyph>
<glyph name="questiondown" format="2">
  <advance width="424"/>
  <unicode hex="00BF"/>
  <outline>
    <contour>
      <point x="212" y="250" type="line"/>
      <point x="207" y="104"/>
      <point x="40" y="111"/>
      <point x="40" y="-39" type="curve"/>
      <point x="40" y="-140"/>
      <point x="119" y="-199"/>
      <point x="211" y="-199" type="curve"/>
      <point x="322" y="-199"/>
      <point x="389" y="-122"/>
      <point x="389" y="-15" type="curve"/>
      <point x="362" y="-15" type="line"/>
      <point x="362" y="-106"/>
      <point x="310" y="-174"/>
      <point x="211" y="-174" type="curve"/>
      <point x="126" y="-174"/>
      <point x="64" y="-121"/>
      <point x="64" y="-39" type="curve"/>
      <point x="64" y="94"/>
      <point x="231" y="97"/>
      <point x="234" y="250" type="curve"/>
    </contour>
    <contour>
      <point x="221" y="374" type="curve"/>
      <point x="205" y="374"/>
      <point x="202" y="363"/>
      <point x="202" y="348" type="curve"/>
      <point x="202" y="335"/>
      <point x="205" y="324"/>
      <point x="221" y="324" type="curve"/>
      <point x="237" y="324"/>
      <point x="240" y="335"/>
      <point x="240" y="348" type="curve"/>
      <point x="240" y="363"/>
      <point x="237" y="374"/>
    </contour>
  </outline>
</glyph>
<glyph name="AE" format="2">
  <advance width="816"/>
  <unicode hex="00C6"/>
  <outline>
    <contour>
      <point x="419" y="0" type="line"/>
      <point x="781" y="0" type="line"/>
      <point x="781" y="25" type="line"/>
      <point x="446" y="25" type="line"/>
      <point x="446" y="272" type="line"/>
      <point x="711" y="272" type="line"/>
      <point x="711" y="298" type="line"/>
      <point x="446" y="298" type="line"/>
      <point x="446" y="537" type="line"/>
      <point x="772" y="537" type="line"/>
      <point x="772" y="563" type="line"/>
      <point x="419" y="563" type="line"/>
    </contour>
    <contour>
      <point x="182" y="194" type="line"/>
      <point x="430" y="194" type="line"/>
      <point x="430" y="221" type="line"/>
      <point x="193" y="221" type="line"/>
    </contour>
    <contour>
      <point x="20" y="0" type="line"/>
      <point x="48" y="0" type="line"/>
      <point x="436" y="563" type="line"/>
      <point x="406" y="563" type="line"/>
    </contour>
  </outline>
</glyph>
<glyph name="multiply" format="2">
  <advance width="306"/>
  <unicode hex="00D7"/>
  <outline>
    <contour>
      <point x="271" y="318" type="line"/>
      <point x="174" y="221" type="line"/>
      <point x="271" y="123" type="line"/>
      <point x="251" y="101" type="line"/>
      <point x="152" y="200" type="line"/>
      <point x="57" y="104" type="line"/>
      <point x="35" y="126" type="line"/>
      <point x="131" y="221" type="line"/>
      <point x="36" y="316" type="line"/>
      <point x="58" y="338" type="line"/>
      <point x="152" y="243" type="line"/>
      <point x="249" y="340" type="line"/>
    </contour>
  </outline>
</glyph>
<glyph name="Oslash" format="2">
  <advance width="600"/>
  <unicode hex="00D8"/>
  <guideline x="311" y="277" angle="90"/>
  <guideline x="396" y="277" angle="0"/>
  <outline>
    <contour>
      <point x="90" y="-22" type="line"/>
      <point x="110" y="-34" type="line"/>
      <point x="532" y="577" type="line"/>
      <point x="512" y="589" type="line"/>
    </contour>
    <component base="O"/>
  </outline>
</glyph>
<glyph name="Thorn" format="2">
  <advance width="474"/>
  <unicode hex="00DE"/>
  <outline>
    <contour>
      <point x="96" y="0" type="line"/>
      <point x="96" y="563" type="line"/>
      <point x="70" y="563" type="line"/>
      <point x="70" y="0" type="line"/>
    </contour>
    <contour>
      <point x="90" y="451" type="line"/>
      <point x="90" y="425" type="line"/>
      <point x="267" y="425" type="line"/>
      <point x="374" y="425"/>
      <point x="424" y="380"/>
      <point x="424" y="281" type="curve"/>
      <point x="424" y="185"/>
      <point x="371" y="139"/>
      <point x="267" y="139" type="curve"/>
      <point x="89" y="139" type="line"/>
      <point x="89" y="112" type="line"/>
      <point x="267" y="112" type="line"/>
      <point x="384" y="112"/>
      <point x="449" y="171"/>
      <point x="449" y="281" type="curve"/>
      <point x="449" y="394"/>
      <point x="388" y="451"/>
      <point x="267" y="451" type="curve"/>
    </contour>
  </outline>
</glyph>
<glyph name="germandbls" format="2">
  <advance width="473"/>
  <unicode hex="00DF"/>
  <guideline x="371" y="-10" angle="0"/>
  <guideline x="345" y="350" angle="0"/>
  <guideline x="345" y="410" angle="0"/>
  <guideline x="345" y="367" angle="0"/>
  <guideline x="345" y="427" angle="0"/>
  <outline>
    <contour>
      <point x="274" y="-10" type="curve"/>
      <point x="376" y="-10"/>
      <point x="453" y="55"/>
      <point x="453" y="142" type="curve"/>
      <point x="453" y="292"/>
      <point x="246" y="278"/>
      <point x="246" y="335" type="curve"/>
      <point x="246" y="381"/>
      <point x="378" y="374"/>
      <point x="378" y="478" type="curve"/>
      <point x="378" y="568"/>
      <point x="272" y="563"/>
      <point x="208" y="563" type="curve"/>
      <point x="55" y="563" type="line"/>
      <point x="55" y="0" type="line"/>
      <point x="80" y="0" type="line"/>
      <point x="80" y="538" type="line"/>
      <point x="208" y="538" type="line"/>
      <point x="299" y="538"/>
      <point x="352" y="529"/>
      <point x="352" y="471" type="curve"/>
      <point x="352" y="389"/>
      <point x="223" y="395"/>
      <point x="223" y="334" type="curve"/>
      <point x="223" y="258"/>
      <point x="429" y="276"/>
      <point x="429" y="142" type="curve"/>
      <point x="429" y="67"/>
      <point x="361" y="15"/>
      <point x="274" y="15" type="curve"/>
      <point x="173" y="15"/>
      <point x="147" y="87"/>
      <point x="146" y="90" type="curve"/>
      <point x="121" y="90" type="line"/>
      <point x="140" y="26"/>
      <point x="202" y="-10"/>
    </contour>
  </outline>
</glyph>
<glyph name="adieresis" format="2">
  <advance width="448"/>
  <unicode hex="00E4"/>
  <guideline x="319" y="464" angle="0"/>
  <guideline x="319" y="403" angle="0"/>
  <guideline x="211" y="448" angle="90"/>
  <outline>
    <contour>
      <point x="203" y="-9" type="curve"/>
      <point x="318" y="-9"/>
      <point x="377" y="79"/>
      <point x="377" y="200" type="curve"/>
      <point x="377" y="318"/>
      <point x="320" y="409"/>
      <point x="203" y="409" type="curve"/>
      <point x="88" y="409"/>
      <point x="28" y="317"/>
      <point x="28" y="200" type="curve"/>
      <point x="28" y="86"/>
      <point x="86" y="-9"/>
    </contour>
    <contour>
      <point x="211" y="19" type="curve"/>
      <point x="112" y="19"/>
      <point x="57" y="91"/>
      <point x="57" y="200" type="curve"/>
      <point x="57" y="306"/>
      <point x="109" y="381"/>
      <point x="211" y="381" type="curve"/>
      <point x="295" y="381"/>
      <point x="356" y="316"/>
      <point x="356" y="200" type="curve"/>
      <point x="356" y="86"/>
      <point x="298" y="19"/>
    </contour>
    <contour>
      <point x="410" y="-9" type="curve"/>
      <point x="432" y="-9"/>
      <point x="451" y="1"/>
      <point x="455" y="4" type="curve"/>
      <point x="447" y="26" type="line"/>
      <point x="441" y="21"/>
      <point x="383" y="-9"/>
      <point x="383" y="67" type="curve"/>
      <point x="383" y="404" type="line"/>
      <point x="356" y="404" type="line"/>
      <point x="356" y="67" type="line"/>
      <point x="356" y="7"/>
      <point x="385" y="-8"/>
    </contour>
    <component base="dieresiscomb" xOffset="64" yOffset="-237"/>
  </outline>
</glyph>
<glyph name="ae" format="2">
  <advance width="734"/>
  <unicode hex="00E6"/>
  <outline>
    <contour>
      <point x="152" y="0" type="curve" smooth="yes"/>
      <point x="245" y="0"/>
      <point x="323" y="63"/>
      <point x="334" y="161" type="curve"/>
      <point x="350" y="75"/>
      <point x="411" y="0"/>
      <point x="517" y="0" type="curve" smooth="yes"/>
      <point x="605" y="0"/>
      <point x="676" y="54"/>
      <point x="693" y="135" type="curve"/>
      <point x="666" y="135" type="line"/>
      <point x="652" y="67"/>
      <point x="592" y="25"/>
      <point x="517" y="25" type="curve" smooth="yes"/>
      <point x="414" y="25"/>
      <point x="357" y="99"/>
      <point x="357" y="211" type="curve"/>
      <point x="694" y="211" type="line"/>
      <point x="693" y="236" type="line"/>
      <point x="684" y="343"/>
      <point x="614" y="414"/>
      <point x="517" y="414" type="curve" smooth="yes"/>
      <point x="437" y="414"/>
      <point x="383" y="372"/>
      <point x="354" y="314" type="curve"/>
      <point x="342" y="380"/>
      <point x="276" y="413"/>
      <point x="209" y="413" type="curve" smooth="yes"/>
      <point x="138" y="413"/>
      <point x="64" y="374"/>
      <point x="51" y="295" type="curve"/>
      <point x="78" y="295" type="line"/>
      <point x="85" y="358"/>
      <point x="148" y="389"/>
      <point x="207" y="389" type="curve" smooth="yes"/>
      <point x="270" y="389"/>
      <point x="329" y="354"/>
      <point x="329" y="291" type="curve" smooth="yes"/>
      <point x="329" y="262"/>
      <point x="311" y="254"/>
      <point x="221" y="235" type="curve" smooth="yes"/>
      <point x="135" y="216"/>
      <point x="32" y="197"/>
      <point x="32" y="102" type="curve" smooth="yes"/>
      <point x="32" y="40"/>
      <point x="79" y="0"/>
    </contour>
    <contour>
      <point x="152" y="26" type="curve" smooth="yes"/>
      <point x="95" y="26"/>
      <point x="59" y="57"/>
      <point x="59" y="103" type="curve" smooth="yes"/>
      <point x="59" y="176"/>
      <point x="136" y="192"/>
      <point x="227" y="212" type="curve" smooth="yes"/>
      <point x="271" y="222"/>
      <point x="308" y="229"/>
      <point x="326" y="243" type="curve"/>
      <point x="326" y="125"/>
      <point x="271" y="26"/>
    </contour>
    <contour>
      <point x="360" y="236" type="line"/>
      <point x="371" y="325"/>
      <point x="427" y="389"/>
      <point x="517" y="389" type="curve" smooth="yes"/>
      <point x="619" y="389"/>
      <point x="664" y="298"/>
      <point x="666" y="236" type="curve"/>
    </contour>
  </outline>
</glyph>
<glyph name="igrave" format="2">
  <advance width="140"/>
  <unicode hex="00EC"/>
  <guideline x="70" y="-60" angle="90"/>
  <guideline x="83" y="443" angle="90"/>
  <outline>
    <contour>
      <point x="57" y="0" type="line"/>
      <point x="83" y="0" type="line"/>
      <point x="83" y="404" type="line"/>
      <point x="82" y="404"/>
      <point x="57" y="404"/>
      <point x="57" y="404" type="curve"/>
    </contour>
    <component base="gravecomb" xOffset="-50" yOffset="-180"/>
  </outline>
</glyph>
<glyph name="iacute" format="2">
  <advance width="131"/>
  <unicode hex="00ED"/>
  <guideline x="58" y="-60" angle="90"/>
  <guideline x="58" y="-60" angle="90"/>
  <guideline x="45" y="443" angle="90"/>
  <outline>
    <contour>
      <point x="45" y="0" type="line"/>
      <point x="71" y="0" type="line"/>
      <point x="71" y="404" type="line"/>
      <point x="70" y="404"/>
      <point x="45" y="404"/>
      <point x="45" y="404" type="curve"/>
    </contour>
    <component base="acutecomb" xOffset="12" yOffset="-176"/>
  </outline>
</glyph>
<glyph name="icircumflex" format="2">
  <advance width="160"/>
  <unicode hex="00EE"/>
  <guideline x="73" y="-60" angle="90"/>
  <outline>
    <contour>
      <point x="60" y="0" type="line"/>
      <point x="86" y="0" type="line"/>
      <point x="86" y="404" type="line"/>
      <point x="85" y="404"/>
      <point x="60" y="404"/>
      <point x="60" y="404" type="curve"/>
    </contour>
    <component base="circumflexcomb" xOffset="-120" yOffset="-171"/>
  </outline>
</glyph>
<glyph name="idieresis" format="2">
  <advance width="189"/>
  <unicode hex="00EF"/>
  <guideline x="84" y="-60" angle="90"/>
  <outline>
    <contour>
      <point x="72" y="0" type="line"/>
      <point x="98" y="0" type="line"/>
      <point x="98" y="404" type="line"/>
      <point x="97" y="404"/>
      <point x="72" y="404"/>
      <point x="72" y="404" type="curve"/>
    </contour>
    <component base="dieresiscomb" xOffset="-60" yOffset="-237"/>
  </outline>
</glyph>
<glyph name="eth" format="2">
  <advance width="472"/>
  <unicode hex="00F0"/>
  <guideline x="229" y="-10" angle="0"/>
  <outline>
    <contour>
      <point x="244" y="-10" type="curve"/>
      <point x="532" y="-10"/>
      <point x="468" y="486"/>
      <point x="195" y="583" type="curve"/>
      <point x="187" y="560" type="line"/>
      <point x="306" y="517"/>
      <point x="397" y="359"/>
      <point x="410" y="223" type="curve"/>
      <point x="410" y="223"/>
      <point x="410" y="223"/>
      <point x="409" y="223" type="curve" smooth="yes"/>
      <point x="409" y="223"/>
      <point x="359" y="386"/>
      <point x="215" y="386" type="curve"/>
      <point x="-31" y="386"/>
      <point x="-14" y="-10"/>
    </contour>
    <contour>
      <point x="403" y="155" type="curve"/>
      <point x="363" y="-61"/>
      <point x="70" y="-20"/>
      <point x="65" y="195" type="curve" smooth="yes"/>
      <point x="59" y="434"/>
      <point x="400" y="405"/>
    </contour>
    <contour>
      <point x="243" y="426" type="line"/>
      <point x="413" y="528" type="line"/>
      <point x="401" y="550" type="line"/>
      <point x="231" y="447" type="line"/>
    </contour>
  </outline>
</glyph>
<glyph name="divide" format="2">
  <advance width="317"/>
  <unicode hex="00F7"/>
  <outline>
    <contour>
      <point x="40" y="211" type="line"/>
      <point x="262" y="211" type="line"/>
      <point x="262" y="237" type="line"/>
      <point x="40" y="237" type="line"/>
    </contour>
    <contour>
      <point x="152" y="274" type="curve"/>
      <point x="172" y="274"/>
      <point x="181" y="288"/>
      <point x="181" y="306" type="curve"/>
      <point x="181" y="325"/>
      <point x="171" y="338"/>
      <point x="152" y="338" type="curve"/>
      <point x="134" y="338"/>
      <point x="124" y="325"/>
      <point x="124" y="306" type="curve"/>
      <point x="124" y="287"/>
      <point x="134" y="274"/>
    </contour>
    <contour>
      <point x="152" y="111" type="curve"/>
      <point x="172" y="111"/>
      <point x="181" y="125"/>
      <point x="181" y="143" type="curve"/>
      <point x="181" y="162"/>
      <point x="171" y="175"/>
      <point x="152" y="175" type="curve"/>
      <point x="134" y="175"/>
      <point x="124" y="162"/>
      <point x="124" y="143" type="curve"/>
      <point x="124" y="124"/>
      <point x="134" y="111"/>
    </contour>
  </outline>
</glyph>
<glyph name="oslash" format="2">
  <advance width="437"/>
  <unicode hex="00F8"/>
  <guideline x="211" y="200" angle="90"/>
  <guideline x="296" y="200" angle="0"/>
  <outline>
    <contour>
      <point x="57" y="-22" type="line"/>
      <point x="78" y="-34" type="line"/>
      <point x="365" y="422" type="line"/>
      <point x="344" y="434" type="line"/>
    </contour>
    <component base="o"/>
  </outline>
</glyph>
<glyph name="thorn" format="2">
  <advance width="457"/>
  <unicode hex="00FE"/>
  <outline>
    <contour>
      <point x="239" y="-10" type="curve"/>
      <point x="364" y="-10"/>
      <point x="424" y="95"/>
      <point x="424" y="199" type="curve" smooth="yes"/>
      <point x="424" y="302"/>
      <point x="361" y="404"/>
      <point x="238" y="404" type="curve"/>
      <point x="106" y="404"/>
      <point x="75" y="278"/>
      <point x="77" y="286" type="curve"/>
      <point x="77" y="107" type="line"/>
      <point x="71" y="128"/>
      <point x="106" y="-10"/>
    </contour>
    <contour>
      <point x="50" y="-199" type="line"/>
      <point x="78" y="-199" type="line"/>
      <point x="78" y="129" type="line"/>
      <point x="77" y="563" type="line"/>
      <point x="50" y="563" type="line"/>
    </contour>
    <contour>
      <point x="242" y="15" type="curve"/>
      <point x="150" y="15"/>
      <point x="77" y="95"/>
      <point x="77" y="198" type="curve"/>
      <point x="77" y="301"/>
      <point x="147" y="379"/>
      <point x="234" y="379" type="curve"/>
      <point x="340" y="379"/>
      <point x="397" y="289"/>
      <point x="397" y="198" type="curve" smooth="yes"/>
      <point x="397" y="107"/>
      <point x="348" y="15"/>
    </contour>
  </outline>
</glyph>
<glyph name="Aogonek" format="2">
  <advance width="516"/>
  <unicode hex="0104"/>
  <outline>
    <contour>
      <point x="448" y="-198" type="curve"/>
      <point x="498" y="-198"/>
      <point x="520" y="-155"/>
      <point x="520" y="-155" type="curve"/>
      <point x="498" y="-140" type="line"/>
      <point x="498" y="-140"/>
      <point x="489" y="-174"/>
      <point x="448" y="-174" type="curve"/>
      <point x="414" y="-174"/>
      <point x="396" y="-152"/>
      <point x="396" y="-123" type="curve"/>
      <point x="396" y="-49"/>
      <point x="498" y="0"/>
      <point x="498" y="0" type="curve"/>
      <point x="493" y="13" type="line"/>
      <point x="493" y="13"/>
      <point x="372" y="-37"/>
      <point x="372" y="-123" type="curve"/>
      <point x="372" y="-165"/>
      <point x="399" y="-198"/>
    </contour>
    <component base="A"/>
  </outline>
</glyph>
<glyph name="dcaron" format="2">
  <advance width="487"/>
  <unicode hex="010F"/>
  <guideline x="444" y="441" angle="90"/>
  <guideline x="401" y="441" angle="90"/>
  <outline>
    <contour>
      <point x="444" y="441" type="line"/>
      <point x="460" y="441" type="line"/>
      <point x="511" y="575" type="line"/>
      <point x="481" y="575" type="line"/>
    </contour>
    <component base="d"/>
  </outline>
</glyph>
<glyph name="Dcroat" format="2">
  <advance width="600"/>
  <unicode hex="0110"/>
  <guideline x="362" y="282" angle="0"/>
  <outline>
    <contour>
      <point x="70" y="0" type="line"/>
      <point x="152" y="0"/>
      <point x="193" y="0"/>
      <point x="213" y="0" type="curve"/>
      <point x="408" y="0"/>
      <point x="539" y="60"/>
      <point x="539" y="282" type="curve"/>
      <point x="539" y="469"/>
      <point x="408" y="563"/>
      <point x="213" y="563" type="curve"/>
      <point x="195" y="563"/>
      <point x="157" y="563"/>
      <point x="70" y="563" type="curve"/>
    </contour>
    <contour>
      <point x="0" y="274" type="line"/>
      <point x="293" y="274" type="line"/>
      <point x="293" y="299" type="line"/>
      <point x="0" y="299" type="line"/>
    </contour>
    <contour>
      <point x="97" y="25" type="curve"/>
      <point x="97" y="538" type="line"/>
      <point x="213" y="538" type="line"/>
      <point x="392" y="538"/>
      <point x="511" y="458"/>
      <point x="511" y="282" type="curve"/>
      <point x="511" y="70"/>
      <point x="392" y="25"/>
      <point x="213" y="25" type="curve"/>
      <point x="196" y="25"/>
      <point x="163" y="25"/>
    </contour>
  </outline>
</glyph>
<glyph name="Eogonek" format="2">
  <advance width="457"/>
  <unicode hex="0118"/>
  <outline>
    <contour>
      <point x="372" y="-198" type="curve"/>
      <point x="422" y="-198"/>
      <point x="444" y="-155"/>
      <point x="444" y="-155" type="curve"/>
      <point x="422" y="-140" type="line"/>
      <point x="422" y="-140"/>
      <point x="413" y="-174"/>
      <point x="372" y="-174" type="curve"/>
      <point x="338" y="-174"/>
      <point x="320" y="-152"/>
      <point x="320" y="-123" type="curve"/>
      <point x="320" y="-49"/>
      <point x="422" y="0"/>
      <point x="422" y="0" type="curve"/>
      <point x="417" y="13" type="line"/>
      <point x="417" y="13"/>
      <point x="296" y="-37"/>
      <point x="296" y="-123" type="curve"/>
      <point x="296" y="-165"/>
      <point x="323" y="-198"/>
    </contour>
    <component base="E"/>
  </outline>
</glyph>
<glyph name="gbreve" format="2">
  <advance width="433"/>
  <unicode hex="011F"/>
  <outline>
    <contour>
      <point x="125" y="-152" type="line"/>
      <point x="344" y="-152" type="line"/>
      <point x="378" y="-152"/>
      <point x="378" y="-125"/>
      <point x="378" y="-105" type="curve" smooth="yes"/>
      <point x="378" y="404" type="line"/>
      <point x="351" y="404" type="line"/>
      <point x="350" y="288" type="line"/>
      <point x="348" y="288" type="line"/>
      <point x="341" y="309"/>
      <point x="303" y="404"/>
      <point x="190" y="404" type="curve" smooth="yes"/>
      <point x="76" y="404"/>
      <point x="4" y="312"/>
      <point x="4" y="198" type="curve" smooth="yes"/>
      <point x="4" y="84"/>
      <point x="74" y="-10"/>
      <point x="189" y="-10" type="curve" smooth="yes"/>
      <point x="299" y="-10"/>
      <point x="341" y="87"/>
      <point x="349" y="107" type="curve"/>
      <point x="351" y="107" type="line"/>
      <point x="351" y="-127" type="line"/>
      <point x="125" y="-127" type="line"/>
    </contour>
    <contour>
      <point x="186" y="15" type="curve" smooth="yes"/>
      <point x="80" y="15"/>
      <point x="31" y="107"/>
      <point x="31" y="198" type="curve" smooth="yes"/>
      <point x="31" y="289"/>
      <point x="88" y="379"/>
      <point x="194" y="379" type="curve" smooth="yes"/>
      <point x="276" y="379"/>
      <point x="348" y="312"/>
      <point x="348" y="198" type="curve" smooth="yes"/>
      <point x="348" y="81"/>
      <point x="270" y="15"/>
    </contour>
    <component base="brevecomb" xOffset="41" yOffset="-208"/>
  </outline>
</glyph>
<glyph name="Hbar" format="2">
  <advance width="579"/>
  <unicode hex="0126"/>
  <guideline x="499" y="380" angle="90"/>
  <guideline x="534" y="380" angle="90"/>
  <guideline x="40" y="380" angle="90"/>
  <guideline x="75" y="380" angle="90"/>
  <outline>
    <contour>
      <point x="474" y="0" type="line"/>
      <point x="499" y="0" type="line"/>
      <point x="499" y="563" type="line"/>
      <point x="474" y="563" type="line"/>
    </contour>
    <contour>
      <point x="75" y="0" type="line"/>
      <point x="102" y="0" type="line"/>
      <point x="102" y="563" type="line"/>
      <point x="75" y="563" type="line"/>
    </contour>
    <contour>
      <point x="96" y="281" type="line"/>
      <point x="480" y="281" type="line"/>
      <point x="480" y="306" type="line"/>
      <point x="96" y="306" type="line"/>
    </contour>
    <contour>
      <point x="25" y="434" type="line"/>
      <point x="549" y="434" type="line"/>
      <point x="549" y="459" type="line"/>
      <point x="25" y="459" type="line"/>
    </contour>
  </outline>
</glyph>
<glyph name="hbar" format="2">
  <advance width="456"/>
  <unicode hex="0127"/>
  <guideline x="60" y="625" angle="90"/>
  <guideline x="6" y="625" angle="90"/>
  <outline>
    <contour>
      <point x="375" y="0" type="line"/>
      <point x="401" y="0" type="line"/>
      <point x="401" y="202" type="line"/>
      <point x="401" y="304"/>
      <point x="379" y="404"/>
      <point x="242" y="404" type="curve"/>
      <point x="107" y="404"/>
      <point x="81" y="270"/>
      <point x="86" y="290" type="curve"/>
      <point x="86" y="190" type="line"/>
      <point x="86" y="294"/>
      <point x="140" y="378"/>
      <point x="244" y="378" type="curve"/>
      <point x="341" y="378"/>
      <point x="375" y="312"/>
      <point x="375" y="202" type="curve"/>
    </contour>
    <contour>
      <point x="60" y="0" type="line"/>
      <point x="86" y="0" type="line"/>
      <point x="86" y="563" type="line"/>
      <point x="60" y="563" type="line"/>
    </contour>
    <contour>
      <point x="222" y="475" type="line"/>
      <point x="222" y="500" type="line"/>
      <point x="6" y="500" type="line"/>
      <point x="6" y="475" type="line"/>
    </contour>
  </outline>
</glyph>
<glyph name="itilde" format="2">
  <advance width="169"/>
  <unicode hex="0129"/>
  <outline>
    <contour>
      <point x="66" y="0" type="line"/>
      <point x="92" y="0" type="line"/>
      <point x="92" y="404" type="line"/>
      <point x="81" y="404"/>
      <point x="83" y="404"/>
      <point x="66" y="404" type="curve"/>
    </contour>
    <component base="tildecomb" xOffset="-95" yOffset="-109"/>
  </outline>
</glyph>
<glyph name="imacron" format="2">
  <advance width="135"/>
  <unicode hex="012B"/>
  <outline>
    <contour>
      <point x="40" y="0" type="line"/>
      <point x="66" y="0" type="line"/>
      <point x="66" y="404" type="line"/>
      <point x="65" y="404"/>
      <point x="40" y="404"/>
      <point x="40" y="404" type="curve"/>
    </contour>
    <component base="macron" xScale="0.7" xOffset="-53" yOffset="-274"/>
  </outline>
</glyph>
<glyph name="Iogonek" format="2">
  <advance width="305"/>
  <unicode hex="012E"/>
  <outline>
    <contour>
      <point x="148" y="-198" type="curve"/>
      <point x="198" y="-198"/>
      <point x="220" y="-155"/>
      <point x="220" y="-155" type="curve"/>
      <point x="198" y="-140" type="line"/>
      <point x="198" y="-140"/>
      <point x="189" y="-174"/>
      <point x="148" y="-174" type="curve"/>
      <point x="114" y="-174"/>
      <point x="96" y="-152"/>
      <point x="96" y="-123" type="curve"/>
      <point x="96" y="-49"/>
      <point x="198" y="0"/>
      <point x="198" y="0" type="curve"/>
      <point x="193" y="13" type="line"/>
      <point x="193" y="13"/>
      <point x="72" y="-37"/>
      <point x="72" y="-123" type="curve"/>
      <point x="72" y="-165"/>
      <point x="99" y="-198"/>
    </contour>
    <component base="I"/>
  </outline>
</glyph>
<glyph name="iogonek" format="2">
  <advance width="160"/>
  <unicode hex="012F"/>
  <outline>
    <contour>
      <point x="55" y="0" type="line"/>
      <point x="81" y="0" type="line"/>
      <point x="81" y="404" type="line"/>
      <point x="81" y="404"/>
      <point x="78" y="403"/>
      <point x="68" y="403" type="curve"/>
      <point x="58" y="403"/>
      <point x="55" y="404"/>
      <point x="55" y="404" type="curve"/>
    </contour>
    <contour>
      <point x="69" y="464" type="curve"/>
      <point x="85" y="464"/>
      <point x="89" y="475"/>
      <point x="89" y="490" type="curve"/>
      <point x="89" y="503"/>
      <point x="85" y="514"/>
      <point x="69" y="514" type="curve"/>
      <point x="53" y="514"/>
      <point x="49" y="503"/>
      <point x="49" y="490" type="curve"/>
      <point x="49" y="475"/>
      <point x="53" y="464"/>
    </contour>
    <contour>
      <point x="31" y="-198" type="curve"/>
      <point x="81" y="-198"/>
      <point x="103" y="-155"/>
      <point x="103" y="-155" type="curve"/>
      <point x="81" y="-140" type="line"/>
      <point x="81" y="-140"/>
      <point x="72" y="-174"/>
      <point x="31" y="-174" type="curve"/>
      <point x="-3" y="-174"/>
      <point x="-21" y="-152"/>
      <point x="-21" y="-123" type="curve"/>
      <point x="-21" y="-49"/>
      <point x="81" y="0"/>
      <point x="81" y="0" type="curve"/>
      <point x="76" y="13" type="line"/>
      <point x="76" y="13"/>
      <point x="-45" y="-37"/>
      <point x="-45" y="-123" type="curve"/>
      <point x="-45" y="-165"/>
      <point x="-18" y="-198"/>
    </contour>
  </outline>
</glyph>
<glyph name="idotless" format="2">
  <advance width="138"/>
  <unicode hex="0131"/>
  <outline>
    <contour>
      <point x="55" y="0" type="line"/>
      <point x="81" y="0" type="line"/>
      <point x="81" y="404" type="line"/>
      <point x="70" y="404"/>
      <point x="72" y="404"/>
      <point x="55" y="404" type="curve"/>
    </contour>
  </outline>
</glyph>
<glyph name="Kcommaaccent" format="2">
  <advance width="541"/>
  <unicode hex="0136"/>
  <outline>
    <contour>
      <point x="96" y="199" type="line"/>
      <point x="481" y="563" type="line"/>
      <point x="442" y="563" type="line"/>
      <point x="96" y="236" type="line"/>
    </contour>
    <contour>
      <point x="75" y="-1" type="line"/>
      <point x="103" y="-1" type="line"/>
      <point x="103" y="563" type="line"/>
      <point x="75" y="563" type="line"/>
    </contour>
    <contour>
      <point x="456" y="0" type="line"/>
      <point x="493" y="0" type="line"/>
      <point x="218" y="322" type="line"/>
      <point x="199" y="304" type="line"/>
    </contour>
    <component base="commaaccentcomb" xOffset="158"/>
  </outline>
</glyph>
<glyph name="kcommaaccent" format="2">
  <advance width="419"/>
  <unicode hex="0137"/>
  <outline>
    <contour>
      <point x="82" y="-1" type="line"/>
      <point x="82" y="563" type="line"/>
      <point x="55" y="563" type="line"/>
      <point x="55" y="-1" type="line"/>
    </contour>
    <contour>
      <point x="197" y="229" type="line"/>
      <point x="178" y="211" type="line"/>
      <point x="358" y="-2" type="line"/>
      <point x="394" y="-2" type="line"/>
    </contour>
    <contour>
      <point x="75" y="106" type="line"/>
      <point x="390" y="404" type="line"/>
      <point x="351" y="404" type="line"/>
      <point x="75" y="143" type="line"/>
    </contour>
    <component base="commaaccentcomb" xOffset="107" yOffset="29"/>
  </outline>
</glyph>
<glyph name="lcaron" format="2">
  <advance width="201"/>
  <unicode hex="013E"/>
  <guideline x="124" y="441" angle="90"/>
  <guideline x="81" y="441" angle="90"/>
  <outline>
    <contour>
      <point x="124" y="441" type="line"/>
      <point x="140" y="441" type="line"/>
      <point x="191" y="575" type="line"/>
      <point x="161" y="575" type="line"/>
    </contour>
    <component base="l"/>
  </outline>
</glyph>
<glyph name="Lslash" format="2">
  <advance width="465"/>
  <unicode hex="0141"/>
  <outline>
    <contour>
      <point x="-6" y="240" type="line"/>
      <point x="246" y="374" type="line"/>
      <point x="246" y="404" type="line"/>
      <point x="-6" y="270" type="line"/>
    </contour>
    <component base="L"/>
  </outline>
</glyph>
<glyph name="lslash" format="2">
  <advance width="192"/>
  <unicode hex="0142"/>
  <outline>
    <contour>
      <point x="-6" y="240" type="line"/>
      <point x="156" y="374" type="line"/>
      <point x="156" y="404" type="line"/>
      <point x="-6" y="270" type="line"/>
    </contour>
    <component base="l"/>
  </outline>
</glyph>
<glyph name="Eng" format="2">
  <advance width="600"/>
  <unicode hex="014A"/>
  <outline>
    <contour>
      <point x="404" y="-199" type="curve"/>
      <point x="472" y="-199"/>
      <point x="498" y="-154"/>
      <point x="497" y="-88" type="curve"/>
      <point x="497" y="33" type="line"/>
      <point x="472" y="33" type="line"/>
      <point x="472" y="-93" type="line"/>
      <point x="473" y="-152"/>
      <point x="451" y="-177"/>
      <point x="404" y="-177" type="curve"/>
      <point x="383" y="-177"/>
      <point x="366" y="-168"/>
      <point x="356" y="-156" type="curve"/>
      <point x="337" y="-175" type="line"/>
      <point x="354" y="-191"/>
      <point x="375" y="-199"/>
    </contour>
    <component base="N"/>
  </outline>
</glyph>
<glyph name="eng" format="2">
  <advance width="451"/>
  <unicode hex="014B"/>
  <outline>
    <contour>
      <point x="302" y="-199" type="curve"/>
      <point x="371" y="-199"/>
      <point x="397" y="-154"/>
      <point x="396" y="-88" type="curve"/>
      <point x="396" y="33" type="line"/>
      <point x="370" y="33" type="line"/>
      <point x="370" y="-93" type="line"/>
      <point x="371" y="-152"/>
      <point x="349" y="-177"/>
      <point x="302" y="-177" type="curve"/>
      <point x="281" y="-177"/>
      <point x="264" y="-168"/>
      <point x="254" y="-156" type="curve"/>
      <point x="235" y="-175" type="line"/>
      <point x="252" y="-191"/>
      <point x="273" y="-199"/>
    </contour>
    <component base="n"/>
  </outline>
</glyph>
<glyph name="Ohungarumlaut" format="2">
  <advance width="597"/>
  <unicode hex="0150"/>
  <outline>
    <contour>
      <point x="223" y="639" type="line"/>
      <point x="239" y="632" type="line"/>
      <point x="335" y="753" type="line"/>
      <point x="305" y="766" type="line"/>
    </contour>
    <contour>
      <point x="333" y="639" type="line"/>
      <point x="349" y="632" type="line"/>
      <point x="445" y="753" type="line"/>
      <point x="415" y="766" type="line"/>
    </contour>
    <component base="O"/>
  </outline>
</glyph>
<glyph name="ohungarumlaut" format="2">
  <advance width="437"/>
  <unicode hex="0151"/>
  <outline>
    <contour>
      <point x="144" y="451" type="line"/>
      <point x="160" y="444" type="line"/>
      <point x="256" y="565" type="line"/>
      <point x="226" y="578" type="line"/>
    </contour>
    <contour>
      <point x="254" y="451" type="line"/>
      <point x="270" y="444" type="line"/>
      <point x="366" y="565" type="line"/>
      <point x="336" y="578" type="line"/>
    </contour>
    <component base="o"/>
  </outline>
</glyph>
<glyph name="OE" format="2">
  <advance width="825"/>
  <unicode hex="0152"/>
  <outline>
    <contour>
      <point x="356" y="0" type="curve"/>
      <point x="376" y="0"/>
      <point x="373" y="0"/>
      <point x="455" y="0" type="curve"/>
      <point x="455" y="563" type="line"/>
      <point x="368" y="563"/>
      <point x="374" y="563"/>
      <point x="356" y="563" type="curve"/>
      <point x="161" y="563"/>
      <point x="30" y="469"/>
      <point x="30" y="282" type="curve"/>
      <point x="30" y="60"/>
      <point x="161" y="0"/>
    </contour>
    <contour>
      <point x="356" y="25" type="curve"/>
      <point x="177" y="25"/>
      <point x="58" y="70"/>
      <point x="58" y="282" type="curve"/>
      <point x="58" y="458"/>
      <point x="177" y="538"/>
      <point x="356" y="538" type="curve"/>
      <point x="428" y="538" type="line"/>
      <point x="428" y="25" type="line"/>
      <point x="362" y="25"/>
      <point x="373" y="25"/>
    </contour>
    <contour>
      <point x="428" y="0" type="line"/>
      <point x="790" y="0" type="line"/>
      <point x="790" y="25" type="line"/>
      <point x="455" y="25" type="line"/>
      <point x="455" y="272" type="line"/>
      <point x="720" y="272" type="line"/>
      <point x="720" y="298" type="line"/>
      <point x="455" y="298" type="line"/>
      <point x="455" y="537" type="line"/>
      <point x="781" y="537" type="line"/>
      <point x="781" y="563" type="line"/>
      <point x="428" y="563" type="line"/>
    </contour>
  </outline>
</glyph>
<glyph name="oe" format="2">
  <advance width="774"/>
  <unicode hex="0153"/>
  <outline>
    <contour>
      <point x="214" y="-10" type="curve"/>
      <point x="339" y="-10"/>
      <point x="396" y="79"/>
      <point x="396" y="196" type="curve"/>
      <point x="396" y="321"/>
      <point x="333" y="404"/>
      <point x="214" y="404" type="curve"/>
      <point x="92" y="404"/>
      <point x="30" y="318"/>
      <point x="30" y="196" type="curve"/>
      <point x="30" y="76"/>
      <point x="91" y="-10"/>
    </contour>
    <contour>
      <point x="214" y="16" type="curve"/>
      <point x="95" y="16"/>
      <point x="58" y="110"/>
      <point x="58" y="196" type="curve"/>
      <point x="58" y="284"/>
      <point x="95" y="378"/>
      <point x="214" y="378" type="curve"/>
      <point x="333" y="378"/>
      <point x="370" y="284"/>
      <point x="370" y="196" type="curve"/>
      <point x="370" y="110"/>
      <point x="333" y="16"/>
    </contour>
    <contour>
      <point x="557" y="-10" type="curve"/>
      <point x="645" y="-10"/>
      <point x="716" y="44"/>
      <point x="733" y="125" type="curve"/>
      <point x="706" y="125" type="line"/>
      <point x="692" y="57"/>
      <point x="632" y="15"/>
      <point x="557" y="15" type="curve"/>
      <point x="454" y="15"/>
      <point x="396" y="89"/>
      <point x="396" y="201" type="curve"/>
      <point x="734" y="201" type="line"/>
      <point x="734" y="209"/>
      <point x="734" y="218"/>
      <point x="733" y="226" type="curve" smooth="yes"/>
      <point x="720" y="333"/>
      <point x="654" y="404"/>
      <point x="557" y="404" type="curve"/>
      <point x="434" y="404"/>
      <point x="372" y="304"/>
      <point x="370" y="202" type="curve" smooth="yes"/>
      <point x="368" y="97"/>
      <point x="431" y="-10"/>
    </contour>
    <contour>
      <point x="399" y="226" type="line"/>
      <point x="410" y="315"/>
      <point x="467" y="379"/>
      <point x="557" y="379" type="curve"/>
      <point x="659" y="379"/>
      <point x="704" y="288"/>
      <point x="706" y="226" type="curve"/>
    </contour>
  </outline>
</glyph>
<glyph name="tcaron" format="2">
  <advance width="245"/>
  <unicode hex="0165"/>
  <outline>
    <contour>
      <point x="143" y="441" type="line"/>
      <point x="159" y="441" type="line"/>
      <point x="210" y="575" type="line"/>
      <point x="180" y="575" type="line"/>
    </contour>
    <component base="t"/>
  </outline>
</glyph>
<glyph name="Tbar" format="2">
  <advance width="434"/>
  <unicode hex="0166"/>
  <outline>
    <contour>
      <point x="10" y="538" type="line"/>
      <point x="425" y="538" type="line"/>
      <point x="425" y="563" type="line"/>
      <point x="10" y="563" type="line"/>
    </contour>
    <contour>
      <point x="55" y="302" type="line"/>
      <point x="380" y="302" type="line"/>
      <point x="380" y="327" type="line"/>
      <point x="55" y="327" type="line"/>
    </contour>
    <contour>
      <point x="231" y="545" type="line"/>
      <point x="205" y="545" type="line"/>
      <point x="205" y="0" type="line"/>
      <point x="231" y="0" type="line"/>
    </contour>
  </outline>
</glyph>
<glyph name="tbar" format="2">
  <advance width="247"/>
  <unicode hex="0167"/>
  <guideline x="7" y="193" angle="90"/>
  <outline>
    <contour>
      <point x="197" y="16" type="curve"/>
      <point x="186" y="35" type="line"/>
      <point x="149" y="-2"/>
      <point x="102" y="11"/>
      <point x="102" y="67" type="curve"/>
      <point x="102" y="386" type="line"/>
      <point x="75" y="386" type="line"/>
      <point x="75" y="67" type="line"/>
      <point x="75" y="-11"/>
      <point x="141" y="-34"/>
    </contour>
    <contour>
      <point x="18" y="210" type="line"/>
      <point x="178" y="210" type="line"/>
      <point x="178" y="235" type="line"/>
      <point x="18" y="235" type="line"/>
    </contour>
    <contour>
      <point x="7" y="379" type="line"/>
      <point x="197" y="379" type="line"/>
      <point x="197" y="404" type="line"/>
      <point x="102" y="404" type="line"/>
      <point x="102" y="509" type="line"/>
      <point x="75" y="509" type="line"/>
      <point x="75" y="404"/>
      <point x="82" y="404"/>
      <point x="7" y="404" type="curve"/>
    </contour>
  </outline>
</glyph>
<glyph name="Uhungarumlaut" format="2">
  <advance width="558"/>
  <unicode hex="0170"/>
  <outline>
    <contour>
      <point x="193" y="639" type="line"/>
      <point x="209" y="632" type="line"/>
      <point x="305" y="753" type="line"/>
      <point x="275" y="766" type="line"/>
    </contour>
    <contour>
      <point x="303" y="639" type="line"/>
      <point x="319" y="632" type="line"/>
      <point x="415" y="753" type="line"/>
      <point x="385" y="766" type="line"/>
    </contour>
    <component base="U"/>
  </outline>
</glyph>
<glyph name="uhungarumlaut" format="2">
  <advance width="430"/>
  <unicode hex="0171"/>
  <outline>
    <contour>
      <point x="134" y="451" type="line"/>
      <point x="150" y="444" type="line"/>
      <point x="246" y="565" type="line"/>
      <point x="216" y="578" type="line"/>
    </contour>
    <contour>
      <point x="244" y="451" type="line"/>
      <point x="260" y="444" type="line"/>
      <point x="356" y="565" type="line"/>
      <point x="326" y="578" type="line"/>
    </contour>
    <component base="u"/>
  </outline>
</glyph>
<glyph name="Uogonek" format="2">
  <advance width="558"/>
  <unicode hex="0172"/>
  <outline>
    <contour>
      <point x="284" y="-198" type="curve"/>
      <point x="334" y="-198"/>
      <point x="356" y="-155"/>
      <point x="356" y="-155" type="curve"/>
      <point x="334" y="-140" type="line"/>
      <point x="334" y="-140"/>
      <point x="325" y="-174"/>
      <point x="284" y="-174" type="curve"/>
      <point x="250" y="-174"/>
      <point x="232" y="-152"/>
      <point x="232" y="-123" type="curve"/>
      <point x="232" y="-49"/>
      <point x="334" y="-6"/>
      <point x="334" y="-6" type="curve"/>
      <point x="329" y="7" type="line"/>
      <point x="329" y="7"/>
      <point x="208" y="-37"/>
      <point x="208" y="-123" type="curve"/>
      <point x="208" y="-165"/>
      <point x="235" y="-198"/>
    </contour>
    <component base="U"/>
  </outline>
</glyph>
<glyph name="uogonek" format="2">
  <advance width="430"/>
  <unicode hex="0173"/>
  <outline>
    <contour>
      <point x="325" y="-198" type="curve"/>
      <point x="375" y="-198"/>
      <point x="397" y="-155"/>
      <point x="397" y="-155" type="curve"/>
      <point x="375" y="-140" type="line"/>
      <point x="375" y="-140"/>
      <point x="366" y="-174"/>
      <point x="325" y="-174" type="curve"/>
      <point x="291" y="-174"/>
      <point x="273" y="-152"/>
      <point x="273" y="-123" type="curve"/>
      <point x="273" y="-49"/>
      <point x="375" y="0"/>
      <point x="375" y="0" type="curve"/>
      <point x="370" y="13" type="line"/>
      <point x="370" y="13"/>
      <point x="249" y="-37"/>
      <point x="249" y="-123" type="curve"/>
      <point x="249" y="-165"/>
      <point x="276" y="-198"/>
    </contour>
    <component base="u"/>
  </outline>
</glyph>
<glyph name="caron" format="2">
  <advance width="385"/>
  <unicode hex="02C7"/>
  <outline>
    <contour>
      <point x="55" y="746" type="line"/>
      <point x="185" y="610" type="line"/>
      <point x="199" y="610" type="line"/>
      <point x="330" y="746" type="line"/>
      <point x="298" y="746" type="line"/>
      <point x="192" y="631" type="line"/>
      <point x="86" y="746" type="line"/>
    </contour>
  </outline>
</glyph>
<glyph name="gravecomb" format="2">
  <unicode hex="0300"/>
  <guideline x="-12" y="741" angle="204.4582"/>
  <outline>
    <contour>
      <point x="109" y="632" type="line"/>
      <point x="125" y="632" type="line"/>
      <point x="125" y="638" type="line"/>
      <point x="68" y="744" type="line"/>
      <point x="38" y="744" type="line"/>
      <point x="38" y="733" type="line"/>
    </contour>
  </outline>
</glyph>
<glyph name="acutecomb" format="2">
  <unicode hex="0301"/>
  <guideline x="142" y="591" angle="153.8574"/>
  <guideline x="229" y="696" angle="153.8574"/>
  <outline>
    <contour>
      <point x="54" y="632" type="line"/>
      <point x="125" y="733" type="line"/>
      <point x="125" y="744" type="line"/>
      <point x="95" y="744" type="line"/>
      <point x="38" y="638" type="line"/>
      <point x="38" y="632" type="line"/>
    </contour>
  </outline>
</glyph>
<glyph name="circumflexcomb" format="2">
  <unicode hex="0302"/>
  <guideline x="192" y="579" angle="90"/>
  <guideline x="186" y="642" angle="0"/>
  <outline>
    <contour>
      <point x="85" y="632" type="line"/>
      <point x="116" y="632" type="line"/>
      <point x="191" y="714" type="line"/>
      <point x="193" y="714" type="line"/>
      <point x="269" y="632" type="line"/>
      <point x="300" y="632" type="line"/>
      <point x="300" y="638" type="line"/>
      <point x="199" y="736" type="line"/>
      <point x="185" y="736" type="line"/>
      <point x="85" y="638" type="line"/>
    </contour>
  </outline>
</glyph>
<glyph name="tildecomb" format="2">
  <unicode hex="0303"/>
  <guideline x="122" y="594" angle="0"/>
  <outline>
    <contour>
      <point x="165" y="632"/>
      <point x="171" y="579"/>
      <point x="225" y="579" type="curve" smooth="yes"/>
      <point x="265" y="579"/>
      <point x="278" y="609"/>
      <point x="275" y="653" type="curve"/>
      <point x="250" y="653" type="line"/>
      <point x="250" y="618"/>
      <point x="249" y="599"/>
      <point x="225" y="599" type="curve" smooth="yes"/>
      <point x="186" y="599"/>
      <point x="183" y="652"/>
      <point x="128" y="652" type="curve" smooth="yes"/>
      <point x="87" y="652"/>
      <point x="76" y="623"/>
      <point x="78" y="579" type="curve"/>
      <point x="103" y="579" type="line"/>
      <point x="102" y="612"/>
      <point x="105" y="632"/>
      <point x="128" y="632" type="curve" smooth="yes"/>
    </contour>
  </outline>
</glyph>
<glyph name="macroncomb" format="2">
  <unicode hex="0304"/>
  <outline>
    <contour>
      <point x="40" y="734" type="line"/>
      <point x="262" y="734" type="line"/>
      <point x="262" y="760" type="line"/>
      <point x="40" y="760" type="line"/>
    </contour>
  </outline>
</glyph>
<glyph name="brevecomb" format="2">
  <unicode hex="0306"/>
  <guideline x="47" y="751" angle="0"/>
  <guideline x="41" y="744" angle="90"/>
  <guideline x="155" y="706" angle="0"/>
  <outline>
    <contour>
      <point x="156" y="675" type="curve" smooth="yes"/>
      <point x="218" y="675"/>
      <point x="257" y="706"/>
      <point x="257" y="751" type="curve"/>
      <point x="234" y="751" type="line"/>
      <point x="234" y="706"/>
      <point x="198" y="700"/>
      <point x="155" y="700" type="curve" smooth="yes"/>
      <point x="112" y="700"/>
      <point x="75" y="706"/>
      <point x="75" y="751" type="curve"/>
      <point x="53" y="751" type="line"/>
      <point x="53" y="706"/>
      <point x="93" y="675"/>
    </contour>
  </outline>
</glyph>
<glyph name="dotaccentcomb" format="2">
  <unicode hex="0307"/>
  <outline>
    <contour>
      <point x="79" y="693" type="curve"/>
      <point x="106" y="693"/>
      <point x="112" y="709"/>
      <point x="112" y="727" type="curve"/>
      <point x="112" y="744"/>
      <point x="106" y="760"/>
      <point x="79" y="760" type="curve"/>
      <point x="52" y="760"/>
      <point x="45" y="744"/>
      <point x="45" y="727" type="curve"/>
      <point x="45" y="709"/>
      <point x="52" y="693"/>
    </contour>
  </outline>
</glyph>
<glyph name="dieresiscomb" format="2">
  <unicode hex="0308"/>
  <outline>
    <contour>
      <point x="79" y="693" type="curve"/>
      <point x="106" y="693"/>
      <point x="112" y="709"/>
      <point x="112" y="727" type="curve"/>
      <point x="112" y="744"/>
      <point x="106" y="760"/>
      <point x="79" y="760" type="curve"/>
      <point x="52" y="760"/>
      <point x="45" y="744"/>
      <point x="45" y="727" type="curve"/>
      <point x="45" y="709"/>
      <point x="52" y="693"/>
    </contour>
    <contour>
      <point x="211" y="693" type="curve"/>
      <point x="238" y="693"/>
      <point x="244" y="709"/>
      <point x="244" y="727" type="curve"/>
      <point x="244" y="744"/>
      <point x="238" y="760"/>
      <point x="211" y="760" type="curve"/>
      <point x="184" y="760"/>
      <point x="177" y="744"/>
      <point x="177" y="727" type="curve"/>
      <point x="177" y="709"/>
      <point x="184" y="693"/>
    </contour>
  </outline>
</glyph>
<glyph name="hookabovecomb" format="2">
  <unicode hex="0309"/>
  <guideline x="74" y="628" angle="0"/>
  <outline>
    <contour>
      <point x="69" y="622" type="line"/>
      <point x="96" y="622" type="line"/>
      <point x="96" y="649"/>
      <point x="147" y="655"/>
      <point x="147" y="701" type="curve" smooth="yes"/>
      <point x="147" y="762"/>
      <point x="49" y="765"/>
      <point x="32" y="701" type="curve"/>
      <point x="54" y="695" type="line"/>
      <point x="69" y="741"/>
      <point x="124" y="732"/>
      <point x="124" y="698" type="curve" smooth="yes"/>
      <point x="124" y="665"/>
      <point x="75" y="656"/>
      <point x="69" y="628" type="curve"/>
    </contour>
  </outline>
</glyph>
<glyph name="ringcomb" format="2">
  <unicode hex="030A"/>
  <outline>
    <contour>
      <point x="123" y="596" type="curve"/>
      <point x="173" y="596"/>
      <point x="207" y="630"/>
      <point x="207" y="677" type="curve"/>
      <point x="207" y="727"/>
      <point x="173" y="760"/>
      <point x="123" y="760" type="curve"/>
      <point x="72" y="760"/>
      <point x="40" y="727"/>
      <point x="40" y="677" type="curve"/>
      <point x="40" y="628"/>
      <point x="73" y="596"/>
    </contour>
    <contour>
      <point x="123" y="615" type="curve"/>
      <point x="88" y="615"/>
      <point x="60" y="642"/>
      <point x="60" y="678" type="curve"/>
      <point x="60" y="713"/>
      <point x="84" y="741"/>
      <point x="123" y="741" type="curve"/>
      <point x="162" y="741"/>
      <point x="185" y="713"/>
      <point x="185" y="678" type="curve"/>
      <point x="185" y="643"/>
      <point x="162" y="615"/>
    </contour>
  </outline>
</glyph>
<glyph name="hungarumlautcomb" format="2">
  <unicode hex="030B"/>
  <outline>
    <contour>
      <point x="30" y="639" type="line"/>
      <point x="46" y="632" type="line"/>
      <point x="142" y="753" type="line"/>
      <point x="112" y="766" type="line"/>
    </contour>
    <contour>
      <point x="140" y="639" type="line"/>
      <point x="156" y="632" type="line"/>
      <point x="252" y="753" type="line"/>
      <point x="222" y="766" type="line"/>
    </contour>
  </outline>
</glyph>
<glyph name="caroncomb" format="2">
  <unicode hex="030C"/>
  <guideline x="161" y="735" angle="0"/>
  <outline>
    <contour>
      <point x="55" y="746" type="line"/>
      <point x="55" y="735" type="line"/>
      <point x="185" y="610" type="line"/>
      <point x="199" y="610" type="line"/>
      <point x="330" y="735" type="line"/>
      <point x="330" y="746" type="line"/>
      <point x="298" y="746" type="line"/>
      <point x="192" y="637" type="line"/>
      <point x="86" y="746" type="line"/>
    </contour>
  </outline>
</glyph>
<glyph name="commaturnedabovecomb" format="2">
  <unicode hex="0312"/>
  <outline>
    <contour>
      <point x="128" y="760" type="line"/>
      <point x="44" y="760"/>
      <point x="45" y="659"/>
      <point x="45" y="659" type="curve"/>
      <point x="63" y="659" type="line"/>
      <point x="63" y="659"/>
      <point x="48" y="731"/>
      <point x="128" y="731" type="curve"/>
    </contour>
    <contour>
      <point x="71" y="688" type="curve"/>
      <point x="50" y="688"/>
      <point x="45" y="675"/>
      <point x="45" y="659" type="curve"/>
      <point x="45" y="643"/>
      <point x="50" y="629"/>
      <point x="71" y="629" type="curve"/>
      <point x="92" y="629"/>
      <point x="97" y="643"/>
      <point x="97" y="659" type="curve"/>
      <point x="97" y="675"/>
      <point x="92" y="688"/>
    </contour>
  </outline>
</glyph>
<glyph name="horncomb" format="2">
  <unicode hex="031B"/>
  <guideline x="62" y="658" angle="0"/>
  <guideline x="62" y="635" angle="0"/>
  <outline>
    <contour>
      <point x="45" y="635" type="line"/>
      <point x="66" y="635" type="line" smooth="yes"/>
      <point x="104" y="635"/>
      <point x="131" y="650"/>
      <point x="131" y="688" type="curve"/>
      <point x="90" y="688" type="line"/>
      <point x="90" y="664"/>
      <point x="85" y="658"/>
      <point x="63" y="658" type="curve" smooth="yes"/>
      <point x="48" y="658" type="line"/>
    </contour>
  </outline>
</glyph>
<glyph name="dotbelowcomb" format="2">
  <unicode hex="0323"/>
  <outline>
    <contour>
      <point x="73" y="-77" type="curve"/>
      <point x="95" y="-77"/>
      <point x="100" y="-64"/>
      <point x="100" y="-49" type="curve"/>
      <point x="100" y="-35"/>
      <point x="95" y="-22"/>
      <point x="73" y="-22" type="curve"/>
      <point x="51" y="-22"/>
      <point x="45" y="-35"/>
      <point x="45" y="-49" type="curve"/>
      <point x="45" y="-64"/>
      <point x="51" y="-77"/>
    </contour>
  </outline>
</glyph>
<glyph name="commaaccentcomb" format="2">
  <unicode hex="0326"/>
  <outline>
    <contour>
      <point x="45" y="-199" type="line"/>
      <point x="59" y="-199" type="line" smooth="yes"/>
      <point x="94" y="-199"/>
      <point x="103" y="-169"/>
      <point x="103" y="-107" type="curve" smooth="yes"/>
      <point x="103" y="-81"/>
      <point x="99" y="-68"/>
      <point x="77" y="-68" type="curve" smooth="yes"/>
      <point x="56" y="-68"/>
      <point x="51" y="-81"/>
      <point x="51" y="-96" type="curve" smooth="yes"/>
      <point x="51" y="-121"/>
      <point x="64" y="-131"/>
      <point x="86" y="-126" type="curve"/>
      <point x="86" y="-146"/>
      <point x="87" y="-169"/>
      <point x="56" y="-169" type="curve" smooth="yes"/>
      <point x="45" y="-169" type="line"/>
    </contour>
  </outline>
</glyph>
<glyph name="cedillacomb" format="2">
  <unicode hex="0327"/>
  <outline>
    <contour>
      <point x="30" y="-116" type="line"/>
      <point x="88" y="-181"/>
      <point x="204" y="-160"/>
      <point x="204" y="-87" type="curve"/>
      <point x="204" y="-19"/>
      <point x="110" y="-26"/>
      <point x="78" y="-62" type="curve"/>
      <point x="119" y="0" type="line"/>
      <point x="98" y="9" type="line"/>
      <point x="61" y="-64" type="line"/>
      <point x="76" y="-80" type="line"/>
      <point x="115" y="-52"/>
      <point x="176" y="-45"/>
      <point x="180" y="-88" type="curve"/>
      <point x="185" y="-143"/>
      <point x="85" y="-147"/>
      <point x="45" y="-98" type="curve"/>
    </contour>
  </outline>
</glyph>
<glyph name="ogonekcomb" format="2">
  <unicode hex="0328"/>
  <outline>
    <contour>
      <point x="114" y="-199" type="curve" smooth="yes"/>
      <point x="164" y="-199"/>
      <point x="186" y="-156"/>
      <point x="186" y="-156" type="curve"/>
      <point x="164" y="-141" type="line"/>
      <point x="164" y="-141"/>
      <point x="155" y="-175"/>
      <point x="114" y="-175" type="curve" smooth="yes"/>
      <point x="80" y="-175"/>
      <point x="62" y="-153"/>
      <point x="62" y="-124" type="curve" smooth="yes"/>
      <point x="62" y="-50"/>
      <point x="159" y="-1"/>
      <point x="159" y="-1" type="curve"/>
      <point x="159" y="12" type="line"/>
      <point x="159" y="12"/>
      <point x="38" y="-38"/>
      <point x="38" y="-124" type="curve" smooth="yes"/>
      <point x="38" y="-166"/>
      <point x="65" y="-199"/>
    </contour>
  </outline>
</glyph>
<glyph name="ihookabove" format="2">
  <advance width="221"/>
  <unicode hex="1EC9"/>
  <outline>
    <contour>
      <point x="86" y="0" type="line"/>
      <point x="112" y="0" type="line"/>
      <point x="112" y="404" type="line"/>
      <point x="111" y="404"/>
      <point x="86" y="404"/>
      <point x="86" y="404" type="curve"/>
    </contour>
    <component base="hookabovecomb" xOffset="17" yOffset="-171"/>
  </outline>
</glyph>
<glyph name="endash" format="2">
  <advance width="397"/>
  <unicode hex="2013"/>
  <outline>
    <contour>
      <point x="40" y="211" type="line"/>
      <point x="342" y="211" type="line"/>
      <point x="342" y="237" type="line"/>
      <point x="40" y="237" type="line"/>
    </contour>
  </outline>
</glyph>
<glyph name="emdash" format="2">
  <advance width="497"/>
  <unicode hex="2014"/>
  <outline>
    <contour>
      <point x="40" y="211" type="line"/>
      <point x="442" y="211" type="line"/>
      <point x="442" y="237" type="line"/>
      <point x="40" y="237" type="line"/>
    </contour>
  </outline>
</glyph>
<glyph name="quoteleft" format="2">
  <advance width="163"/>
  <unicode hex="2018"/>
  <outline>
    <contour>
      <point x="46" y="432" type="curve"/>
      <point x="67" y="432"/>
      <point x="72" y="446"/>
      <point x="72" y="462" type="curve"/>
      <point x="72" y="478"/>
      <point x="67" y="491"/>
      <point x="46" y="491" type="curve"/>
      <point x="25" y="491"/>
      <point x="20" y="478"/>
      <point x="20" y="462" type="curve"/>
      <point x="20" y="446"/>
      <point x="25" y="432"/>
    </contour>
    <contour>
      <point x="20" y="462" type="curve"/>
      <point x="38" y="462" type="line"/>
      <point x="38" y="462"/>
      <point x="23" y="534"/>
      <point x="103" y="534" type="curve"/>
      <point x="103" y="563" type="line"/>
      <point x="19" y="563"/>
      <point x="20" y="462"/>
    </contour>
  </outline>
</glyph>
<glyph name="quoteright" format="2">
  <advance width="128"/>
  <unicode hex="2019"/>
  <outline>
    <contour>
      <point x="15" y="432" type="line"/>
      <point x="99" y="432"/>
      <point x="98" y="533"/>
      <point x="98" y="533" type="curve"/>
      <point x="80" y="533" type="line"/>
      <point x="80" y="533"/>
      <point x="95" y="461"/>
      <point x="15" y="461" type="curve"/>
    </contour>
    <contour>
      <point x="72" y="504" type="curve"/>
      <point x="93" y="504"/>
      <point x="98" y="517"/>
      <point x="98" y="533" type="curve"/>
      <point x="98" y="549"/>
      <point x="93" y="563"/>
      <point x="72" y="563" type="curve"/>
      <point x="51" y="563"/>
      <point x="46" y="549"/>
      <point x="46" y="533" type="curve"/>
      <point x="46" y="517"/>
      <point x="51" y="504"/>
    </contour>
  </outline>
</glyph>
<glyph name="quotesinglbase" format="2">
  <advance width="183"/>
  <unicode hex="201A"/>
  <outline>
    <contour>
      <point x="45" y="-72" type="line"/>
      <point x="129" y="-72"/>
      <point x="128" y="29"/>
      <point x="128" y="29" type="curve"/>
      <point x="110" y="29" type="line"/>
      <point x="110" y="29"/>
      <point x="125" y="-43"/>
      <point x="45" y="-43" type="curve"/>
    </contour>
    <contour>
      <point x="102" y="0" type="curve"/>
      <point x="123" y="0"/>
      <point x="128" y="13"/>
      <point x="128" y="29" type="curve"/>
      <point x="128" y="45"/>
      <point x="123" y="59"/>
      <point x="102" y="59" type="curve"/>
      <point x="81" y="59"/>
      <point x="76" y="45"/>
      <point x="76" y="29" type="curve"/>
      <point x="76" y="13"/>
      <point x="81" y="0"/>
    </contour>
  </outline>
</glyph>
<glyph name="quotedblleft" format="2">
  <advance width="255"/>
  <unicode hex="201C"/>
  <outline>
    <contour>
      <point x="20" y="432" type="line"/>
      <point x="104" y="432"/>
      <point x="103" y="533"/>
      <point x="103" y="533" type="curve"/>
      <point x="85" y="533" type="line"/>
      <point x="85" y="533"/>
      <point x="100" y="461"/>
      <point x="20" y="461" type="curve"/>
    </contour>
    <contour>
      <point x="77" y="504" type="curve"/>
      <point x="98" y="504"/>
      <point x="103" y="517"/>
      <point x="103" y="533" type="curve"/>
      <point x="103" y="549"/>
      <point x="98" y="563"/>
      <point x="77" y="563" type="curve"/>
      <point x="56" y="563"/>
      <point x="51" y="549"/>
      <point x="51" y="533" type="curve"/>
      <point x="51" y="517"/>
      <point x="56" y="504"/>
    </contour>
    <contour>
      <point x="112" y="432" type="line"/>
      <point x="196" y="432"/>
      <point x="195" y="533"/>
      <point x="195" y="533" type="curve"/>
      <point x="177" y="533" type="line"/>
      <point x="177" y="533"/>
      <point x="192" y="461"/>
      <point x="112" y="461" type="curve"/>
    </contour>
    <contour>
      <point x="169" y="504" type="curve"/>
      <point x="190" y="504"/>
      <point x="195" y="517"/>
      <point x="195" y="533" type="curve"/>
      <point x="195" y="549"/>
      <point x="190" y="563"/>
      <point x="169" y="563" type="curve"/>
      <point x="148" y="563"/>
      <point x="143" y="549"/>
      <point x="143" y="533" type="curve"/>
      <point x="143" y="517"/>
      <point x="148" y="504"/>
    </contour>
  </outline>
</glyph>
<glyph name="quotedblright" format="2">
  <advance width="255"/>
  <unicode hex="201D"/>
  <outline>
    <contour>
      <point x="112" y="462" type="curve"/>
      <point x="130" y="462" type="line"/>
      <point x="130" y="462"/>
      <point x="115" y="534"/>
      <point x="195" y="534" type="curve"/>
      <point x="195" y="563" type="line"/>
      <point x="111" y="563"/>
      <point x="112" y="462"/>
    </contour>
    <contour>
      <point x="46" y="432" type="curve"/>
      <point x="67" y="432"/>
      <point x="72" y="446"/>
      <point x="72" y="462" type="curve"/>
      <point x="72" y="478"/>
      <point x="67" y="491"/>
      <point x="46" y="491" type="curve"/>
      <point x="25" y="491"/>
      <point x="20" y="478"/>
      <point x="20" y="462" type="curve"/>
      <point x="20" y="446"/>
      <point x="25" y="432"/>
    </contour>
    <contour>
      <point x="20" y="462" type="curve"/>
      <point x="38" y="462" type="line"/>
      <point x="38" y="462"/>
      <point x="23" y="534"/>
      <point x="103" y="534" type="curve"/>
      <point x="103" y="563" type="line"/>
      <point x="19" y="563"/>
      <point x="20" y="462"/>
    </contour>
    <contour>
      <point x="138" y="432" type="curve"/>
      <point x="159" y="432"/>
      <point x="164" y="446"/>
      <point x="164" y="462" type="curve"/>
      <point x="164" y="478"/>
      <point x="159" y="491"/>
      <point x="138" y="491" type="curve"/>
      <point x="117" y="491"/>
      <point x="112" y="478"/>
      <point x="112" y="462" type="curve"/>
      <point x="112" y="446"/>
      <point x="117" y="432"/>
    </contour>
  </outline>
</glyph>
<glyph name="quotedblbase" format="2">
  <advance width="275"/>
  <unicode hex="201E"/>
  <outline>
    <contour>
      <point x="45" y="-72" type="line"/>
      <point x="129" y="-72"/>
      <point x="128" y="29"/>
      <point x="128" y="29" type="curve"/>
      <point x="110" y="29" type="line"/>
      <point x="110" y="29"/>
      <point x="125" y="-43"/>
      <point x="45" y="-43" type="curve"/>
    </contour>
    <contour>
      <point x="102" y="0" type="curve"/>
      <point x="123" y="0"/>
      <point x="128" y="13"/>
      <point x="128" y="29" type="curve"/>
      <point x="128" y="45"/>
      <point x="123" y="59"/>
      <point x="102" y="59" type="curve"/>
      <point x="81" y="59"/>
      <point x="76" y="45"/>
      <point x="76" y="29" type="curve"/>
      <point x="76" y="13"/>
      <point x="81" y="0"/>
    </contour>
    <contour>
      <point x="137" y="-72" type="line"/>
      <point x="221" y="-72"/>
      <point x="220" y="29"/>
      <point x="220" y="29" type="curve"/>
      <point x="202" y="29" type="line"/>
      <point x="202" y="29"/>
      <point x="217" y="-43"/>
      <point x="137" y="-43" type="curve"/>
    </contour>
    <contour>
      <point x="194" y="0" type="curve"/>
      <point x="215" y="0"/>
      <point x="220" y="13"/>
      <point x="220" y="29" type="curve"/>
      <point x="220" y="45"/>
      <point x="215" y="59"/>
      <point x="194" y="59" type="curve"/>
      <point x="173" y="59"/>
      <point x="168" y="45"/>
      <point x="168" y="29" type="curve"/>
      <point x="168" y="13"/>
      <point x="173" y="0"/>
    </contour>
  </outline>
</glyph>
<glyph name="bullet" format="2">
  <advance width="187"/>
  <unicode hex="2022"/>
  <outline>
    <contour>
      <point x="84" y="201" type="curve"/>
      <point x="115" y="201"/>
      <point x="122" y="219"/>
      <point x="122" y="240" type="curve"/>
      <point x="122" y="260"/>
      <point x="115" y="278"/>
      <point x="84" y="278" type="curve"/>
      <point x="53" y="278"/>
      <point x="45" y="260"/>
      <point x="45" y="240" type="curve"/>
      <point x="45" y="219"/>
      <point x="53" y="201"/>
    </contour>
  </outline>
</glyph>
<glyph name="ellipsis" format="2">
  <advance width="373"/>
  <unicode hex="2026"/>
  <outline>
    <contour>
      <point x="69" y="0" type="curve"/>
      <point x="88" y="0"/>
      <point x="93" y="13"/>
      <point x="93" y="29" type="curve"/>
      <point x="93" y="45"/>
      <point x="88" y="59"/>
      <point x="69" y="59" type="curve"/>
      <point x="50" y="59"/>
      <point x="45" y="45"/>
      <point x="45" y="29" type="curve"/>
      <point x="45" y="13"/>
      <point x="50" y="0"/>
    </contour>
    <contour>
      <point x="181" y="0" type="curve"/>
      <point x="200" y="0"/>
      <point x="205" y="13"/>
      <point x="205" y="29" type="curve"/>
      <point x="205" y="45"/>
      <point x="200" y="59"/>
      <point x="181" y="59" type="curve"/>
      <point x="162" y="59"/>
      <point x="157" y="45"/>
      <point x="157" y="29" type="curve"/>
      <point x="157" y="13"/>
      <point x="162" y="0"/>
    </contour>
    <contour>
      <point x="294" y="0" type="curve"/>
      <point x="313" y="0"/>
      <point x="318" y="13"/>
      <point x="318" y="29" type="curve"/>
      <point x="318" y="45"/>
      <point x="313" y="59"/>
      <point x="294" y="59" type="curve"/>
      <point x="275" y="59"/>
      <point x="270" y="45"/>
      <point x="270" y="29" type="curve"/>
      <point x="270" y="13"/>
      <point x="275" y="0"/>
    </contour>
  </outline>
</glyph>
<glyph name="perthousand" format="2">
  <advance width="760"/>
  <unicode hex="2030"/>
  <outline>
    <contour>
      <point x="78" y="0" type="line"/>
      <point x="279" y="284" type="line"/>
      <point x="476" y="548" type="line"/>
      <point x="456" y="562" type="line"/>
      <point x="267" y="292" type="line"/>
      <point x="58" y="15" type="line"/>
    </contour>
    <contour>
      <point x="420" y="-10" type="curve"/>
      <point x="484" y="-10"/>
      <point x="511" y="41"/>
      <point x="511" y="114" type="curve"/>
      <point x="511" y="189"/>
      <point x="484" y="238"/>
      <point x="420" y="238" type="curve"/>
      <point x="356" y="238"/>
      <point x="329" y="189"/>
      <point x="329" y="114" type="curve"/>
      <point x="329" y="38"/>
      <point x="357" y="-10"/>
    </contour>
    <contour>
      <point x="420" y="9" type="curve"/>
      <point x="370" y="9"/>
      <point x="351" y="53"/>
      <point x="351" y="113" type="curve"/>
      <point x="351" y="178"/>
      <point x="370" y="218"/>
      <point x="420" y="218" type="curve"/>
      <point x="471" y="218"/>
      <point x="489" y="175"/>
      <point x="489" y="113" type="curve"/>
      <point x="489" y="53"/>
      <point x="471" y="9"/>
    </contour>
    <contour>
      <point x="121" y="325" type="curve"/>
      <point x="185" y="325"/>
      <point x="212" y="376"/>
      <point x="212" y="449" type="curve"/>
      <point x="212" y="524"/>
      <point x="185" y="573"/>
      <point x="121" y="573" type="curve"/>
      <point x="57" y="573"/>
      <point x="30" y="524"/>
      <point x="30" y="449" type="curve"/>
      <point x="30" y="373"/>
      <point x="58" y="325"/>
    </contour>
    <contour>
      <point x="121" y="344" type="curve"/>
      <point x="71" y="344"/>
      <point x="52" y="388"/>
      <point x="52" y="448" type="curve"/>
      <point x="52" y="513"/>
      <point x="71" y="553"/>
      <point x="121" y="553" type="curve"/>
      <point x="172" y="553"/>
      <point x="190" y="510"/>
      <point x="190" y="448" type="curve"/>
      <point x="190" y="388"/>
      <point x="172" y="344"/>
    </contour>
    <contour>
      <point x="639" y="-10" type="curve"/>
      <point x="703" y="-10"/>
      <point x="730" y="41"/>
      <point x="730" y="114" type="curve"/>
      <point x="730" y="189"/>
      <point x="703" y="238"/>
      <point x="639" y="238" type="curve"/>
      <point x="575" y="238"/>
      <point x="548" y="189"/>
      <point x="548" y="114" type="curve"/>
      <point x="548" y="38"/>
      <point x="576" y="-10"/>
    </contour>
    <contour>
      <point x="639" y="9" type="curve"/>
      <point x="589" y="9"/>
      <point x="570" y="53"/>
      <point x="570" y="113" type="curve"/>
      <point x="570" y="178"/>
      <point x="589" y="218"/>
      <point x="639" y="218" type="curve"/>
      <point x="690" y="218"/>
      <point x="708" y="175"/>
      <point x="708" y="113" type="curve"/>
      <point x="708" y="53"/>
      <point x="690" y="9"/>
    </contour>
  </outline>
</glyph>
<glyph name="guilsinglleft" format="2">
  <advance width="376"/>
  <unicode hex="2039"/>
  <outline>
    <contour>
      <point x="336" y="363" type="line"/>
      <point x="40" y="223" type="line"/>
      <point x="336" y="81" type="line"/>
      <point x="336" y="113" type="line"/>
      <point x="78" y="223" type="line"/>
      <point x="336" y="333" type="line"/>
    </contour>
  </outline>
</glyph>
<glyph name="guilsinglright" format="2">
  <advance width="381"/>
  <unicode hex="203A"/>
  <outline>
    <contour>
      <point x="40" y="363" type="line"/>
      <point x="40" y="333" type="line"/>
      <point x="298" y="223" type="line"/>
      <point x="40" y="113" type="line"/>
      <point x="40" y="81" type="line"/>
      <point x="336" y="223" type="line"/>
    </contour>
  </outline>
</glyph>
<glyph name="fraction" format="2">
  <advance width="478"/>
  <unicode hex="2044"/>
  <outline>
    <contour>
      <point x="50" y="0" type="line"/>
      <point x="251" y="284" type="line"/>
      <point x="448" y="548" type="line"/>
      <point x="428" y="562" type="line"/>
      <point x="239" y="292" type="line"/>
      <point x="30" y="15" type="line"/>
    </contour>
  </outline>
</glyph>
<glyph name="foursuperior" format="2">
  <advance width="244"/>
  <unicode hex="2074"/>
  <outline>
    <contour>
      <point x="15" y="463" type="line"/>
      <point x="229" y="463" type="line"/>
      <point x="229" y="488" type="line"/>
      <point x="46" y="488" type="line"/>
      <point x="110" y="532"/>
      <point x="160" y="608"/>
      <point x="160" y="681" type="curve"/>
      <point x="130" y="681" type="line"/>
      <point x="129" y="609"/>
      <point x="78" y="518"/>
      <point x="15" y="488" type="curve"/>
    </contour>
    <contour>
      <point x="162" y="404" type="line"/>
      <point x="190" y="404" type="line"/>
      <point x="190" y="542" type="line"/>
      <point x="162" y="542" type="line"/>
    </contour>
  </outline>
</glyph>
<glyph name="euro" format="2">
  <advance width="602"/>
  <unicode hex="20AC"/>
  <guideline x="502" y="253" angle="0"/>
  <guideline x="502" y="303" angle="0"/>
  <guideline x="502" y="341" angle="0"/>
  <guideline x="502" y="363" angle="0"/>
  <outline>
    <contour>
      <point x="326" y="-10" type="curve"/>
      <point x="451" y="-10"/>
      <point x="534" y="58"/>
      <point x="557" y="190" type="curve"/>
      <point x="528" y="190" type="line"/>
      <point x="510" y="81"/>
      <point x="441" y="14"/>
      <point x="326" y="14" type="curve"/>
      <point x="194" y="14"/>
      <point x="109" y="106"/>
      <point x="109" y="282" type="curve"/>
      <point x="109" y="455"/>
      <point x="196" y="549"/>
      <point x="329" y="549" type="curve"/>
      <point x="433" y="549"/>
      <point x="505" y="484"/>
      <point x="525" y="370" type="curve"/>
      <point x="553" y="370" type="line"/>
      <point x="529" y="506"/>
      <point x="442" y="573"/>
      <point x="329" y="573" type="curve"/>
      <point x="183" y="573"/>
      <point x="82" y="477"/>
      <point x="82" y="282" type="curve"/>
      <point x="82" y="90"/>
      <point x="186" y="-10"/>
    </contour>
    <contour>
      <point x="30" y="309" type="line"/>
      <point x="369" y="309" type="line"/>
      <point x="384" y="333" type="line"/>
      <point x="30" y="333" type="line"/>
    </contour>
    <contour>
      <point x="30" y="233" type="line"/>
      <point x="339" y="232" type="line"/>
      <point x="354" y="257" type="line"/>
      <point x="30" y="257" type="line"/>
    </contour>
  </outline>
</glyph>
<glyph name="trademark" format="2">
  <advance width="440"/>
  <unicode hex="2122"/>
  <guideline x="691" y="354" angle="0"/>
  <outline>
    <contour>
      <point x="154" y="541" type="line"/>
      <point x="82" y="541" type="line"/>
      <point x="82" y="354" type="line"/>
      <point x="57" y="354" type="line"/>
      <point x="57" y="541" type="line"/>
      <point x="-15" y="541" type="line"/>
      <point x="-15" y="563" type="line"/>
      <point x="154" y="563" type="line"/>
    </contour>
    <contour>
      <point x="405" y="354" type="line"/>
      <point x="379" y="354" type="line"/>
      <point x="381" y="550" type="line"/>
      <point x="315" y="354" type="line"/>
      <point x="275" y="354" type="line"/>
      <point x="212" y="550" type="line"/>
      <point x="212" y="354" type="line"/>
      <point x="186" y="354" type="line"/>
      <point x="186" y="563" type="line"/>
      <point x="231" y="563" type="line"/>
      <point x="296" y="367" type="line"/>
      <point x="360" y="563" type="line"/>
      <point x="405" y="563" type="line"/>
    </contour>
  </outline>
</glyph>
<glyph name="leftArrow" format="2">
  <advance width="388"/>
  <unicode hex="2190"/>
  <outline>
    <contour>
      <point x="35" y="212" type="line"/>
      <point x="172" y="212"/>
      <point x="174" y="333"/>
      <point x="174" y="335" type="curve"/>
      <point x="149" y="335" type="line"/>
      <point x="149" y="331"/>
      <point x="146" y="238"/>
      <point x="35" y="238" type="curve"/>
    </contour>
    <contour>
      <point x="149" y="115" type="curve"/>
      <point x="174" y="115" type="line"/>
      <point x="174" y="116"/>
      <point x="172" y="238"/>
      <point x="35" y="238" type="curve"/>
      <point x="35" y="212" type="line"/>
      <point x="146" y="212"/>
      <point x="149" y="119"/>
    </contour>
    <contour>
      <point x="35" y="212" type="line"/>
      <point x="353" y="212" type="line"/>
      <point x="353" y="238" type="line"/>
      <point x="35" y="238" type="line"/>
    </contour>
  </outline>
</glyph>
<glyph name="upArrow" format="2">
  <advance width="290"/>
  <unicode hex="2191"/>
  <guideline x="62" y="129" angle="0"/>
  <guideline x="62" y="447" angle="0"/>
  <outline>
    <contour>
      <point x="255" y="308" type="curve"/>
      <point x="255" y="333" type="line"/>
      <point x="251" y="333"/>
      <point x="158" y="336"/>
      <point x="158" y="447" type="curve"/>
      <point x="132" y="447" type="line"/>
      <point x="132" y="310"/>
      <point x="254" y="308"/>
    </contour>
    <contour>
      <point x="132" y="129" type="line"/>
      <point x="158" y="129" type="line"/>
      <point x="158" y="447" type="line"/>
      <point x="132" y="447" type="line"/>
    </contour>
    <contour>
      <point x="35" y="308" type="line"/>
      <point x="37" y="308"/>
      <point x="158" y="310"/>
      <point x="158" y="447" type="curve"/>
      <point x="132" y="447" type="line"/>
      <point x="132" y="336"/>
      <point x="39" y="333"/>
      <point x="35" y="333" type="curve"/>
    </contour>
  </outline>
</glyph>
<glyph name="rightArrow" format="2">
  <advance width="388"/>
  <unicode hex="2192"/>
  <outline>
    <contour>
      <point x="353" y="212" type="curve"/>
      <point x="353" y="238" type="line"/>
      <point x="242" y="238"/>
      <point x="239" y="331"/>
      <point x="239" y="335" type="curve"/>
      <point x="214" y="335" type="line"/>
      <point x="214" y="333"/>
      <point x="216" y="212"/>
    </contour>
    <contour>
      <point x="35" y="212" type="line"/>
      <point x="353" y="212" type="line"/>
      <point x="353" y="238" type="line"/>
      <point x="35" y="238" type="line"/>
    </contour>
    <contour>
      <point x="214" y="115" type="curve"/>
      <point x="239" y="115" type="line"/>
      <point x="239" y="119"/>
      <point x="242" y="212"/>
      <point x="353" y="212" type="curve"/>
      <point x="353" y="238" type="line"/>
      <point x="216" y="238"/>
      <point x="214" y="116"/>
    </contour>
  </outline>
</glyph>
<glyph name="downArrow" format="2">
  <advance width="290"/>
  <unicode hex="2193"/>
  <outline>
    <contour>
      <point x="132" y="129" type="curve"/>
      <point x="158" y="129" type="line"/>
      <point x="158" y="240"/>
      <point x="251" y="243"/>
      <point x="255" y="243" type="curve"/>
      <point x="255" y="268" type="line"/>
      <point x="254" y="268"/>
      <point x="132" y="266"/>
    </contour>
    <contour>
      <point x="132" y="129" type="curve"/>
      <point x="158" y="129" type="line"/>
      <point x="158" y="266"/>
      <point x="37" y="268"/>
      <point x="35" y="268" type="curve"/>
      <point x="35" y="243" type="line"/>
      <point x="39" y="243"/>
      <point x="132" y="240"/>
    </contour>
    <contour>
      <point x="132" y="129" type="line"/>
      <point x="158" y="129" type="line"/>
      <point x="158" y="447" type="line"/>
      <point x="132" y="447" type="line"/>
    </contour>
  </outline>
</glyph>
<glyph name="leftRightArrow" format="2">
  <advance width="525"/>
  <unicode hex="2194"/>
  <outline>
    <contour>
      <point x="490" y="212" type="curve"/>
      <point x="490" y="238" type="line"/>
      <point x="379" y="238"/>
      <point x="376" y="331"/>
      <point x="376" y="335" type="curve"/>
      <point x="351" y="335" type="line"/>
      <point x="351" y="333"/>
      <point x="353" y="212"/>
    </contour>
    <contour>
      <point x="149" y="115" type="curve"/>
      <point x="174" y="115" type="line"/>
      <point x="174" y="116"/>
      <point x="172" y="238"/>
      <point x="35" y="238" type="curve"/>
      <point x="35" y="212" type="line"/>
      <point x="146" y="212"/>
      <point x="149" y="119"/>
    </contour>
    <contour>
      <point x="35" y="212" type="line"/>
      <point x="172" y="212"/>
      <point x="174" y="333"/>
      <point x="174" y="335" type="curve"/>
      <point x="149" y="335" type="line"/>
      <point x="149" y="331"/>
      <point x="146" y="238"/>
      <point x="35" y="238" type="curve"/>
    </contour>
    <contour>
      <point x="35" y="212" type="line"/>
      <point x="353" y="212" type="line"/>
      <point x="353" y="238" type="line"/>
      <point x="35" y="238" type="line"/>
    </contour>
    <contour>
      <point x="172" y="212" type="line"/>
      <point x="490" y="212" type="line"/>
      <point x="490" y="238" type="line"/>
      <point x="172" y="238" type="line"/>
    </contour>
    <contour>
      <point x="351" y="115" type="curve"/>
      <point x="376" y="115" type="line"/>
      <point x="376" y="119"/>
      <point x="379" y="212"/>
      <point x="490" y="212" type="curve"/>
      <point x="490" y="238" type="line"/>
      <point x="353" y="238"/>
      <point x="351" y="116"/>
    </contour>
  </outline>
</glyph>
<glyph name="upDownArrow" format="2">
  <advance width="290"/>
  <unicode hex="2195"/>
  <guideline x="96" y="447" angle="0"/>
  <outline>
    <contour>
      <point x="255" y="308" type="curve"/>
      <point x="255" y="333" type="line"/>
      <point x="251" y="333"/>
      <point x="158" y="336"/>
      <point x="158" y="447" type="curve"/>
      <point x="132" y="447" type="line"/>
      <point x="132" y="310"/>
      <point x="254" y="308"/>
    </contour>
    <contour>
      <point x="132" y="-8" type="curve"/>
      <point x="158" y="-8" type="line"/>
      <point x="158" y="129"/>
      <point x="37" y="131"/>
      <point x="35" y="131" type="curve"/>
      <point x="35" y="106" type="line"/>
      <point x="39" y="106"/>
      <point x="132" y="103"/>
    </contour>
    <contour>
      <point x="132" y="-8" type="curve"/>
      <point x="158" y="-8" type="line"/>
      <point x="158" y="103"/>
      <point x="251" y="106"/>
      <point x="255" y="106" type="curve"/>
      <point x="255" y="131" type="line"/>
      <point x="254" y="131"/>
      <point x="132" y="129"/>
    </contour>
    <contour>
      <point x="132" y="-8" type="line"/>
      <point x="158" y="-8" type="line"/>
      <point x="158" y="310" type="line"/>
      <point x="132" y="310" type="line"/>
    </contour>
    <contour>
      <point x="132" y="129" type="line"/>
      <point x="158" y="129" type="line"/>
      <point x="158" y="447" type="line"/>
      <point x="132" y="447" type="line"/>
    </contour>
    <contour>
      <point x="35" y="308" type="line"/>
      <point x="37" y="308"/>
      <point x="158" y="310"/>
      <point x="158" y="447" type="curve"/>
      <point x="132" y="447" type="line"/>
      <point x="132" y="336"/>
      <point x="39" y="333"/>
      <point x="35" y="333" type="curve"/>
    </contour>
  </outline>
</glyph>
<glyph name="northWestArrow" format="2">
  <advance width="323"/>
  <unicode hex="2196"/>
  <outline>
    <contour>
      <point x="224" y="179" type="line"/>
      <point x="243" y="198" type="line"/>
      <point x="18" y="422" type="line"/>
      <point x="0" y="404" type="line"/>
    </contour>
    <contour>
      <point x="29" y="237" type="line"/>
      <point x="30" y="238"/>
      <point x="115" y="326"/>
      <point x="18" y="422" type="curve"/>
      <point x="0" y="404" type="line"/>
      <point x="78" y="326"/>
      <point x="14" y="258"/>
      <point x="12" y="255" type="curve"/>
    </contour>
    <contour>
      <point x="186" y="392" type="curve"/>
      <point x="167" y="410" type="line"/>
      <point x="164" y="408"/>
      <point x="96" y="344"/>
      <point x="18" y="422" type="curve"/>
      <point x="0" y="404" type="line"/>
      <point x="96" y="307"/>
      <point x="184" y="390"/>
    </contour>
  </outline>
</glyph>
<glyph name="northEastArrow" format="2">
  <advance width="323"/>
  <unicode hex="2197"/>
  <guideline x="34" y="129" angle="0"/>
  <guideline x="34" y="447" angle="0"/>
  <outline>
    <contour>
      <point x="19" y="179" type="line"/>
      <point x="243" y="404" type="line"/>
      <point x="225" y="422" type="line"/>
      <point x="0" y="198" type="line"/>
    </contour>
    <contour>
      <point x="214" y="237" type="curve"/>
      <point x="231" y="255" type="line"/>
      <point x="229" y="258"/>
      <point x="165" y="326"/>
      <point x="243" y="404" type="curve"/>
      <point x="225" y="422" type="line"/>
      <point x="128" y="326"/>
      <point x="213" y="238"/>
    </contour>
    <contour>
      <point x="57" y="392" type="line"/>
      <point x="59" y="390"/>
      <point x="147" y="307"/>
      <point x="243" y="404" type="curve"/>
      <point x="225" y="422" type="line"/>
      <point x="147" y="344"/>
      <point x="79" y="408"/>
      <point x="76" y="410" type="curve"/>
    </contour>
  </outline>
</glyph>
<glyph name="southEastArrow" format="2">
  <advance width="323"/>
  <unicode hex="2198"/>
  <outline>
    <contour>
      <point x="270" y="155" type="line"/>
      <point x="288" y="173" type="line"/>
      <point x="53" y="408" type="line"/>
      <point x="35" y="390" type="line"/>
    </contour>
    <contour>
      <point x="270" y="155" type="curve" smooth="yes"/>
      <point x="288" y="173" type="line" smooth="yes"/>
      <point x="191" y="270"/>
      <point x="104" y="186"/>
      <point x="103" y="185" type="curve" smooth="yes"/>
      <point x="120" y="167" type="line" smooth="yes"/>
      <point x="123" y="170"/>
      <point x="191" y="233"/>
    </contour>
    <contour>
      <point x="270" y="155" type="curve" smooth="yes"/>
      <point x="288" y="173" type="line" smooth="yes"/>
      <point x="210" y="252"/>
      <point x="273" y="320"/>
      <point x="276" y="322" type="curve" smooth="yes"/>
      <point x="258" y="340" type="line" smooth="yes"/>
      <point x="258" y="339"/>
      <point x="173" y="252"/>
    </contour>
  </outline>
</glyph>
<glyph name="southWestArrow" format="2">
  <advance width="323"/>
  <unicode hex="2199"/>
  <outline>
    <contour>
      <point x="53" y="155" type="line"/>
      <point x="288" y="390" type="line"/>
      <point x="270" y="408" type="line"/>
      <point x="35" y="173" type="line"/>
    </contour>
    <contour>
      <point x="53" y="155" type="line"/>
      <point x="150" y="252"/>
      <point x="65" y="339"/>
      <point x="65" y="340" type="curve"/>
      <point x="47" y="322" type="line"/>
      <point x="50" y="320"/>
      <point x="113" y="252"/>
      <point x="35" y="173" type="curve"/>
    </contour>
    <contour>
      <point x="53" y="155" type="line"/>
      <point x="132" y="233"/>
      <point x="200" y="170"/>
      <point x="203" y="167" type="curve"/>
      <point x="220" y="185" type="line"/>
      <point x="219" y="186"/>
      <point x="132" y="270"/>
      <point x="35" y="173" type="curve"/>
    </contour>
  </outline>
</glyph>
